<svg xmlns="http://www.w3.org/2000/svg" viewBox="0 0 513 342"><path fill="#FFF" d="M0 0h513v342H0z"/><path fill="#338AF3" d="M0 0h513v114H0zm0 228h513v114H0zm203.5-110.1 6.7 16.6 17.6 1-14 10.9 4.7 17.7-15-9.9-15 9.9 4.7-17.7-14-10.9 17.6-1zm105 0 6.7 16.6 17.6 1-14 10.9 4.7 17.7-15-9.9-15 9.9 4.7-17.7-14-10.9 17.6-1zM256 147.6l6.7 16.6 17.6 1-14 10.9 4.7 17.7-15-9.9-15 9.9 4.7-17.7-14-10.9 17.6-1zm-52.5 29.7 6.7 16.6 17.6 1-14 10.9 4.7 17.6-15-9.9-15 9.9 4.7-17.6-14-10.9 17.6-1zm105 0 6.7 16.6 17.6 1-14 10.9 4.7 17.6-15-9.9-15 9.9 4.7-17.6-14-10.9 17.6-1z"/></svg>
