<?xml version="1.0" encoding="UTF-8"?>
<svg
        xmlns="http://www.w3.org/2000/svg"
        viewBox="0 0 512 512"
        width="512"
        height="512"
        aria-label="Blacksky logo"
>
  <!-- 512 / 98.999 ≈ 5.17177; translate 9.90625 units first to centre vertically -->
  <g transform="translate(0 9.90625) scale(5.17177)">
    <path
            fill="#000000"
            d="M32.5654 9.96191C32.5654 19.5056 40.0604 27.2986 49.4854 27.7764H49.5137C58.9386 27.2986 66.4336 19.5056 66.4336 9.96191V0H71.2002V9.96191C71.2002 19.8135 79.1865 27.7998 89.0381 27.7998H98.999V32.5654H89.0381C79.1865 32.5654 71.2002 40.5518 71.2002 50.4033V60.3652H66.4336V50.4033C66.4336 40.8547 58.9308 33.0583 49.499 32.5879C40.0677 33.0588 32.5655 40.8551 32.5654 50.4033V60.3652H60.3652V60.3662H0V60.3652H27.7998V50.4033C27.7997 40.5519 19.8134 32.5654 9.96191 32.5654H0V27.7998H9.96191C19.8135 27.7998 27.7998 19.8135 27.7998 9.96191V0H32.5654V9.96191Z"
    />
  </g>
</svg>