<svg width="683" height="683" viewBox="0 0 683 683" fill="none" xmlns="http://www.w3.org/2000/svg">
<path d="M644.515 338.646L643.406 337.537C587.273 281.415 507.601 258.867 430.21 277.287C419.919 279.751 409.814 283.016 400.017 286.836C405.439 275.377 409.876 263.549 413.265 251.29C427.375 200.835 423.555 146.684 402.605 98.8778C399.031 90.8075 389.604 87.1111 381.532 90.6226C373.46 94.1958 369.763 103.621 373.275 111.692C391.267 152.783 394.533 199.295 382.456 242.665C374.692 270.387 360.767 296.2 341.85 317.947C325.521 296.446 313.752 271.619 307.467 245.375C291.632 178.903 310.98 110.46 359.226 62.2841L359.842 61.6681C366.251 55.6308 366.559 45.4659 360.52 39.0589C354.543 32.5903 344.438 32.2823 337.968 38.3812C337.537 38.8125 337.105 39.2437 336.674 39.6749C280.541 95.7975 257.988 175.453 276.412 252.83C278.877 263.241 282.204 273.468 286.148 283.386C274.625 277.903 262.61 273.406 250.286 269.956C199.821 255.848 145.66 259.668 97.8444 280.614C89.7109 284.125 86.0138 293.551 89.5877 301.621C93.1615 309.692 102.589 313.388 110.661 309.876C151.76 291.888 198.281 288.622 241.66 300.697C269.388 308.459 295.206 322.382 316.957 341.295C295.452 357.621 270.62 369.387 244.371 375.671C177.886 391.504 109.429 372.098 61.182 323.861L60.6274 323.245C54.5889 316.838 44.422 316.53 38.0137 322.567C31.6055 328.604 31.2974 338.769 37.336 345.176C37.7673 345.608 38.1986 346.1 38.6299 346.47C81.8855 389.717 139.128 413.004 198.528 413.004C216.212 413.004 234.081 410.909 251.827 406.72C262.117 404.256 272.222 400.991 282.019 397.171C276.597 408.63 272.161 420.52 268.772 432.718C254.661 483.172 258.481 537.324 279.431 585.129C283.005 593.2 292.433 596.896 300.505 593.385C308.577 589.811 312.274 580.386 308.761 572.316C290.769 531.225 287.503 484.713 299.58 441.342C307.344 413.62 321.27 387.807 340.186 366.061C356.515 387.561 368.284 412.388 374.569 438.632C390.405 505.104 370.995 573.548 322.81 621.723L322.194 622.339C315.786 628.377 315.478 638.541 321.516 644.948C324.659 648.275 328.91 650 333.162 650C337.105 650 341.049 648.583 344.13 645.626C344.561 645.195 344.992 644.764 345.424 644.332C401.557 588.21 424.109 508.554 405.686 431.177C403.221 420.766 399.894 410.54 395.95 400.621C407.473 406.104 419.488 410.601 431.812 414.051C451.837 419.657 472.479 422.43 493.059 422.43C524.3 422.43 555.416 416.023 584.253 403.393C592.325 399.82 596.022 390.395 592.51 382.324C588.936 374.254 579.509 370.558 571.437 374.069C530.338 392.058 483.817 395.323 440.438 383.248C412.649 375.486 386.892 361.563 365.141 342.65C386.646 326.325 411.478 314.558 437.727 308.275C504.212 292.442 572.669 311.848 620.854 360.023L621.594 360.762C627.694 367.169 637.799 367.293 644.146 361.194C650.492 355.218 650.616 344.991 644.515 338.646Z" fill="#FDE295"/>
</svg>
