<svg xmlns="http://www.w3.org/2000/svg" fill="none" viewBox="0 0 24 24"><path fill="#000" d="M16.091 3.001c.385-.01 1.07.04 1.51.646q.122.17.186.334c.317-.029.759-.066 1.17-.032.395.034 1.195.163 1.661.9.411.65.308 1.316.107 1.768a3.3 3.3 0 0 1-.416.667c.142.124.302.293.428.507.302.514.316 1.083.182 1.62-.236.944-1.025 1.356-1.504 1.54-.493.19-1.07.294-1.502.371l-.05.009-.1.017c.106.368.084.759-.039 1.13-.34 1.025-1.114 1.513-1.85 1.718-.632.176-1.337.176-1.839.175h-.18c.126.508-.018 1.009-.158 1.348-.52 1.25-1.696 1.717-2.647 1.915s-2.052.204-2.966.21h-.063c-.5.002-.945.005-1.334.027-.345.666-.63 1.407-.962 2.271v.003l-.27.701c-.37.943-1.413 1.4-2.33 1.02-.918-.378-1.364-1.45-.996-2.392.473-1.207.962-2.049 1.615-3.342.175-.348.322-.628.452-.889 0-.786.057-1.341.17-2.045.19-1.183.35-1.639.585-2.718.215-.746.532-1.747 1.03-2.299.285-.317.727-.78 1.392-.812.404-.02.656.315.869.457.618-.86 1.143-2.005 1.82-2.894.542-.713 1.125-1.336 2.067-1.188.485.077 1.176.452 1.176 1.188.18-.205.729-.995.96-1.188.44-.367 1.048-.721 1.826-.743m-.347.953c-.828.023-1.412.747-1.902 1.354-.355.44-.66.82-.975.828-.308.008-.285-.204-.256-.473.042-.383.095-.88-.78-1.02-.726-.114-1.492 1.266-2.157 2.464-.455.82-.864 1.555-1.18 1.667-.482.172-.705-.03-.896-.202-.23-.208-.413-.373-.947.22-.563.623-.947 2.328-1.319 4.186-.047.237.283.39.434.203.856-1.057 2.248-2.51 3.908-3.585 1.526-.988 2.998-1.97 4.664-2.464.245-.073.315.21.08.312-1.878.82-3.491 1.903-5.181 3.348-1.9 1.589-3.696 3.703-4.607 5.427a22 22 0 0 0-1.511 3.127.6.6 0 0 0 .32.771.573.573 0 0 0 .751-.329q.134-.345.262-.68c.39-1.02.756-1.976 1.271-2.845a.21.21 0 0 1 .154-.101c.56-.069 1.227-.073 1.917-.077 1.881-.01 3.936-.023 4.487-1.348.287-.692-.06-.792-.373-.881-.255-.074-.489-.141-.335-.52.268-.655 1.138-.655 2.061-.655 1.075 0 2.22 0 2.563-1.036.147-.443-.115-.618-.347-.772-.194-.129-.366-.244-.262-.492.167-.394.89-.525 1.658-.663.917-.165 1.895-.34 2.057-.99.154-.614-.133-.812-.429-1.017-.18-.126-.364-.255-.454-.481-.11-.279.13-.576.38-.885.296-.365.604-.746.362-1.13-.276-.435-1.096-.358-1.775-.295-.424.04-.793.073-.94-.025-.148-.1-.142-.268-.136-.436.009-.262.017-.521-.566-.505"/></svg>
