<svg width="24" height="24" viewBox="0 0 24 24" fill="none" xmlns="http://www.w3.org/2000/svg">
<path d="M6.54729 11.8415C6.66801 12.836 7.11067 14.8647 8.11671 16.5751C8.23744 16.8138 8.55937 16.774 8.63986 16.5751L14.4346 6.07367C14.5553 5.87478 14.5151 5.59634 14.3139 5.43722C13.4688 4.72121 12.3823 4.28365 11.0946 4.32343C6.46681 4.44276 6.42657 10.2106 6.54729 11.8415ZM12.9054 19.638C17.4125 19.5187 17.5734 13.7907 17.4125 12.1995C17.332 11.1653 16.8894 9.09681 15.8431 7.3068C15.7626 7.14769 15.4809 7.14769 15.4004 7.3068L9.56541 17.8878C9.48492 18.1265 9.52517 18.3652 9.68613 18.5243C10.5312 19.2403 11.6177 19.6778 12.9054 19.638ZM17.8149 2.93119L17.5734 3.36875C17.4125 3.6472 17.493 3.96543 17.7345 4.08476C20.9537 6.11345 22 9.61393 22 11.9211C22 14.7851 19.5856 21.4678 12.2213 21.4678C10.7727 21.4678 9.52517 21.2689 8.3984 20.9109C8.1972 20.8314 7.9155 20.9109 7.79478 21.1098L7.47284 21.7463C7.35212 21.9849 7.07043 22.0645 6.82898 21.9452L6.38632 21.7065C6.14488 21.5872 6.0644 21.3088 6.18512 21.0701L6.46681 20.5529C6.58753 20.3143 6.50705 20.0358 6.30584 19.9165C3.08652 17.848 2 14.3078 2 12.0802C2 9.21615 4.21328 2.53341 11.6177 2.53341C13.1469 2.53341 14.4346 2.7323 15.5614 3.0903C15.8028 3.16986 16.0846 3.05053 16.2053 2.85163L16.5674 2.21518C16.6881 2.01629 16.9699 1.93673 17.1711 2.05607L17.654 2.29474C17.8552 2.41407 17.9357 2.69252 17.8149 2.93119Z" fill="black"/>
</svg>
