<svg xmlns="http://www.w3.org/2000/svg" fill="none" viewBox="0 0 24 24"><path fill="#000" d="M12.781 4c1.543 0 2.853.528 3.752 1.661q.132.167.25.347.537.358.963.891C18.62 8 19 9.54 19 11.355c0 1.444-.241 2.715-.777 3.73q.081.057.156.128c.238.224.376.504.463.752l.006.014.004.015c.112.359.188.88-.106 1.362q-.091.15-.205.26.024.154.013.322c-.042.569-.407.95-.721 1.18-.234.169-.568.355-.986.355a1.3 1.3 0 0 1-.627-.157 1.3 1.3 0 0 1-.63.157c-.4 0-.744-.186-.978-.356l-.01-.008c-.258-.193-.571-.503-.68-.952a2 2 0 0 1-.523-.278l-.01-.008c-.16-.12-.34-.284-.48-.497a5 5 0 0 1-.373-.1v1.687c0 .341-.085.773-.423 1.11-.333.331-.756.412-1.089.412H7.705c-.334 0-.752-.086-1.08-.42a1.46 1.46 0 0 1-.394-.836 1.4 1.4 0 0 1-.819-.402C5.084 18.491 5 18.064 5 17.723V5.72c0-.341.084-.767.412-1.102.328-.334.746-.42 1.08-.42h3.32c.27 0 .596.053.886.245A4.85 4.85 0 0 1 12.781 4m0 .929c-.95 0-1.747.277-2.368.772 0-.376-.194-.574-.601-.574h-3.32q-.582 0-.583.594v12.002q0 .594.583.594h3.32c.407 0 .601-.198.601-.594v-3.189c.63.487 1.41.782 2.321.792.005-.147.037-.294.083-.43.068-.215.17-.425.336-.585a.91.91 0 0 1 .742-.248 1 1 0 0 1 .209-.425c.236-.277.582-.354.906-.354.32 0 .667.078.902.356q.049.059.086.122c.579-.868.879-2.089.879-3.644 0-3.406-1.437-5.19-4.096-5.19m2.229 8.819c-.532 0-.744.259-.68.784l.037.194-.175-.092a.9.9 0 0 0-.394-.111c-.266 0-.44.167-.55.526-.166.488.018.774.541.866l.192.027-.137.158c-.376.368-.348.7.083 1.023.165.12.32.183.449.184.211 0 .395-.147.542-.433l.092-.176.092.176c.146.286.32.433.532.433.146 0 .294-.064.459-.184.431-.313.449-.655.082-1.033l-.128-.148.183-.027c.533-.092.697-.378.541-.876-.119-.34-.293-.507-.54-.507a.96.96 0 0 0-.405.11l-.183.084.027-.194q.124-.786-.66-.784m-3.49-5.349c.913 0 1.213.696 1.213 1.858s-.3 1.856-1.213 1.856c-.912 0-1.212-.694-1.212-1.856s.3-1.857 1.213-1.858"/></svg>
