<svg xmlns="http://www.w3.org/2000/svg" fill="none" viewBox="0 0 24 24"><path fill="#000" d="M4.686 8.752c1.117 0 1.88.517 2.246 1.52q.247.678.249 1.643l-.001.097q-.014.94-.267 1.6l-.074.176c-.394.858-1.123 1.303-2.153 1.303a2.32 2.32 0 0 1-1.408-.455l-.035-.028v1.966a1 1 0 0 1-.008.074c-.029.178-.146.267-.359.267H.854q-.273 0-.335-.216l-.01-.035a1 1 0 0 1-.009-.09v-7.34a.7.7 0 0 1 .02-.149.27.27 0 0 1 .155-.18l.027-.01.005-.002a.5.5 0 0 1 .126-.02h2.066q.04 0 .076.007h.007l.048.013a.27.27 0 0 1 .204.231l.005.028a1 1 0 0 1 .004.07 2 2 0 0 1 .185-.131l.039-.024a2 2 0 0 1 .289-.144q.413-.17.93-.171m5.367.041c.46 0 .958.048 1.655.289l.015.005.021.008.06.021.02.007.018.008.017.007.033.014.024.012.015.008.02.01.003.004.01.005.006.004.01.007.003.003.01.008.005.003.009.008.003.003.009.007.011.012.008.009.004.004.006.008.005.005.005.007.013.023.005.009.004.007.002.003a.4.4 0 0 1 .036.134l.004.05.083 1.389a1 1 0 0 1 0 .083v.01l-.004.03-.007.043-.002.008q0 .006-.004.012v.005l-.005.014-.005.014-.002.003-.005.011-.002.004-.006.01-.002.004-.005.008q0 .003-.003.005l-.003.003-.006.009-.003.004-.018.016-.023.018-.005.003-.01.005h-.002l-.01.006q-.004 0-.008.003l-.007.002-.007.002-.009.003-.007.001-.01.003-.005.001-.013.002H12l-.012.002h-.007l-.013.001h-.048l-.013-.003-.057-.008-.124-.02a9 9 0 0 0-1.272-.112c-.804 0-1.146.265-1.146.857 0 .495.212.857 1.134.857a10 10 0 0 0 1.396-.12c.271-.049.366.06.354.326l-.083 1.388a1 1 0 0 1-.01.093l-.001.008-.003.013-.002.006-.004.012-.018.047-.007.016-.002.002-.006.011-.003.006c-.068.107-.192.153-.358.21a4.5 4.5 0 0 1-1.655.3c-1.24 0-2.135-.377-2.706-.996.306-.61.445-1.365.445-2.219 0-.828-.13-1.562-.418-2.16.574-.6 1.464-.963 2.69-.963m11.419-1.227q.354 0 .354.363v1.073c.386.048.796.116 1.265.21.2.041.327.242.285.446l-.307 1.477a.374.374 0 0 1-.438.293 17 17 0 0 0-.805-.142v.603c0 .724.425.82.71.821.117 0 .33-.024.52-.048.271-.036.39.072.378.338l-.082 1.46c-.012.29-.166.46-.415.52a5.5 5.5 0 0 1-1.24.145c-1.869 0-2.614-.978-2.614-2.982v-.985l-.165.008a.4.4 0 0 1-.262-.085l-.002-.002a.4.4 0 0 1-.04-.039l-.004-.003a.4.4 0 0 1-.05-.071l-.003-.005a.4.4 0 0 1-.023-.052l-.002-.005-.008-.025v-.006a.4.4 0 0 1-.01-.057l-.001-.011v-.006l-.001-.019v-.784c0-.165.07-.322.193-.43.191-.168.493-.435.759-.673.154-.139.296-.268.397-.363l.003-.003.744-.683c.201-.181.438-.278.71-.278zM14.052 7c.249 0 .368.12.368.362v2.52c.375-.199.75-.37 1.143-.512.91-.328 1.852-.47 3.017-.482l-.283.25a1.14 1.14 0 0 0-.385.858v.784q.002.214.083.394c-.294.02-.56.052-.806.096l.01.029c.436 1.35 1.099 3.357 1.099 3.357.082.254-.013.386-.273.386h-2.01a.524.524 0 0 1-.532-.386l-.77-2.338q-.142.09-.293.188v2.174q.002.362-.367.362h-1.665a.95.95 0 0 0 .23-.6l.083-1.39v-.007c.008-.165-.001-.484-.243-.718-.248-.24-.564-.225-.748-.194l-.033.005v-.355l.033.006c.197.035.521.046.77-.208.23-.234.24-.544.233-.713v-.009l-.083-1.388a.93.93 0 0 0-.317-.685 1.3 1.3 0 0 0-.382-.209l-.093-.032-.161-.054V7.362q0-.362.354-.362zM3.919 10.868c-.556 0-.74.423-.74 1.132s.184 1.132.74 1.132.738-.423.738-1.132-.182-1.132-.738-1.132"/></svg>
