<svg xmlns="http://www.w3.org/2000/svg" fill="none" viewBox="0 0 24 24"><path fill="#000" d="M13.004 1.646c1.983 0 3.668.678 4.824 2.135q.17.215.32.446.694.46 1.24 1.146C20.512 6.787 21 8.767 21 11.103c0 1.856-.31 3.49-.999 4.795q.105.073.201.163c.306.288.483.648.595.967l.007.019.006.02c.144.46.24 1.13-.137 1.75a1.8 1.8 0 0 1-.263.335q.031.196.017.413c-.054.732-.522 1.223-.926 1.516H19.5c-.3.218-.73.458-1.268.458-.311 0-.58-.078-.807-.201-.23.123-.5.201-.81.201-.515 0-.955-.24-1.256-.458l-.013-.01c-.333-.249-.735-.648-.873-1.224a2.6 2.6 0 0 1-.673-.357l-.014-.01a2.6 2.6 0 0 1-.617-.64 6 6 0 0 1-.48-.128v2.168c0 .439-.108.995-.543 1.428-.429.427-.972.53-1.4.53H6.48c-.43 0-.968-.111-1.39-.541a1.87 1.87 0 0 1-.506-1.074 1.8 1.8 0 0 1-1.053-.517c-.421-.43-.53-.978-.53-1.417V3.86c0-.44.109-.987.53-1.418s.96-.54 1.389-.54h4.267c.348 0 .767.067 1.14.315.798-.376 1.7-.57 2.678-.57m0 1.193c-1.223 0-2.246.357-3.045.993 0-.483-.25-.738-.773-.738H4.918q-.748 0-.75.763V19.29q.002.763.75.764h4.268c.523 0 .773-.255.773-.764v-4.1c.81.625 1.814 1.005 2.985 1.018.007-.19.048-.377.107-.552.086-.277.218-.548.432-.753a1.17 1.17 0 0 1 .954-.318 1.25 1.25 0 0 1 .267-.548c.304-.355.749-.455 1.165-.455.411 0 .858.1 1.16.458q.064.076.112.156c.744-1.115 1.129-2.685 1.129-4.684 0-4.38-1.847-6.672-5.266-6.672m2.865 11.34c-.684 0-.955.332-.873 1.008l.047.248-.224-.119a1.2 1.2 0 0 0-.508-.142c-.341 0-.566.214-.707.676-.213.628.024.995.696 1.114l.248.036-.177.201c-.483.474-.448.9.106 1.316.212.153.413.237.578.237.271 0 .507-.19.696-.557l.118-.225.118.225c.189.367.414.557.685.557.189 0 .377-.083.59-.237.554-.403.578-.842.106-1.328L17.203 17l.236-.036c.684-.119.896-.486.696-1.126-.154-.438-.378-.651-.697-.651-.153 0-.318.047-.518.141l-.236.107.035-.248c.106-.676-.177-1.008-.85-1.008m-4.485-6.877c1.173 0 1.56.893 1.56 2.386s-.387 2.388-1.56 2.388-1.56-.894-1.56-2.388.387-2.386 1.56-2.386"/></svg>
