<svg xmlns="http://www.w3.org/2000/svg" fill="none" viewBox="0 0 24 24"><path fill="#000" fill-rule="evenodd" d="M11.862 3.042a.25.25 0 0 1 .276 0c.098.066.15.712.255 2.004l.036.45h2.484a3.56 3.56 0 0 1 3.559 3.559v.613h-1.228v-.613a2.33 2.33 0 0 0-2.331-2.332H12.53c.11 1.243.22 1.965.545 2.557a3.93 3.93 0 0 0 1.519 1.537c.727.41 1.66.5 3.526.682l1.025.1c1.165.114 1.748.17 1.813.268a.24.24 0 0 1-.002.273c-.066.097-.65.144-1.817.24l-.668.054v2.512a3.56 3.56 0 0 1-3.56 3.559h-2.486l-.033.42c-.104 1.31-.157 1.966-.255 2.033a.25.25 0 0 1-.276 0c-.098-.066-.15-.722-.255-2.033l-.033-.42H9.022a3.56 3.56 0 0 1-3.56-3.56v-.613H6.69v.613a2.33 2.33 0 0 0 2.332 2.332h2.452c-.112-1.29-.223-2.034-.557-2.639a3.93 3.93 0 0 0-1.548-1.544c-.74-.406-1.69-.484-3.59-.64l-.92-.074c-1.166-.096-1.75-.143-1.816-.24a.24.24 0 0 1-.002-.273c.065-.097.647-.154 1.813-.268l.609-.06V9.056a3.56 3.56 0 0 1 3.559-3.56h2.549l.036-.449c.105-1.292.157-1.938.255-2.004m5.382 9.495c-1.272.114-2.011.227-2.613.557a3.93 3.93 0 0 0-1.548 1.544c-.334.605-.445 1.349-.557 2.64h2.387a2.33 2.33 0 0 0 2.331-2.332zM9.022 6.723A2.33 2.33 0 0 0 6.69 9.055v2.364c1.342-.138 2.102-.257 2.715-.602a3.93 3.93 0 0 0 1.52-1.537c.323-.592.434-1.314.544-2.557z" clip-rule="evenodd"/></svg>
