<svg xmlns="http://www.w3.org/2000/svg" fill="none" viewBox="0 0 24 24"><path fill="#000" d="M11.815.056a.33.33 0 0 1 .37 0c.13.088.2.95.34 2.673l.047.599h3.312a4.745 4.745 0 0 1 4.745 4.745v.818h-1.637v-.818a3.11 3.11 0 0 0-3.109-3.11h-3.175c.147 1.658.295 2.622.726 3.41a5.24 5.24 0 0 0 2.026 2.05c.969.545 2.214.667 4.702.91l1.366.133c1.553.151 2.33.227 2.417.357a.32.32 0 0 1-.003.364c-.088.128-.866.192-2.422.32l-.891.073v3.347a4.745 4.745 0 0 1-4.746 4.746h-3.315l-.044.56c-.139 1.748-.21 2.622-.34 2.711a.33.33 0 0 1-.369 0c-.13-.088-.2-.963-.339-2.711l-.045-.56H8.03a4.746 4.746 0 0 1-4.746-4.746v-.818H4.92v.818a3.11 3.11 0 0 0 3.11 3.11h3.269c-.15-1.72-.297-2.713-.743-3.52a5.24 5.24 0 0 0-2.064-2.057c-.987-.543-2.254-.646-4.786-.853l-1.227-.1c-1.555-.128-2.333-.192-2.422-.32a.325.325 0 0 1-.003-.364c.087-.13.864-.206 2.417-.357l.812-.08V8.073a4.746 4.746 0 0 1 4.746-4.745h3.399l.048-.599c.14-1.722.209-2.585.34-2.673m7.177 12.66c-1.697.152-2.682.303-3.484.744a5.24 5.24 0 0 0-2.065 2.057c-.445.807-.592 1.8-.741 3.52h3.182a3.11 3.11 0 0 0 3.108-3.11zM8.029 4.964a3.11 3.11 0 0 0-3.11 3.109v3.152c1.79-.184 2.803-.342 3.62-.803a5.24 5.24 0 0 0 2.027-2.048c.432-.79.58-1.753.727-3.41z"/></svg>
