<svg xmlns="http://www.w3.org/2000/svg" fill="none" viewBox="0 0 24 24"><path fill="#000" fill-rule="evenodd" d="M11.846 2.047a.275.275 0 0 1 .308 0c.108.073.166.791.283 2.227l.04.499h2.76a3.955 3.955 0 0 1 3.954 3.954v.682h-1.364v-.682a2.59 2.59 0 0 0-2.59-2.59H12.59c.123 1.38.245 2.183.605 2.84a4.37 4.37 0 0 0 1.688 1.708c.808.455 1.845.556 3.918.759l1.14.11c1.294.127 1.942.19 2.014.298a.27.27 0 0 1-.003.304c-.073.107-.722.16-2.018.266l-.743.06v2.79a3.954 3.954 0 0 1-3.955 3.955h-2.762l-.037.467c-.116 1.457-.174 2.185-.283 2.259a.275.275 0 0 1-.308 0c-.108-.073-.166-.802-.282-2.259l-.038-.467H8.691a3.955 3.955 0 0 1-3.955-3.954v-.682H6.1v.682a2.59 2.59 0 0 0 2.59 2.59h2.725c-.124-1.433-.247-2.26-.618-2.932a4.37 4.37 0 0 0-1.72-1.715c-.823-.452-1.878-.538-3.988-.71l-1.023-.084c-1.296-.106-1.945-.16-2.018-.266a.27.27 0 0 1-.003-.304c.072-.108.72-.171 2.015-.297l.676-.066V8.727a3.955 3.955 0 0 1 3.955-3.954h2.832l.04-.5c.117-1.435.175-2.153.283-2.226m5.981 10.55c-1.414.126-2.235.252-2.903.619a4.37 4.37 0 0 0-1.72 1.715c-.372.672-.495 1.499-.62 2.933h2.652a2.59 2.59 0 0 0 2.591-2.591zm-9.136-6.46A2.59 2.59 0 0 0 6.1 8.726v2.627c1.492-.153 2.336-.285 3.017-.669a4.37 4.37 0 0 0 1.688-1.707c.36-.658.483-1.46.605-2.842z" clip-rule="evenodd"/></svg>
