<svg width="320" height="286" viewBox="0 0 320 286" fill="none" xmlns="http://www.w3.org/2000/svg">
<g clip-path="url(#clip0_2438_7474)">
<path d="M300.884 141.427L300.369 140.913C274.314 114.858 237.335 104.39 201.413 112.942C196.637 114.086 191.946 115.602 187.399 117.375C189.916 112.055 191.975 106.564 193.548 100.873C200.097 77.4492 198.324 52.3098 188.6 30.1162C186.941 26.3696 182.566 24.6536 178.819 26.2838C175.072 27.9426 173.356 32.3184 174.987 36.065C183.338 55.1412 184.854 76.7342 179.248 96.8686C175.644 109.739 169.181 121.722 160.401 131.818C152.822 121.836 147.359 110.311 144.442 98.127C137.092 67.2676 146.072 35.493 168.466 13.1278L168.752 12.8418C171.726 10.039 171.869 5.32003 169.066 2.34563C166.292 -0.657366 161.602 -0.800366 158.599 2.03103C158.399 2.23123 158.198 2.43143 157.998 2.63163C131.944 28.6862 121.476 65.666 130.027 101.588C131.171 106.421 132.716 111.169 134.546 115.773C129.198 113.228 123.621 111.14 117.901 109.538C94.4776 102.989 69.3382 104.762 47.1446 114.486C43.3694 116.116 41.6534 120.492 43.3122 124.239C44.971 127.985 49.3468 129.701 53.0934 128.071C72.1696 119.72 93.7626 118.204 113.897 123.81C126.767 127.413 138.75 133.877 148.846 142.657C138.865 150.236 127.339 155.699 115.155 158.616C84.296 165.966 52.5214 156.957 30.1276 134.563L29.8702 134.277C27.0674 131.303 22.3484 131.16 19.374 133.963C16.3996 136.766 16.2566 141.485 19.0594 144.459C19.2596 144.659 19.4598 144.888 19.66 145.06C39.7372 165.137 66.3066 175.948 93.877 175.948C102.085 175.948 110.379 174.975 118.616 173.03C123.392 171.886 128.083 170.371 132.63 168.597C130.113 173.917 128.054 179.437 126.481 185.1C119.932 208.523 121.705 233.662 131.429 255.856C133.088 259.603 137.463 261.319 141.21 259.688C144.957 258.03 146.673 253.654 145.042 249.907C136.691 230.831 135.175 209.238 140.781 189.104C144.385 176.234 150.848 164.25 159.628 154.154C167.207 164.136 172.67 175.662 175.587 187.845C182.937 218.705 173.928 250.479 151.563 272.844L151.277 273.13C148.303 275.933 148.16 280.652 150.963 283.627C152.421 285.171 154.395 285.972 156.368 285.972C158.198 285.972 160.029 285.314 161.459 283.941C161.659 283.741 161.859 283.541 162.059 283.341C188.114 257.286 198.582 220.306 190.03 184.385C188.886 179.551 187.342 174.804 185.511 170.199C190.86 172.744 196.437 174.832 202.157 176.434C211.452 179.036 221.033 180.323 230.585 180.323C245.085 180.323 259.528 177.349 272.913 171.486C276.66 169.827 278.376 165.451 276.745 161.705C275.087 157.958 270.711 156.242 266.964 157.872C247.888 166.224 226.295 167.739 206.161 162.134C193.262 158.53 181.307 152.067 171.211 143.286C181.193 135.707 192.719 130.245 204.902 127.328C235.762 119.977 267.536 128.986 289.901 151.352L290.245 151.695C293.076 154.669 297.766 154.726 300.712 151.895C303.658 149.121 303.715 144.373 300.884 141.427Z" fill="#FDE295"/>
</g>
<defs>
<clipPath id="clip0_2438_7474">
<rect width="286" height="286" fill="white" transform="translate(17)"/>
</clipPath>
</defs>
</svg>
