<svg xmlns="http://www.w3.org/2000/svg" fill="none" viewBox="0 0 120 28"><path fill="#006aff" d="M6.23 1.76c3.296 2.554 6.84 7.734 8.141 10.514 1.302-2.78 4.846-7.96 8.141-10.515 2.378-1.843 6.23-3.27 6.23 1.27 0 .906-.503 7.614-.798 8.703-1.026 3.786-4.764 4.752-8.09 4.168 5.813 1.021 7.292 4.405 4.098 7.79-7.186 7.614-9.58-4.074-9.58-4.074S11.975 31.304 4.79 23.69C1.597 20.305 3.076 16.92 8.89 15.9c-3.326.584-7.065-.382-8.09-4.168C.502 10.642 0 3.935 0 3.028 0-1.51 3.853-.084 6.23 1.76ZM46.662 12.878c1.979.723 3.03 2.395 3.03 4.265 0 3.169-2.077 5.09-6.06 5.09h-8.135V4.47h7.867c3.787 0 5.619 1.97 5.619 4.59 0 1.746-.782 3.019-2.321 3.817ZM43.12 7.24h-4.325v4.64h4.325c1.685 0 2.59-.898 2.59-2.395 0-1.372-.93-2.245-2.59-2.245ZM38.795 19.44h4.667c1.856 0 2.858-.874 2.858-2.445q0-2.47-2.858-2.47h-4.667v4.915ZM54.265 22.232h-3.079V4.472h3.078v17.76ZM64.471 16.57V9.36h3.078v12.872h-2.98v-1.87q-1.43 2.17-3.958 2.17c-2.663 0-4.397-1.647-4.397-4.64V9.36h3.078v8.008c0 1.622.782 2.445 2.37 2.445 1.49 0 2.81-1.123 2.81-3.243ZM81.561 16.021v.748h-9.43c.22 2.22 1.417 3.318 3.274 3.318 1.417 0 2.37-.623 2.883-1.846h2.956c-.66 2.62-2.859 4.29-5.864 4.29-1.88 0-3.396-.623-4.544-1.845-1.148-1.223-1.734-2.844-1.734-4.89 0-2.02.561-3.642 1.71-4.889 1.148-1.222 2.638-1.846 4.52-1.846 1.905 0 3.42.649 4.544 1.92 1.123 1.273 1.685 2.97 1.685 5.04Zm-6.254-4.515c-1.686 0-2.858.998-3.152 3.068h6.328c-.269-1.87-1.392-3.068-3.176-3.068ZM88.384 22.582c-3.665 0-5.595-1.472-5.766-4.44h3.005c.171 1.596.953 2.195 2.81 2.195 1.661 0 2.492-.524 2.492-1.547 0-.923-.586-1.372-2.468-1.696l-1.441-.25c-2.76-.474-4.129-1.771-4.129-3.891 0-2.42 1.881-3.892 5.228-3.892 3.592 0 5.449 1.447 5.57 4.366h-2.907c-.073-1.572-.977-2.12-2.663-2.12q-2.198 0-2.198 1.496c0 .898.635 1.297 2.1 1.572l1.589.249c3.054.574 4.373 1.721 4.373 3.917 0 2.594-2.052 4.04-5.595 4.04ZM107.49 22.232h-3.518l-3.665-5.986-1.906 1.945v4.041h-3.029V4.472h3.03v10.227l5.13-5.339h3.665l-4.764 4.865 5.057 8.007Z"/><path fill="#006aff" d="m115.529 12.603 1.026-3.243h3.225l-4.862 13.92c-.513 1.422-1.148 2.445-1.954 3.019-.806.573-1.955.848-3.469.848-.513 0-.953-.025-1.344-.075v-2.47h1.173c1.392 0 2.076-.873 2.076-2.07 0-.599-.195-1.472-.586-2.595L107.149 9.36h3.323l1.026 3.219c.757 2.42 1.417 4.814 2.003 7.184.538-2.046 1.222-4.44 2.028-7.16Z"/></svg>
