<svg width="105" height="32" viewBox="0 0 105 32" fill="none" xmlns="http://www.w3.org/2000/svg">
<path d="M19.7901 9.77492C21.7947 11.2889 23.9508 14.3587 24.7425 16.0059C25.5342 14.3587 27.6903 11.2889 29.6949 9.77492C31.1413 8.68251 33.485 7.83725 33.485 10.5269C33.485 11.064 33.1789 15.0393 32.9993 15.6848C32.3752 17.9285 30.1009 18.5008 28.0778 18.1544C31.6141 18.7598 32.5136 20.7653 30.5709 22.7708C26.1996 27.2831 24.7425 20.3569 24.7425 20.3569C24.7425 20.3569 23.2854 27.2831 18.9142 22.7708C16.9714 20.7653 17.871 18.7598 21.4072 18.1544C19.3841 18.5008 17.1099 17.9285 16.4857 15.6848C16.3061 15.0393 16 11.064 16 10.5269C16 7.83725 18.3437 8.68251 19.7901 9.77492Z" fill="white"/>
<path d="M44.3863 16.3646C45.5901 16.7932 46.2292 17.7837 46.2292 18.8924C46.2292 20.7698 44.9659 21.908 42.5434 21.908H37.5942V11.3828H42.3799C44.6835 11.3828 45.7982 12.5506 45.7982 14.1028C45.7982 15.1376 45.3226 15.8915 44.3863 16.3646ZM42.2313 13.0237H39.6006V15.7732H42.2313C43.2568 15.7732 43.8067 15.2411 43.8067 14.3541C43.8067 13.5411 43.2419 13.0237 42.2313 13.0237ZM39.6006 20.2524H42.4393C43.5689 20.2524 44.1782 19.735 44.1782 18.8037C44.1782 17.828 43.5986 17.3402 42.4393 17.3402H39.6006V20.2524Z" fill="white"/>
<path d="M49.0111 21.908H47.1385V11.3828H49.0111V21.908Z" fill="white"/>
<path d="M55.2202 18.5524V14.2802H57.0929V21.908H55.2797V20.7993C54.7 21.6567 53.8975 22.0854 52.872 22.0854C51.252 22.0854 50.1968 21.1098 50.1968 19.3359V14.2802H52.0694V19.0254C52.0694 19.9863 52.545 20.4741 53.5111 20.4741C54.4177 20.4741 55.2202 19.8089 55.2202 18.5524Z" fill="white"/>
<path d="M65.6167 18.2272V18.6706H59.8799C60.0137 19.9863 60.7419 20.6367 61.8714 20.6367C62.7334 20.6367 63.3131 20.2672 63.6252 19.5428H65.4235C65.0222 21.095 63.6846 22.0854 61.8566 22.0854C60.7122 22.0854 59.7907 21.7159 59.0922 20.9915C58.3937 20.2672 58.037 19.3063 58.037 18.0941C58.037 16.8967 58.3788 15.9359 59.0773 15.1967C59.7759 14.4724 60.6825 14.1028 61.8269 14.1028C62.9861 14.1028 63.9076 14.4872 64.5912 15.2411C65.2749 15.995 65.6167 17.0002 65.6167 18.2272ZM61.812 15.5515C60.7865 15.5515 60.0731 16.1428 59.8948 17.3698H63.7441C63.5806 16.2611 62.8969 15.5515 61.812 15.5515Z" fill="white"/>
<path d="M69.7673 22.115C67.5379 22.115 66.3638 21.2428 66.2598 19.4837H68.0878C68.1918 20.4298 68.6674 20.7846 69.797 20.7846C70.8076 20.7846 71.3129 20.4741 71.3129 19.868C71.3129 19.3211 70.9562 19.055 69.8118 18.8628L68.935 18.715C67.2555 18.4341 66.4232 17.6654 66.4232 16.4089C66.4232 14.975 67.5676 14.1028 69.6038 14.1028C71.7885 14.1028 72.9181 14.9602 72.9924 16.6898H71.2238C71.1792 15.7585 70.6293 15.4332 69.6038 15.4332C68.712 15.4332 68.2662 15.7289 68.2662 16.3202C68.2662 16.8524 68.6526 17.0889 69.5443 17.2515L70.5104 17.3993C72.3681 17.7393 73.1707 18.4193 73.1707 19.7202C73.1707 21.2576 71.9223 22.115 69.7673 22.115Z" fill="white"/>
<path d="M81.3899 21.908H79.2497L77.0204 18.3602L75.8611 19.5132V21.908H74.0182V11.3828H75.8611V17.4437L78.9822 14.2802H81.2116L78.3134 17.1628L81.3899 21.908Z" fill="white"/>
<path d="M86.2805 16.2019L86.9047 14.2802H88.8665L85.909 22.5289C85.5968 23.3715 85.2104 23.9776 84.72 24.3176C84.2295 24.6576 83.531 24.8202 82.6095 24.8202C82.2974 24.8202 82.0299 24.8054 81.7921 24.7759V23.3124H82.5055C83.3526 23.3124 83.7688 22.795 83.7688 22.0854C83.7688 21.7306 83.6499 21.2132 83.4121 20.548L81.1827 14.2802H83.204L83.8282 16.1872C84.289 17.6211 84.6902 19.0402 85.0469 20.4446C85.3739 19.2324 85.7901 17.8132 86.2805 16.2019Z" fill="white"/>
</svg>
