<svg xmlns="http://www.w3.org/2000/svg" fill="none" viewBox="0 0 24 24"><path fill="#20bc07" d="M15.7929 1.79289C16.1834 1.40237 16.8166 1.40237 17.2071 1.79289L20.7071 5.29289C21.0976 5.68342 21.0976 6.31658 20.7071 6.70711L17.2071 10.2071C16.8166 10.5976 16.1834 10.5976 15.7929 10.2071C15.4024 9.81658 15.4024 9.18342 15.7929 8.79289L17.5858 7H7.5C6.39543 7 5.5 7.89543 5.5 9V11C5.5 11.5523 5.05228 12 4.5 12C3.94772 12 3.5 11.5523 3.5 11V9C3.5 6.79086 5.29086 5 7.5 5H17.5858L15.7929 3.20711C15.4024 2.81658 15.4024 2.18342 15.7929 1.79289ZM19.5 12C20.0523 12 20.5 12.4477 20.5 13V15C20.5 17.2091 18.7091 19 16.5 19H6.41421L8.20711 20.7929C8.59763 21.1834 8.59763 21.8166 8.20711 22.2071C7.81658 22.5976 7.18342 22.5976 6.79289 22.2071L3.29289 18.7071C2.90237 18.3166 2.90237 17.6834 3.29289 17.2929L6.79289 13.7929C7.18342 13.4024 7.81658 13.4024 8.20711 13.7929C8.59763 14.1834 8.59763 14.8166 8.20711 15.2071L6.41421 17H16.5C17.6046 17 18.5 16.1046 18.5 15V13C18.5 12.4477 18.9477 12 19.5 12Z"/></svg>
