<svg width="569" height="157" viewBox="0 0 569 157" fill="none" xmlns="http://www.w3.org/2000/svg">
<path d="M148.421 35V0.0909081H160.864C163.569 0.0909081 165.813 0.556817 167.597 1.48864C169.393 2.42045 170.734 3.71023 171.62 5.35795C172.506 6.99432 172.95 8.88636 172.95 11.0341C172.95 13.1705 172.501 15.0511 171.603 16.6761C170.717 18.2898 169.376 19.5455 167.58 20.4432C165.796 21.3409 163.552 21.7898 160.847 21.7898H151.421V17.2557H160.37C162.075 17.2557 163.461 17.0114 164.529 16.5227C165.609 16.0341 166.398 15.3239 166.898 14.392C167.398 13.4602 167.648 12.3409 167.648 11.0341C167.648 9.71591 167.393 8.57386 166.881 7.60795C166.381 6.64204 165.592 5.90341 164.512 5.39205C163.444 4.86932 162.04 4.60795 160.302 4.60795H153.688V35H148.421ZM165.654 19.25L174.279 35H168.279L159.825 19.25H165.654ZM189.906 35.5284C187.326 35.5284 185.104 34.9773 183.241 33.875C181.388 32.7614 179.957 31.1989 178.945 29.1875C177.945 27.1648 177.445 24.7955 177.445 22.0795C177.445 19.3977 177.945 17.0341 178.945 14.9886C179.957 12.9432 181.366 11.3466 183.173 10.1989C184.991 9.05114 187.116 8.47727 189.548 8.47727C191.025 8.47727 192.457 8.72159 193.843 9.21023C195.229 9.69886 196.474 10.4659 197.576 11.5114C198.678 12.5568 199.548 13.9148 200.184 15.5852C200.82 17.2443 201.138 19.2614 201.138 21.6364V23.4432H180.326V19.625H196.144C196.144 18.2841 195.871 17.0966 195.326 16.0625C194.781 15.017 194.013 14.1932 193.025 13.5909C192.048 12.9886 190.9 12.6875 189.582 12.6875C188.15 12.6875 186.9 13.0398 185.832 13.7443C184.775 14.4375 183.957 15.3466 183.377 16.4716C182.809 17.5852 182.525 18.7955 182.525 20.1023V23.0852C182.525 24.8352 182.832 26.3239 183.445 27.5511C184.07 28.7784 184.94 29.7159 186.053 30.3636C187.167 31 188.468 31.3182 189.957 31.3182C190.923 31.3182 191.803 31.1818 192.599 30.9091C193.394 30.625 194.082 30.2045 194.661 29.6477C195.241 29.0909 195.684 28.4034 195.991 27.5852L200.815 28.4545C200.428 29.875 199.735 31.1193 198.735 32.1875C197.746 33.2443 196.502 34.0682 195.002 34.6591C193.513 35.2386 191.815 35.5284 189.906 35.5284ZM214.413 35.5795C212.754 35.5795 211.254 35.2727 209.913 34.6591C208.572 34.0341 207.509 33.1307 206.725 31.9489C205.952 30.767 205.566 29.3182 205.566 27.6023C205.566 26.125 205.85 24.9091 206.418 23.9545C206.987 23 207.754 22.2443 208.719 21.6875C209.685 21.1307 210.765 20.7102 211.958 20.4261C213.151 20.142 214.367 19.9261 215.606 19.7784C217.174 19.5966 218.447 19.4489 219.424 19.3352C220.401 19.2102 221.112 19.0114 221.555 18.7386C221.998 18.4659 222.219 18.0227 222.219 17.4091V17.2898C222.219 15.8011 221.799 14.6477 220.958 13.8295C220.129 13.0114 218.89 12.6023 217.242 12.6023C215.526 12.6023 214.174 12.983 213.185 13.7443C212.208 14.4943 211.532 15.3295 211.157 16.25L206.367 15.1591C206.935 13.5682 207.765 12.2841 208.856 11.3068C209.958 10.3182 211.225 9.60227 212.657 9.15909C214.089 8.70455 215.594 8.47727 217.174 8.47727C218.219 8.47727 219.327 8.60227 220.498 8.85227C221.68 9.09091 222.782 9.53409 223.805 10.1818C224.839 10.8295 225.685 11.7557 226.344 12.9602C227.004 14.1534 227.333 15.7045 227.333 17.6136V35H222.356V31.4205H222.151C221.822 32.0795 221.327 32.7273 220.668 33.3636C220.009 34 219.163 34.5284 218.129 34.9489C217.094 35.3693 215.856 35.5795 214.413 35.5795ZM215.521 31.4886C216.93 31.4886 218.134 31.2102 219.134 30.6534C220.146 30.0966 220.913 29.3693 221.435 28.4716C221.969 27.5625 222.237 26.5909 222.237 25.5568V22.1818C222.055 22.3636 221.702 22.5341 221.18 22.6932C220.668 22.8409 220.083 22.9716 219.424 23.0852C218.765 23.1875 218.123 23.2841 217.498 23.375C216.873 23.4545 216.35 23.5227 215.93 23.5795C214.941 23.7045 214.038 23.9148 213.219 24.2102C212.413 24.5057 211.765 24.9318 211.276 25.4886C210.799 26.0341 210.56 26.7614 210.56 27.6705C210.56 28.9318 211.026 29.8864 211.958 30.5341C212.89 31.1705 214.077 31.4886 215.521 31.4886ZM239.218 0.0909081V35H234.121V0.0909081H239.218ZM258.778 44.8182V8.81818H263.755V13.0625H264.181C264.477 12.517 264.903 11.8864 265.46 11.1705C266.016 10.4545 266.789 9.82954 267.778 9.29545C268.766 8.75 270.073 8.47727 271.698 8.47727C273.812 8.47727 275.698 9.01136 277.357 10.0795C279.016 11.1477 280.317 12.6875 281.261 14.6989C282.215 16.7102 282.692 19.1307 282.692 21.9602C282.692 24.7898 282.221 27.2159 281.278 29.2386C280.335 31.25 279.039 32.8011 277.391 33.892C275.744 34.9716 273.863 35.5114 271.749 35.5114C270.158 35.5114 268.857 35.2443 267.846 34.7102C266.846 34.1761 266.062 33.5511 265.494 32.8352C264.925 32.1193 264.488 31.483 264.181 30.9261H263.874V44.8182H258.778ZM263.772 21.9091C263.772 23.75 264.039 25.3636 264.573 26.75C265.107 28.1364 265.88 29.2216 266.891 30.0057C267.903 30.7784 269.141 31.1648 270.607 31.1648C272.13 31.1648 273.403 30.7614 274.425 29.9545C275.448 29.1364 276.221 28.0284 276.744 26.6307C277.278 25.233 277.545 23.6591 277.545 21.9091C277.545 20.1818 277.283 18.6307 276.761 17.2557C276.249 15.8807 275.477 14.7955 274.442 14C273.42 13.2045 272.141 12.8068 270.607 12.8068C269.13 12.8068 267.88 13.1875 266.857 13.9489C265.846 14.7102 265.079 15.7727 264.556 17.1364C264.033 18.5 263.772 20.0909 263.772 21.9091ZM299.687 35.5284C297.107 35.5284 294.886 34.9773 293.022 33.875C291.17 32.7614 289.738 31.1989 288.727 29.1875C287.727 27.1648 287.227 24.7955 287.227 22.0795C287.227 19.3977 287.727 17.0341 288.727 14.9886C289.738 12.9432 291.147 11.3466 292.954 10.1989C294.772 9.05114 296.897 8.47727 299.329 8.47727C300.806 8.47727 302.238 8.72159 303.624 9.21023C305.011 9.69886 306.255 10.4659 307.357 11.5114C308.46 12.5568 309.329 13.9148 309.965 15.5852C310.602 17.2443 310.92 19.2614 310.92 21.6364V23.4432H290.107V19.625H305.925C305.925 18.2841 305.653 17.0966 305.107 16.0625C304.562 15.017 303.795 14.1932 302.806 13.5909C301.829 12.9886 300.681 12.6875 299.363 12.6875C297.931 12.6875 296.681 13.0398 295.613 13.7443C294.556 14.4375 293.738 15.3466 293.158 16.4716C292.59 17.5852 292.306 18.7955 292.306 20.1023V23.0852C292.306 24.8352 292.613 26.3239 293.227 27.5511C293.852 28.7784 294.721 29.7159 295.835 30.3636C296.948 31 298.249 31.3182 299.738 31.3182C300.704 31.3182 301.585 31.1818 302.38 30.9091C303.175 30.625 303.863 30.2045 304.442 29.6477C305.022 29.0909 305.465 28.4034 305.772 27.5852L310.596 28.4545C310.21 29.875 309.516 31.1193 308.516 32.1875C307.528 33.2443 306.283 34.0682 304.783 34.6591C303.295 35.2386 301.596 35.5284 299.687 35.5284ZM327.603 35.5284C325.148 35.5284 323.006 34.9659 321.177 33.8409C319.347 32.7159 317.927 31.142 316.915 29.1193C315.904 27.0966 315.398 24.733 315.398 22.0284C315.398 19.3125 315.904 16.9375 316.915 14.9034C317.927 12.8693 319.347 11.2898 321.177 10.1648C323.006 9.03977 325.148 8.47727 327.603 8.47727C330.058 8.47727 332.2 9.03977 334.029 10.1648C335.859 11.2898 337.279 12.8693 338.29 14.9034C339.302 16.9375 339.808 19.3125 339.808 22.0284C339.808 24.733 339.302 27.0966 338.29 29.1193C337.279 31.142 335.859 32.7159 334.029 33.8409C332.2 34.9659 330.058 35.5284 327.603 35.5284ZM327.62 31.25C329.211 31.25 330.529 30.8295 331.575 29.9886C332.62 29.1477 333.393 28.0284 333.893 26.6307C334.404 25.233 334.66 23.6932 334.66 22.0114C334.66 20.3409 334.404 18.8068 333.893 17.4091C333.393 16 332.62 14.8693 331.575 14.017C330.529 13.1648 329.211 12.7386 327.62 12.7386C326.018 12.7386 324.688 13.1648 323.631 14.017C322.586 14.8693 321.808 16 321.296 17.4091C320.796 18.8068 320.546 20.3409 320.546 22.0114C320.546 23.6932 320.796 25.233 321.296 26.6307C321.808 28.0284 322.586 29.1477 323.631 29.9886C324.688 30.8295 326.018 31.25 327.62 31.25ZM345.496 44.8182V8.81818H350.474V13.0625H350.9C351.195 12.517 351.621 11.8864 352.178 11.1705C352.735 10.4545 353.508 9.82954 354.496 9.29545C355.485 8.75 356.792 8.47727 358.417 8.47727C360.531 8.47727 362.417 9.01136 364.076 10.0795C365.735 11.1477 367.036 12.6875 367.979 14.6989C368.934 16.7102 369.411 19.1307 369.411 21.9602C369.411 24.7898 368.94 27.2159 367.996 29.2386C367.053 31.25 365.758 32.8011 364.11 33.892C362.462 34.9716 360.582 35.5114 358.468 35.5114C356.877 35.5114 355.576 35.2443 354.565 34.7102C353.565 34.1761 352.781 33.5511 352.212 32.8352C351.644 32.1193 351.207 31.483 350.9 30.9261H350.593V44.8182H345.496ZM350.491 21.9091C350.491 23.75 350.758 25.3636 351.292 26.75C351.826 28.1364 352.599 29.2216 353.61 30.0057C354.621 30.7784 355.86 31.1648 357.326 31.1648C358.849 31.1648 360.121 30.7614 361.144 29.9545C362.167 29.1364 362.94 28.0284 363.462 26.6307C363.996 25.233 364.263 23.6591 364.263 21.9091C364.263 20.1818 364.002 18.6307 363.479 17.2557C362.968 15.8807 362.195 14.7955 361.161 14C360.138 13.2045 358.86 12.8068 357.326 12.8068C355.849 12.8068 354.599 13.1875 353.576 13.9489C352.565 14.7102 351.798 15.7727 351.275 17.1364C350.752 18.5 350.491 20.0909 350.491 21.9091ZM380.218 0.0909081V35H375.121V0.0909081H380.218ZM398.359 35.5284C395.779 35.5284 393.558 34.9773 391.694 33.875C389.842 32.7614 388.41 31.1989 387.398 29.1875C386.398 27.1648 385.898 24.7955 385.898 22.0795C385.898 19.3977 386.398 17.0341 387.398 14.9886C388.41 12.9432 389.819 11.3466 391.626 10.1989C393.444 9.05114 395.569 8.47727 398.001 8.47727C399.478 8.47727 400.91 8.72159 402.296 9.21023C403.683 9.69886 404.927 10.4659 406.029 11.5114C407.131 12.5568 408.001 13.9148 408.637 15.5852C409.273 17.2443 409.592 19.2614 409.592 21.6364V23.4432H388.779V19.625H404.597C404.597 18.2841 404.325 17.0966 403.779 16.0625C403.234 15.017 402.467 14.1932 401.478 13.5909C400.501 12.9886 399.353 12.6875 398.035 12.6875C396.603 12.6875 395.353 13.0398 394.285 13.7443C393.228 14.4375 392.41 15.3466 391.83 16.4716C391.262 17.5852 390.978 18.7955 390.978 20.1023V23.0852C390.978 24.8352 391.285 26.3239 391.898 27.5511C392.523 28.7784 393.393 29.7159 394.506 30.3636C395.62 31 396.921 31.3182 398.41 31.3182C399.376 31.3182 400.256 31.1818 401.052 30.9091C401.847 30.625 402.535 30.2045 403.114 29.6477C403.694 29.0909 404.137 28.4034 404.444 27.5852L409.268 28.4545C408.881 29.875 408.188 31.1193 407.188 32.1875C406.2 33.2443 404.955 34.0682 403.455 34.6591C401.967 35.2386 400.268 35.5284 398.359 35.5284ZM418.604 35.3239C417.673 35.3239 416.871 34.9943 416.201 34.3352C415.531 33.6648 415.195 32.858 415.195 31.9148C415.195 30.983 415.531 30.1875 416.201 29.5284C416.871 28.858 417.673 28.5227 418.604 28.5227C419.536 28.5227 420.337 28.858 421.008 29.5284C421.678 30.1875 422.013 30.983 422.013 31.9148C422.013 32.5398 421.854 33.1136 421.536 33.6364C421.229 34.1477 420.82 34.5568 420.309 34.8636C419.798 35.1705 419.229 35.3239 418.604 35.3239ZM65.1477 91V56.0909H77.5909C80.2955 56.0909 82.5398 56.5568 84.3239 57.4886C86.1193 58.4205 87.4602 59.7102 88.3466 61.358C89.233 62.9943 89.6761 64.8864 89.6761 67.0341C89.6761 69.1705 89.2273 71.0511 88.3295 72.6761C87.4432 74.2898 86.1023 75.5455 84.3068 76.4432C82.5227 77.3409 80.2784 77.7898 77.5739 77.7898H68.1477V73.2557H77.0966C78.8011 73.2557 80.1875 73.0114 81.2557 72.5227C82.3352 72.0341 83.125 71.3239 83.625 70.392C84.125 69.4602 84.375 68.3409 84.375 67.0341C84.375 65.7159 84.1193 64.5739 83.608 63.608C83.108 62.642 82.3182 61.9034 81.2386 61.392C80.1705 60.8693 78.767 60.608 77.0284 60.608H70.4148V91H65.1477ZM82.3807 75.25L91.0057 91H85.0057L76.5511 75.25H82.3807ZM106.632 91.5284C104.053 91.5284 101.831 90.9773 99.9673 89.875C98.1151 88.7614 96.6832 87.1989 95.6719 85.1875C94.6719 83.1648 94.1719 80.7955 94.1719 78.0795C94.1719 75.3977 94.6719 73.0341 95.6719 70.9886C96.6832 68.9432 98.0923 67.3466 99.8991 66.1989C101.717 65.0511 103.842 64.4773 106.274 64.4773C107.751 64.4773 109.183 64.7216 110.57 65.2102C111.956 65.6989 113.2 66.4659 114.303 67.5114C115.405 68.5568 116.274 69.9148 116.911 71.5852C117.547 73.2443 117.865 75.2614 117.865 77.6364V79.4432H97.0526V75.625H112.871C112.871 74.2841 112.598 73.0966 112.053 72.0625C111.507 71.017 110.74 70.1932 109.751 69.5909C108.774 68.9886 107.626 68.6875 106.308 68.6875C104.876 68.6875 103.626 69.0398 102.558 69.7443C101.501 70.4375 100.683 71.3466 100.104 72.4716C99.5355 73.5852 99.2514 74.7955 99.2514 76.1023V79.0852C99.2514 80.8352 99.5582 82.3239 100.172 83.5511C100.797 84.7784 101.666 85.7159 102.78 86.3636C103.893 87 105.195 87.3182 106.683 87.3182C107.649 87.3182 108.53 87.1818 109.325 86.9091C110.121 86.625 110.808 86.2045 111.388 85.6477C111.967 85.0909 112.411 84.4034 112.717 83.5852L117.541 84.4545C117.155 85.875 116.462 87.1193 115.462 88.1875C114.473 89.2443 113.229 90.0682 111.729 90.6591C110.24 91.2386 108.541 91.5284 106.632 91.5284ZM131.139 91.5795C129.48 91.5795 127.98 91.2727 126.639 90.6591C125.298 90.0341 124.236 89.1307 123.452 87.9489C122.679 86.767 122.293 85.3182 122.293 83.6023C122.293 82.125 122.577 80.9091 123.145 79.9545C123.713 79 124.48 78.2443 125.446 77.6875C126.412 77.1307 127.491 76.7102 128.685 76.4261C129.878 76.142 131.094 75.9261 132.332 75.7784C133.901 75.5966 135.173 75.4489 136.151 75.3352C137.128 75.2102 137.838 75.0114 138.281 74.7386C138.724 74.4659 138.946 74.0227 138.946 73.4091V73.2898C138.946 71.8011 138.526 70.6477 137.685 69.8295C136.855 69.0114 135.616 68.6023 133.969 68.6023C132.253 68.6023 130.901 68.983 129.912 69.7443C128.935 70.4943 128.259 71.3295 127.884 72.25L123.094 71.1591C123.662 69.5682 124.491 68.2841 125.582 67.3068C126.685 66.3182 127.952 65.6023 129.384 65.1591C130.815 64.7045 132.321 64.4773 133.901 64.4773C134.946 64.4773 136.054 64.6023 137.224 64.8523C138.406 65.0909 139.509 65.5341 140.531 66.1818C141.565 66.8295 142.412 67.7557 143.071 68.9602C143.73 70.1534 144.06 71.7045 144.06 73.6136V91H139.082V87.4205H138.878C138.548 88.0795 138.054 88.7273 137.395 89.3636C136.736 90 135.889 90.5284 134.855 90.9489C133.821 91.3693 132.582 91.5795 131.139 91.5795ZM132.247 87.4886C133.656 87.4886 134.861 87.2102 135.861 86.6534C136.872 86.0966 137.639 85.3693 138.162 84.4716C138.696 83.5625 138.963 82.5909 138.963 81.5568V78.1818C138.781 78.3636 138.429 78.5341 137.906 78.6932C137.395 78.8409 136.81 78.9716 136.151 79.0852C135.491 79.1875 134.849 79.2841 134.224 79.375C133.599 79.4545 133.077 79.5227 132.656 79.5795C131.668 79.7045 130.764 79.9148 129.946 80.2102C129.139 80.5057 128.491 80.9318 128.003 81.4886C127.526 82.0341 127.287 82.7614 127.287 83.6705C127.287 84.9318 127.753 85.8864 128.685 86.5341C129.616 87.1705 130.804 87.4886 132.247 87.4886ZM155.945 56.0909V91H150.848V56.0909H155.945ZM186.533 91.5284C183.999 91.5284 181.817 90.9545 179.987 89.8068C178.169 88.6477 176.771 87.0511 175.794 85.017C174.817 82.983 174.328 80.6534 174.328 78.0284C174.328 75.3693 174.828 73.0227 175.828 70.9886C176.828 68.9432 178.237 67.3466 180.055 66.1989C181.874 65.0511 184.016 64.4773 186.482 64.4773C188.47 64.4773 190.243 64.8466 191.8 65.5852C193.357 66.3125 194.612 67.3352 195.567 68.6534C196.533 69.9716 197.107 71.5114 197.288 73.2727H192.328C192.055 72.0455 191.43 70.9886 190.453 70.1023C189.487 69.2159 188.192 68.7727 186.567 68.7727C185.146 68.7727 183.902 69.1477 182.834 69.8977C181.777 70.6364 180.953 71.6932 180.362 73.0682C179.771 74.4318 179.476 76.0455 179.476 77.9091C179.476 79.8182 179.766 81.4659 180.345 82.8523C180.925 84.2386 181.743 85.3125 182.8 86.0739C183.868 86.8352 185.124 87.2159 186.567 87.2159C187.533 87.2159 188.408 87.0398 189.192 86.6875C189.987 86.3239 190.652 85.8068 191.186 85.1364C191.732 84.4659 192.112 83.6591 192.328 82.7159H197.288C197.107 84.4091 196.555 85.9205 195.635 87.25C194.714 88.5795 193.482 89.625 191.936 90.3864C190.402 91.1477 188.601 91.5284 186.533 91.5284ZM213.767 91.5284C211.313 91.5284 209.17 90.9659 207.341 89.8409C205.511 88.7159 204.091 87.142 203.08 85.1193C202.068 83.0966 201.562 80.733 201.562 78.0284C201.562 75.3125 202.068 72.9375 203.08 70.9034C204.091 68.8693 205.511 67.2898 207.341 66.1648C209.17 65.0398 211.313 64.4773 213.767 64.4773C216.222 64.4773 218.364 65.0398 220.193 66.1648C222.023 67.2898 223.443 68.8693 224.455 70.9034C225.466 72.9375 225.972 75.3125 225.972 78.0284C225.972 80.733 225.466 83.0966 224.455 85.1193C223.443 87.142 222.023 88.7159 220.193 89.8409C218.364 90.9659 216.222 91.5284 213.767 91.5284ZM213.784 87.25C215.375 87.25 216.693 86.8295 217.739 85.9886C218.784 85.1477 219.557 84.0284 220.057 82.6307C220.568 81.233 220.824 79.6932 220.824 78.0114C220.824 76.3409 220.568 74.8068 220.057 73.4091C219.557 72 218.784 70.8693 217.739 70.017C216.693 69.1648 215.375 68.7386 213.784 68.7386C212.182 68.7386 210.852 69.1648 209.795 70.017C208.75 70.8693 207.972 72 207.46 73.4091C206.96 74.8068 206.71 76.3409 206.71 78.0114C206.71 79.6932 206.96 81.233 207.46 82.6307C207.972 84.0284 208.75 85.1477 209.795 85.9886C210.852 86.8295 212.182 87.25 213.784 87.25ZM236.757 75.4545V91H231.661V64.8182H236.553V69.0795H236.876C237.479 67.6932 238.422 66.5795 239.706 65.7386C241.001 64.8977 242.632 64.4773 244.598 64.4773C246.382 64.4773 247.945 64.8523 249.286 65.6023C250.626 66.3409 251.666 67.4432 252.405 68.9091C253.143 70.375 253.513 72.1875 253.513 74.3466V91H248.416V74.9602C248.416 73.0625 247.922 71.5795 246.933 70.5114C245.945 69.4318 244.587 68.892 242.859 68.892C241.678 68.892 240.626 69.1477 239.706 69.6591C238.797 70.1705 238.075 70.9205 237.541 71.9091C237.018 72.8864 236.757 74.0682 236.757 75.4545ZM281.808 64.8182L272.314 91H266.859L257.348 64.8182H262.82L269.45 84.9659H269.723L276.337 64.8182H281.808ZM296.991 91.5284C294.412 91.5284 292.19 90.9773 290.327 89.875C288.474 88.7614 287.043 87.1989 286.031 85.1875C285.031 83.1648 284.531 80.7955 284.531 78.0795C284.531 75.3977 285.031 73.0341 286.031 70.9886C287.043 68.9432 288.452 67.3466 290.259 66.1989C292.077 65.0511 294.202 64.4773 296.634 64.4773C298.111 64.4773 299.543 64.7216 300.929 65.2102C302.315 65.6989 303.56 66.4659 304.662 67.5114C305.764 68.5568 306.634 69.9148 307.27 71.5852C307.906 73.2443 308.224 75.2614 308.224 77.6364V79.4432H287.412V75.625H303.23C303.23 74.2841 302.957 73.0966 302.412 72.0625C301.866 71.017 301.099 70.1932 300.111 69.5909C299.134 68.9886 297.986 68.6875 296.668 68.6875C295.236 68.6875 293.986 69.0398 292.918 69.7443C291.861 70.4375 291.043 71.3466 290.463 72.4716C289.895 73.5852 289.611 74.7955 289.611 76.1023V79.0852C289.611 80.8352 289.918 82.3239 290.531 83.5511C291.156 84.7784 292.026 85.7159 293.139 86.3636C294.253 87 295.554 87.3182 297.043 87.3182C298.009 87.3182 298.889 87.1818 299.685 86.9091C300.48 86.625 301.168 86.2045 301.747 85.6477C302.327 85.0909 302.77 84.4034 303.077 83.5852L307.901 84.4545C307.514 85.875 306.821 87.1193 305.821 88.1875C304.832 89.2443 303.588 90.0682 302.088 90.6591C300.599 91.2386 298.901 91.5284 296.991 91.5284ZM313.879 91V64.8182H318.805V68.9773H319.078C319.555 67.5682 320.396 66.4602 321.601 65.6534C322.817 64.8352 324.192 64.4261 325.726 64.4261C326.044 64.4261 326.419 64.4375 326.851 64.4602C327.294 64.483 327.641 64.5114 327.891 64.5455V69.4205C327.686 69.3636 327.322 69.3011 326.8 69.233C326.277 69.1534 325.754 69.1136 325.232 69.1136C324.027 69.1136 322.953 69.3693 322.01 69.8807C321.078 70.3807 320.339 71.0795 319.794 71.9773C319.249 72.8636 318.976 73.875 318.976 75.0114V91H313.879ZM351.92 71.2102L347.301 72.0284C347.108 71.4375 346.801 70.875 346.381 70.3409C345.972 69.8068 345.415 69.3693 344.71 69.0284C344.006 68.6875 343.125 68.517 342.068 68.517C340.625 68.517 339.42 68.8409 338.455 69.4886C337.489 70.125 337.006 70.9489 337.006 71.9602C337.006 72.8352 337.33 73.5398 337.977 74.0739C338.625 74.608 339.67 75.0455 341.114 75.3864L345.273 76.3409C347.682 76.8977 349.477 77.7557 350.659 78.9148C351.841 80.0739 352.432 81.5795 352.432 83.4318C352.432 85 351.977 86.3977 351.068 87.625C350.17 88.8409 348.915 89.7955 347.301 90.4886C345.699 91.1818 343.841 91.5284 341.727 91.5284C338.795 91.5284 336.403 90.9034 334.551 89.6534C332.699 88.392 331.563 86.6023 331.142 84.2841L336.068 83.5341C336.375 84.8182 337.006 85.7898 337.96 86.4489C338.915 87.0966 340.159 87.4205 341.693 87.4205C343.364 87.4205 344.699 87.0739 345.699 86.3807C346.699 85.6761 347.199 84.8182 347.199 83.8068C347.199 82.9886 346.892 82.3011 346.278 81.7443C345.676 81.1875 344.75 80.767 343.5 80.483L339.068 79.5114C336.625 78.9545 334.818 78.0682 333.648 76.8523C332.489 75.6364 331.909 74.0966 331.909 72.233C331.909 70.6875 332.341 69.3352 333.205 68.1761C334.068 67.017 335.261 66.1136 336.784 65.4659C338.307 64.8068 340.051 64.4773 342.017 64.4773C344.847 64.4773 347.074 65.0909 348.699 66.3182C350.324 67.5341 351.398 69.1648 351.92 71.2102ZM365.655 91.5795C363.996 91.5795 362.496 91.2727 361.155 90.6591C359.814 90.0341 358.751 89.1307 357.967 87.9489C357.195 86.767 356.808 85.3182 356.808 83.6023C356.808 82.125 357.092 80.9091 357.661 79.9545C358.229 79 358.996 78.2443 359.962 77.6875C360.928 77.1307 362.007 76.7102 363.2 76.4261C364.393 76.142 365.609 75.9261 366.848 75.7784C368.416 75.5966 369.689 75.4489 370.666 75.3352C371.643 75.2102 372.354 75.0114 372.797 74.7386C373.24 74.4659 373.462 74.0227 373.462 73.4091V73.2898C373.462 71.8011 373.041 70.6477 372.2 69.8295C371.371 69.0114 370.132 68.6023 368.484 68.6023C366.768 68.6023 365.416 68.983 364.428 69.7443C363.45 70.4943 362.774 71.3295 362.399 72.25L357.609 71.1591C358.178 69.5682 359.007 68.2841 360.098 67.3068C361.2 66.3182 362.467 65.6023 363.899 65.1591C365.331 64.7045 366.837 64.4773 368.416 64.4773C369.462 64.4773 370.57 64.6023 371.74 64.8523C372.922 65.0909 374.024 65.5341 375.047 66.1818C376.081 66.8295 376.928 67.7557 377.587 68.9602C378.246 70.1534 378.575 71.7045 378.575 73.6136V91H373.598V87.4205H373.393C373.064 88.0795 372.57 88.7273 371.911 89.3636C371.251 90 370.405 90.5284 369.371 90.9489C368.337 91.3693 367.098 91.5795 365.655 91.5795ZM366.763 87.4886C368.172 87.4886 369.376 87.2102 370.376 86.6534C371.388 86.0966 372.155 85.3693 372.678 84.4716C373.212 83.5625 373.479 82.5909 373.479 81.5568V78.1818C373.297 78.3636 372.945 78.5341 372.422 78.6932C371.911 78.8409 371.325 78.9716 370.666 79.0852C370.007 79.1875 369.365 79.2841 368.74 79.375C368.115 79.4545 367.592 79.5227 367.172 79.5795C366.183 79.7045 365.28 79.9148 364.462 80.2102C363.655 80.5057 363.007 80.9318 362.518 81.4886C362.041 82.0341 361.803 82.7614 361.803 83.6705C361.803 84.9318 362.268 85.8864 363.2 86.5341C364.132 87.1705 365.32 87.4886 366.763 87.4886ZM397.585 64.8182V68.9091H383.284V64.8182H397.585ZM387.119 58.5455H392.216V83.3125C392.216 84.3011 392.364 85.0455 392.659 85.5455C392.955 86.0341 393.335 86.3693 393.801 86.5511C394.278 86.7216 394.795 86.8068 395.352 86.8068C395.761 86.8068 396.119 86.7784 396.426 86.7216C396.733 86.6648 396.972 86.6193 397.142 86.5852L398.062 90.7955C397.767 90.9091 397.347 91.0227 396.801 91.1364C396.256 91.2614 395.574 91.3295 394.756 91.3409C393.415 91.3636 392.165 91.125 391.006 90.625C389.847 90.125 388.909 89.3523 388.193 88.3068C387.477 87.2614 387.119 85.9489 387.119 84.3693V58.5455ZM403.223 91V64.8182H408.32V91H403.223ZM405.797 60.7784C404.911 60.7784 404.149 60.483 403.513 59.892C402.888 59.2898 402.575 58.5739 402.575 57.7443C402.575 56.9034 402.888 56.1875 403.513 55.5966C404.149 54.9943 404.911 54.6932 405.797 54.6932C406.683 54.6932 407.439 54.9943 408.064 55.5966C408.7 56.1875 409.018 56.9034 409.018 57.7443C409.018 58.5739 408.7 59.2898 408.064 59.892C407.439 60.483 406.683 60.7784 405.797 60.7784ZM426.205 91.5284C423.75 91.5284 421.608 90.9659 419.778 89.8409C417.949 88.7159 416.528 87.142 415.517 85.1193C414.506 83.0966 414 80.733 414 78.0284C414 75.3125 414.506 72.9375 415.517 70.9034C416.528 68.8693 417.949 67.2898 419.778 66.1648C421.608 65.0398 423.75 64.4773 426.205 64.4773C428.659 64.4773 430.801 65.0398 432.631 66.1648C434.46 67.2898 435.881 68.8693 436.892 70.9034C437.903 72.9375 438.409 75.3125 438.409 78.0284C438.409 80.733 437.903 83.0966 436.892 85.1193C435.881 87.142 434.46 88.7159 432.631 89.8409C430.801 90.9659 428.659 91.5284 426.205 91.5284ZM426.222 87.25C427.813 87.25 429.131 86.8295 430.176 85.9886C431.222 85.1477 431.994 84.0284 432.494 82.6307C433.006 81.233 433.261 79.6932 433.261 78.0114C433.261 76.3409 433.006 74.8068 432.494 73.4091C431.994 72 431.222 70.8693 430.176 70.017C429.131 69.1648 427.813 68.7386 426.222 68.7386C424.619 68.7386 423.29 69.1648 422.233 70.017C421.188 70.8693 420.409 72 419.898 73.4091C419.398 74.8068 419.148 76.3409 419.148 78.0114C419.148 79.6932 419.398 81.233 419.898 82.6307C420.409 84.0284 421.188 85.1477 422.233 85.9886C423.29 86.8295 424.619 87.25 426.222 87.25ZM449.195 75.4545V91H444.098V64.8182H448.99V69.0795H449.314C449.916 67.6932 450.859 66.5795 452.143 65.7386C453.439 64.8977 455.07 64.4773 457.036 64.4773C458.82 64.4773 460.382 64.8523 461.723 65.6023C463.064 66.3409 464.104 67.4432 464.842 68.9091C465.581 70.375 465.95 72.1875 465.95 74.3466V91H460.854V74.9602C460.854 73.0625 460.359 71.5795 459.371 70.5114C458.382 69.4318 457.024 68.892 455.297 68.892C454.115 68.892 453.064 69.1477 452.143 69.6591C451.234 70.1705 450.513 70.9205 449.979 71.9091C449.456 72.8864 449.195 74.0682 449.195 75.4545ZM492.405 71.2102L487.786 72.0284C487.592 71.4375 487.286 70.875 486.865 70.3409C486.456 69.8068 485.899 69.3693 485.195 69.0284C484.49 68.6875 483.609 68.517 482.553 68.517C481.109 68.517 479.905 68.8409 478.939 69.4886C477.973 70.125 477.49 70.9489 477.49 71.9602C477.49 72.8352 477.814 73.5398 478.462 74.0739C479.109 74.608 480.155 75.0455 481.598 75.3864L485.757 76.3409C488.166 76.8977 489.962 77.7557 491.143 78.9148C492.325 80.0739 492.916 81.5795 492.916 83.4318C492.916 85 492.462 86.3977 491.553 87.625C490.655 88.8409 489.399 89.7955 487.786 90.4886C486.183 91.1818 484.325 91.5284 482.212 91.5284C479.28 91.5284 476.888 90.9034 475.036 89.6534C473.183 88.392 472.047 86.6023 471.626 84.2841L476.553 83.5341C476.859 84.8182 477.49 85.7898 478.445 86.4489C479.399 87.0966 480.643 87.4205 482.178 87.4205C483.848 87.4205 485.183 87.0739 486.183 86.3807C487.183 85.6761 487.683 84.8182 487.683 83.8068C487.683 82.9886 487.376 82.3011 486.763 81.7443C486.161 81.1875 485.234 80.767 483.984 80.483L479.553 79.5114C477.109 78.9545 475.303 78.0682 474.132 76.8523C472.973 75.6364 472.393 74.0966 472.393 72.233C472.393 70.6875 472.825 69.3352 473.689 68.1761C474.553 67.017 475.746 66.1136 477.268 65.4659C478.791 64.8068 480.536 64.4773 482.501 64.4773C485.331 64.4773 487.558 65.0909 489.183 66.3182C490.808 67.5341 491.882 69.1648 492.405 71.2102ZM501.878 91.3239C500.946 91.3239 500.145 90.9943 499.474 90.3352C498.804 89.6648 498.469 88.858 498.469 87.9148C498.469 86.983 498.804 86.1875 499.474 85.5284C500.145 84.858 500.946 84.5227 501.878 84.5227C502.81 84.5227 503.611 84.858 504.281 85.5284C504.952 86.1875 505.287 86.983 505.287 87.9148C505.287 88.5398 505.128 89.1136 504.81 89.6364C504.503 90.1477 504.094 90.5568 503.582 90.8636C503.071 91.1705 502.503 91.3239 501.878 91.3239ZM20.5078 121.261C20.326 119.648 19.576 118.398 18.2578 117.511C16.9396 116.614 15.2805 116.165 13.2805 116.165C11.8487 116.165 10.6101 116.392 9.56463 116.847C8.51918 117.29 7.70668 117.903 7.12713 118.688C6.55895 119.46 6.27486 120.341 6.27486 121.33C6.27486 122.159 6.46804 122.875 6.8544 123.477C7.25213 124.08 7.76918 124.585 8.40554 124.994C9.05327 125.392 9.74645 125.727 10.4851 126C11.2237 126.261 11.9339 126.477 12.6158 126.648L16.0249 127.534C17.1385 127.807 18.2805 128.176 19.451 128.642C20.6214 129.108 21.7067 129.722 22.7067 130.483C23.7067 131.244 24.5135 132.188 25.1271 133.312C25.7521 134.438 26.0646 135.784 26.0646 137.352C26.0646 139.33 25.5533 141.085 24.5305 142.619C23.5192 144.153 22.0476 145.364 20.1158 146.25C18.1953 147.136 15.8714 147.58 13.1442 147.58C10.5305 147.58 8.26918 147.165 6.36009 146.335C4.45099 145.506 2.95668 144.33 1.87713 142.807C0.797585 141.273 0.200994 139.455 0.0873581 137.352H5.37145C5.47372 138.614 5.88281 139.665 6.59872 140.506C7.32599 141.335 8.25213 141.955 9.37713 142.364C10.5135 142.761 11.7578 142.96 13.1101 142.96C14.5987 142.96 15.9226 142.727 17.0817 142.261C18.2521 141.784 19.1726 141.125 19.843 140.284C20.5135 139.432 20.8487 138.437 20.8487 137.301C20.8487 136.267 20.5533 135.42 19.9624 134.761C19.3828 134.102 18.593 133.557 17.593 133.125C16.6044 132.693 15.4851 132.312 14.2351 131.983L10.1101 130.858C7.31463 130.097 5.09872 128.977 3.46236 127.5C1.83736 126.023 1.02486 124.068 1.02486 121.636C1.02486 119.625 1.57031 117.869 2.66122 116.369C3.75213 114.869 5.2294 113.705 7.09304 112.875C8.95668 112.034 11.0589 111.614 13.3999 111.614C15.7635 111.614 17.8487 112.028 19.6555 112.858C21.4737 113.688 22.9055 114.83 23.951 116.284C24.9965 117.727 25.5419 119.386 25.5874 121.261H20.5078ZM42.978 147.528C40.5234 147.528 38.3814 146.966 36.5518 145.841C34.7223 144.716 33.3018 143.142 32.2905 141.119C31.2791 139.097 30.7734 136.733 30.7734 134.028C30.7734 131.312 31.2791 128.937 32.2905 126.903C33.3018 124.869 34.7223 123.29 36.5518 122.165C38.3814 121.04 40.5234 120.477 42.978 120.477C45.4325 120.477 47.5746 121.04 49.4041 122.165C51.2337 123.29 52.6541 124.869 53.6655 126.903C54.6768 128.937 55.1825 131.312 55.1825 134.028C55.1825 136.733 54.6768 139.097 53.6655 141.119C52.6541 143.142 51.2337 144.716 49.4041 145.841C47.5746 146.966 45.4325 147.528 42.978 147.528ZM42.995 143.25C44.5859 143.25 45.9041 142.83 46.9496 141.989C47.995 141.148 48.7678 140.028 49.2678 138.631C49.7791 137.233 50.0348 135.693 50.0348 134.011C50.0348 132.341 49.7791 130.807 49.2678 129.409C48.7678 128 47.995 126.869 46.9496 126.017C45.9041 125.165 44.5859 124.739 42.995 124.739C41.3928 124.739 40.0632 125.165 39.0064 126.017C37.9609 126.869 37.1825 128 36.6712 129.409C36.1712 130.807 35.9212 132.341 35.9212 134.011C35.9212 135.693 36.1712 137.233 36.6712 138.631C37.1825 140.028 37.9609 141.148 39.0064 141.989C40.0632 142.83 41.3928 143.25 42.995 143.25ZM71.8999 147.528C69.3658 147.528 67.1839 146.955 65.3544 145.807C63.5362 144.648 62.1385 143.051 61.1612 141.017C60.1839 138.983 59.6953 136.653 59.6953 134.028C59.6953 131.369 60.1953 129.023 61.1953 126.989C62.1953 124.943 63.6044 123.347 65.4226 122.199C67.2408 121.051 69.3828 120.477 71.8487 120.477C73.8374 120.477 75.6101 120.847 77.1669 121.585C78.7237 122.312 79.9794 123.335 80.9339 124.653C81.8999 125.972 82.4737 127.511 82.6555 129.273H77.6953C77.4226 128.045 76.7976 126.989 75.8203 126.102C74.8544 125.216 73.5589 124.773 71.9339 124.773C70.5135 124.773 69.2692 125.148 68.201 125.898C67.1442 126.636 66.3203 127.693 65.7294 129.068C65.1385 130.432 64.843 132.045 64.843 133.909C64.843 135.818 65.1328 137.466 65.7124 138.852C66.2919 140.239 67.1101 141.312 68.1669 142.074C69.2351 142.835 70.4908 143.216 71.9339 143.216C72.8999 143.216 73.7749 143.04 74.5589 142.688C75.3544 142.324 76.0192 141.807 76.5533 141.136C77.0987 140.466 77.4794 139.659 77.6953 138.716H82.6555C82.4737 140.409 81.9226 141.92 81.0021 143.25C80.0817 144.58 78.8487 145.625 77.3033 146.386C75.7692 147.148 73.968 147.528 71.8999 147.528ZM88.1058 147V120.818H93.2024V147H88.1058ZM90.6797 116.778C89.7933 116.778 89.032 116.483 88.3956 115.892C87.7706 115.29 87.4581 114.574 87.4581 113.744C87.4581 112.903 87.7706 112.187 88.3956 111.597C89.032 110.994 89.7933 110.693 90.6797 110.693C91.5661 110.693 92.3217 110.994 92.9467 111.597C93.5831 112.187 93.9013 112.903 93.9013 113.744C93.9013 114.574 93.5831 115.29 92.9467 115.892C92.3217 116.483 91.5661 116.778 90.6797 116.778ZM107.678 147.58C106.019 147.58 104.519 147.273 103.178 146.659C101.837 146.034 100.775 145.131 99.9908 143.949C99.218 142.767 98.8317 141.318 98.8317 139.602C98.8317 138.125 99.1158 136.909 99.6839 135.955C100.252 135 101.019 134.244 101.985 133.688C102.951 133.131 104.031 132.71 105.224 132.426C106.417 132.142 107.633 131.926 108.871 131.778C110.44 131.597 111.712 131.449 112.69 131.335C113.667 131.21 114.377 131.011 114.82 130.739C115.263 130.466 115.485 130.023 115.485 129.409V129.29C115.485 127.801 115.065 126.648 114.224 125.83C113.394 125.011 112.156 124.602 110.508 124.602C108.792 124.602 107.44 124.983 106.451 125.744C105.474 126.494 104.798 127.33 104.423 128.25L99.6328 127.159C100.201 125.568 101.031 124.284 102.121 123.307C103.224 122.318 104.491 121.602 105.923 121.159C107.354 120.705 108.86 120.477 110.44 120.477C111.485 120.477 112.593 120.602 113.763 120.852C114.945 121.091 116.048 121.534 117.07 122.182C118.104 122.83 118.951 123.756 119.61 124.96C120.269 126.153 120.599 127.705 120.599 129.614V147H115.621V143.42H115.417C115.087 144.08 114.593 144.727 113.934 145.364C113.275 146 112.428 146.528 111.394 146.949C110.36 147.369 109.121 147.58 107.678 147.58ZM108.786 143.489C110.195 143.489 111.4 143.21 112.4 142.653C113.411 142.097 114.178 141.369 114.701 140.472C115.235 139.562 115.502 138.591 115.502 137.557V134.182C115.32 134.364 114.968 134.534 114.445 134.693C113.934 134.841 113.349 134.972 112.69 135.085C112.031 135.187 111.388 135.284 110.763 135.375C110.138 135.455 109.616 135.523 109.195 135.58C108.207 135.705 107.303 135.915 106.485 136.21C105.678 136.506 105.031 136.932 104.542 137.489C104.065 138.034 103.826 138.761 103.826 139.67C103.826 140.932 104.292 141.886 105.224 142.534C106.156 143.17 107.343 143.489 108.786 143.489ZM132.484 112.091V147H127.387V112.091H132.484ZM152.043 147V120.818H156.935V125.08H157.259C157.805 123.636 158.697 122.511 159.935 121.705C161.174 120.886 162.657 120.477 164.384 120.477C166.134 120.477 167.6 120.886 168.782 121.705C169.975 122.523 170.856 123.648 171.424 125.08H171.697C172.322 123.682 173.316 122.568 174.68 121.739C176.043 120.898 177.668 120.477 179.555 120.477C181.93 120.477 183.867 121.222 185.367 122.71C186.879 124.199 187.634 126.443 187.634 129.443V147H182.538V129.92C182.538 128.148 182.055 126.864 181.089 126.068C180.123 125.273 178.969 124.875 177.629 124.875C175.969 124.875 174.68 125.386 173.759 126.409C172.839 127.42 172.379 128.722 172.379 130.312V147H167.299V129.597C167.299 128.176 166.856 127.034 165.969 126.17C165.083 125.307 163.93 124.875 162.509 124.875C161.543 124.875 160.651 125.131 159.833 125.642C159.026 126.142 158.373 126.841 157.873 127.739C157.384 128.636 157.14 129.676 157.14 130.858V147H152.043ZM205.749 147.528C203.17 147.528 200.948 146.977 199.085 145.875C197.232 144.761 195.8 143.199 194.789 141.188C193.789 139.165 193.289 136.795 193.289 134.08C193.289 131.398 193.789 129.034 194.789 126.989C195.8 124.943 197.21 123.347 199.016 122.199C200.835 121.051 202.96 120.477 205.391 120.477C206.869 120.477 208.3 120.722 209.687 121.21C211.073 121.699 212.317 122.466 213.42 123.511C214.522 124.557 215.391 125.915 216.028 127.585C216.664 129.244 216.982 131.261 216.982 133.636V135.443H196.17V131.625H211.988C211.988 130.284 211.715 129.097 211.17 128.062C210.624 127.017 209.857 126.193 208.869 125.591C207.891 124.989 206.744 124.688 205.425 124.688C203.994 124.688 202.744 125.04 201.675 125.744C200.619 126.437 199.8 127.347 199.221 128.472C198.653 129.585 198.369 130.795 198.369 132.102V135.085C198.369 136.835 198.675 138.324 199.289 139.551C199.914 140.778 200.783 141.716 201.897 142.364C203.011 143 204.312 143.318 205.8 143.318C206.766 143.318 207.647 143.182 208.442 142.909C209.238 142.625 209.925 142.205 210.505 141.648C211.085 141.091 211.528 140.403 211.835 139.585L216.658 140.455C216.272 141.875 215.579 143.119 214.579 144.188C213.59 145.244 212.346 146.068 210.846 146.659C209.357 147.239 207.658 147.528 205.749 147.528ZM232.438 147.511C230.325 147.511 228.438 146.972 226.779 145.892C225.131 144.801 223.836 143.25 222.893 141.239C221.961 139.216 221.495 136.79 221.495 133.96C221.495 131.131 221.967 128.71 222.91 126.699C223.864 124.687 225.171 123.148 226.83 122.08C228.489 121.011 230.37 120.477 232.472 120.477C234.097 120.477 235.404 120.75 236.393 121.295C237.393 121.83 238.165 122.455 238.711 123.17C239.268 123.886 239.7 124.517 240.006 125.062H240.313V112.091H245.41V147H240.433V142.926H240.006C239.7 143.483 239.256 144.119 238.677 144.835C238.109 145.551 237.325 146.176 236.325 146.71C235.325 147.244 234.029 147.511 232.438 147.511ZM233.563 143.165C235.029 143.165 236.268 142.778 237.279 142.006C238.302 141.222 239.075 140.136 239.597 138.75C240.131 137.364 240.398 135.75 240.398 133.909C240.398 132.091 240.137 130.5 239.614 129.136C239.092 127.773 238.325 126.71 237.313 125.949C236.302 125.187 235.052 124.807 233.563 124.807C232.029 124.807 230.751 125.205 229.728 126C228.705 126.795 227.933 127.881 227.41 129.256C226.898 130.631 226.643 132.182 226.643 133.909C226.643 135.659 226.904 137.233 227.427 138.631C227.95 140.028 228.722 141.136 229.745 141.955C230.779 142.761 232.052 143.165 233.563 143.165ZM252.684 147V120.818H257.781V147H252.684ZM255.258 116.778C254.371 116.778 253.61 116.483 252.974 115.892C252.349 115.29 252.036 114.574 252.036 113.744C252.036 112.903 252.349 112.187 252.974 111.597C253.61 110.994 254.371 110.693 255.258 110.693C256.144 110.693 256.9 110.994 257.525 111.597C258.161 112.187 258.479 112.903 258.479 113.744C258.479 114.574 258.161 115.29 257.525 115.892C256.9 116.483 256.144 116.778 255.258 116.778ZM272.256 147.58C270.597 147.58 269.097 147.273 267.756 146.659C266.415 146.034 265.353 145.131 264.569 143.949C263.796 142.767 263.41 141.318 263.41 139.602C263.41 138.125 263.694 136.909 264.262 135.955C264.83 135 265.597 134.244 266.563 133.688C267.529 133.131 268.609 132.71 269.802 132.426C270.995 132.142 272.211 131.926 273.45 131.778C275.018 131.597 276.29 131.449 277.268 131.335C278.245 131.21 278.955 131.011 279.398 130.739C279.842 130.466 280.063 130.023 280.063 129.409V129.29C280.063 127.801 279.643 126.648 278.802 125.83C277.972 125.011 276.734 124.602 275.086 124.602C273.37 124.602 272.018 124.983 271.029 125.744C270.052 126.494 269.376 127.33 269.001 128.25L264.211 127.159C264.779 125.568 265.609 124.284 266.7 123.307C267.802 122.318 269.069 121.602 270.501 121.159C271.933 120.705 273.438 120.477 275.018 120.477C276.063 120.477 277.171 120.602 278.342 120.852C279.523 121.091 280.626 121.534 281.648 122.182C282.683 122.83 283.529 123.756 284.188 124.96C284.847 126.153 285.177 127.705 285.177 129.614V147H280.2V143.42H279.995C279.665 144.08 279.171 144.727 278.512 145.364C277.853 146 277.006 146.528 275.972 146.949C274.938 147.369 273.7 147.58 272.256 147.58ZM273.364 143.489C274.773 143.489 275.978 143.21 276.978 142.653C277.989 142.097 278.756 141.369 279.279 140.472C279.813 139.562 280.08 138.591 280.08 137.557V134.182C279.898 134.364 279.546 134.534 279.023 134.693C278.512 134.841 277.927 134.972 277.268 135.085C276.609 135.187 275.967 135.284 275.342 135.375C274.717 135.455 274.194 135.523 273.773 135.58C272.785 135.705 271.881 135.915 271.063 136.21C270.256 136.506 269.609 136.932 269.12 137.489C268.643 138.034 268.404 138.761 268.404 139.67C268.404 140.932 268.87 141.886 269.802 142.534C270.734 143.17 271.921 143.489 273.364 143.489ZM307.89 156.818C307.129 156.818 306.435 156.756 305.81 156.631C305.185 156.517 304.719 156.392 304.413 156.256L305.64 152.08C306.572 152.33 307.401 152.438 308.129 152.403C308.856 152.369 309.498 152.097 310.055 151.585C310.623 151.074 311.123 150.239 311.555 149.08L312.185 147.341L302.606 120.818H308.06L314.691 141.136H314.964L321.594 120.818H327.066L316.276 150.494C315.776 151.858 315.14 153.011 314.367 153.955C313.594 154.909 312.674 155.625 311.606 156.102C310.538 156.58 309.299 156.818 307.89 156.818ZM341.994 147.528C339.539 147.528 337.397 146.966 335.567 145.841C333.738 144.716 332.317 143.142 331.306 141.119C330.295 139.097 329.789 136.733 329.789 134.028C329.789 131.312 330.295 128.937 331.306 126.903C332.317 124.869 333.738 123.29 335.567 122.165C337.397 121.04 339.539 120.477 341.994 120.477C344.448 120.477 346.59 121.04 348.42 122.165C350.249 123.29 351.67 124.869 352.681 126.903C353.692 128.937 354.198 131.312 354.198 134.028C354.198 136.733 353.692 139.097 352.681 141.119C351.67 143.142 350.249 144.716 348.42 145.841C346.59 146.966 344.448 147.528 341.994 147.528ZM342.011 143.25C343.602 143.25 344.92 142.83 345.965 141.989C347.011 141.148 347.783 140.028 348.283 138.631C348.795 137.233 349.05 135.693 349.05 134.011C349.05 132.341 348.795 130.807 348.283 129.409C347.783 128 347.011 126.869 345.965 126.017C344.92 125.165 343.602 124.739 342.011 124.739C340.408 124.739 339.079 125.165 338.022 126.017C336.977 126.869 336.198 128 335.687 129.409C335.187 130.807 334.937 132.341 334.937 134.011C334.937 135.693 335.187 137.233 335.687 138.631C336.198 140.028 336.977 141.148 338.022 141.989C339.079 142.83 340.408 143.25 342.011 143.25ZM376.472 136.142V120.818H381.586V147H376.575V142.466H376.302C375.7 143.864 374.734 145.028 373.404 145.96C372.086 146.881 370.444 147.341 368.478 147.341C366.796 147.341 365.308 146.972 364.012 146.233C362.728 145.483 361.717 144.375 360.978 142.909C360.251 141.443 359.887 139.631 359.887 137.472V120.818H364.984V136.858C364.984 138.642 365.478 140.062 366.467 141.119C367.455 142.176 368.739 142.705 370.319 142.705C371.273 142.705 372.222 142.466 373.165 141.989C374.12 141.511 374.91 140.79 375.535 139.824C376.171 138.858 376.484 137.631 376.472 136.142ZM412.165 147.528C409.631 147.528 407.45 146.955 405.62 145.807C403.802 144.648 402.404 143.051 401.427 141.017C400.45 138.983 399.961 136.653 399.961 134.028C399.961 131.369 400.461 129.023 401.461 126.989C402.461 124.943 403.87 123.347 405.688 122.199C407.506 121.051 409.648 120.477 412.114 120.477C414.103 120.477 415.876 120.847 417.433 121.585C418.989 122.312 420.245 123.335 421.2 124.653C422.165 125.972 422.739 127.511 422.921 129.273H417.961C417.688 128.045 417.063 126.989 416.086 126.102C415.12 125.216 413.825 124.773 412.2 124.773C410.779 124.773 409.535 125.148 408.467 125.898C407.41 126.636 406.586 127.693 405.995 129.068C405.404 130.432 405.109 132.045 405.109 133.909C405.109 135.818 405.398 137.466 405.978 138.852C406.558 140.239 407.376 141.312 408.433 142.074C409.501 142.835 410.756 143.216 412.2 143.216C413.165 143.216 414.04 143.04 414.825 142.688C415.62 142.324 416.285 141.807 416.819 141.136C417.364 140.466 417.745 139.659 417.961 138.716H422.921C422.739 140.409 422.188 141.92 421.268 143.25C420.347 144.58 419.114 145.625 417.569 146.386C416.035 147.148 414.234 147.528 412.165 147.528ZM439.4 147.528C436.945 147.528 434.803 146.966 432.974 145.841C431.144 144.716 429.724 143.142 428.712 141.119C427.701 139.097 427.195 136.733 427.195 134.028C427.195 131.312 427.701 128.937 428.712 126.903C429.724 124.869 431.144 123.29 432.974 122.165C434.803 121.04 436.945 120.477 439.4 120.477C441.854 120.477 443.996 121.04 445.826 122.165C447.656 123.29 449.076 124.869 450.087 126.903C451.099 128.937 451.604 131.312 451.604 134.028C451.604 136.733 451.099 139.097 450.087 141.119C449.076 143.142 447.656 144.716 445.826 145.841C443.996 146.966 441.854 147.528 439.4 147.528ZM439.417 143.25C441.008 143.25 442.326 142.83 443.371 141.989C444.417 141.148 445.19 140.028 445.69 138.631C446.201 137.233 446.457 135.693 446.457 134.011C446.457 132.341 446.201 130.807 445.69 129.409C445.19 128 444.417 126.869 443.371 126.017C442.326 125.165 441.008 124.739 439.417 124.739C437.815 124.739 436.485 125.165 435.428 126.017C434.383 126.869 433.604 128 433.093 129.409C432.593 130.807 432.343 132.341 432.343 134.011C432.343 135.693 432.593 137.233 433.093 138.631C433.604 140.028 434.383 141.148 435.428 141.989C436.485 142.83 437.815 143.25 439.417 143.25ZM462.39 131.455V147H457.293V120.818H462.185V125.08H462.509C463.112 123.693 464.055 122.58 465.339 121.739C466.634 120.898 468.265 120.477 470.231 120.477C472.015 120.477 473.577 120.852 474.918 121.602C476.259 122.341 477.299 123.443 478.038 124.909C478.776 126.375 479.146 128.187 479.146 130.347V147H474.049V130.96C474.049 129.062 473.555 127.58 472.566 126.511C471.577 125.432 470.219 124.892 468.492 124.892C467.31 124.892 466.259 125.148 465.339 125.659C464.43 126.17 463.708 126.92 463.174 127.909C462.651 128.886 462.39 130.068 462.39 131.455ZM498.202 120.818V124.909H483.901V120.818H498.202ZM487.737 114.545H492.833V139.312C492.833 140.301 492.981 141.045 493.276 141.545C493.572 142.034 493.952 142.369 494.418 142.551C494.896 142.722 495.413 142.807 495.969 142.807C496.379 142.807 496.737 142.778 497.043 142.722C497.35 142.665 497.589 142.619 497.759 142.585L498.68 146.795C498.384 146.909 497.964 147.023 497.418 147.136C496.873 147.261 496.191 147.33 495.373 147.341C494.032 147.364 492.782 147.125 491.623 146.625C490.464 146.125 489.526 145.352 488.81 144.307C488.094 143.261 487.737 141.949 487.737 140.369V114.545ZM503.84 147V120.818H508.766V124.977H509.039C509.516 123.568 510.357 122.46 511.562 121.653C512.778 120.835 514.153 120.426 515.687 120.426C516.005 120.426 516.38 120.437 516.812 120.46C517.255 120.483 517.602 120.511 517.852 120.545V125.42C517.647 125.364 517.283 125.301 516.761 125.233C516.238 125.153 515.715 125.114 515.192 125.114C513.988 125.114 512.914 125.369 511.971 125.881C511.039 126.381 510.3 127.08 509.755 127.977C509.21 128.864 508.937 129.875 508.937 131.011V147H503.84ZM532.353 147.528C529.898 147.528 527.756 146.966 525.927 145.841C524.097 144.716 522.677 143.142 521.665 141.119C520.654 139.097 520.148 136.733 520.148 134.028C520.148 131.312 520.654 128.937 521.665 126.903C522.677 124.869 524.097 123.29 525.927 122.165C527.756 121.04 529.898 120.477 532.353 120.477C534.808 120.477 536.95 121.04 538.779 122.165C540.609 123.29 542.029 124.869 543.04 126.903C544.052 128.937 544.558 131.312 544.558 134.028C544.558 136.733 544.052 139.097 543.04 141.119C542.029 143.142 540.609 144.716 538.779 145.841C536.95 146.966 534.808 147.528 532.353 147.528ZM532.37 143.25C533.961 143.25 535.279 142.83 536.325 141.989C537.37 141.148 538.143 140.028 538.643 138.631C539.154 137.233 539.41 135.693 539.41 134.011C539.41 132.341 539.154 130.807 538.643 129.409C538.143 128 537.37 126.869 536.325 126.017C535.279 125.165 533.961 124.739 532.37 124.739C530.768 124.739 529.438 125.165 528.381 126.017C527.336 126.869 526.558 128 526.046 129.409C525.546 130.807 525.296 132.341 525.296 134.011C525.296 135.693 525.546 137.233 526.046 138.631C526.558 140.028 527.336 141.148 528.381 141.989C529.438 142.83 530.768 143.25 532.37 143.25ZM555.343 112.091V147H550.246V112.091H555.343ZM565.558 147.324C564.626 147.324 563.825 146.994 563.154 146.335C562.484 145.665 562.148 144.858 562.148 143.915C562.148 142.983 562.484 142.187 563.154 141.528C563.825 140.858 564.626 140.523 565.558 140.523C566.489 140.523 567.29 140.858 567.961 141.528C568.631 142.187 568.967 142.983 568.967 143.915C568.967 144.54 568.808 145.114 568.489 145.636C568.183 146.148 567.773 146.557 567.262 146.864C566.751 147.17 566.183 147.324 565.558 147.324Z" fill="url(#paint0_linear_3183_2898)"/>
<defs>
<linearGradient id="paint0_linear_3183_2898" x1="285" y1="-7" x2="285" y2="155" gradientUnits="userSpaceOnUse">
<stop stop-color="#313F54"/>
<stop offset="0.836538" stop-color="#667B99"/>
<stop offset="1" stop-color="#667B99" stop-opacity="0.5"/>
</linearGradient>
</defs>
</svg>
