<svg xmlns="http://www.w3.org/2000/svg" width="900" height="600"><path d="M0 0h900v600H0z" fill="#dc171d"/><path d="M450 168.787 215.691 300 450 431.213 684.309 300z" fill="#fff"/><path d="M281.477 336.852V376h69.961l290.727-52.4V376h-93.668z" fill="#dc171f"/><g fill="#012a87"><path d="M188 288H20V20h418v128zM712 288h168V20H462v128zM188 312H20v268h418V452zM712 312h168v268H462V452z"/></g><path d="m450 199.5 8.068 24.827h26.105l-21.12 15.346 8.067 24.827L450 249.157 428.88 264.5l8.066-24.827-21.119-15.345 26.105-.001z" fill="#f9d90f"/><path d="M281.477 336.852c2.712-8.848 8.614-12.77 16.594-10.995 4.94-18.73 27.739-22.07 36.786-12.857l22.273 22.37c4.837 2.251 12.207 3.095 17.326 3.095 6.33.1 5.621 3.005 10.91 3.106 14.096.27 51.143.458 57.857 0 2.75-.187 64.134-67.857 64.134-67.857 5.12-6.31 18.453-8.333 25.714-3.214 6.786 6.429 13.929 7.143 18.929 2.857 4.405-6.547 14.392-7.309 20.714-3.571l69.45 53.815L548.497 376H351.438l-69.96-39.148z" fill="#008830"/></svg>