<svg xmlns="http://www.w3.org/2000/svg" viewBox="0 0 513 342"><path fill="#62B5E5" d="M0 0h513v342H0z"/><path fill="#F3F3F3" d="M307.1 127.1v92c0 61.6 80.5 80.5 80.5 80.5s80.4-19 80.4-80.6v-92l-80.5-23-80.4 23.1z"/><path fill="#D80027" d="M468 132.8V98.3H307.1v34.5h69v69h-69v23h69V296c6.9 2.5 11.5 3.5 11.5 3.5s4.6-1.1 11.5-3.5v-71.2h69v-23h-69v-69H468z"/><g fill="#FFF"><path d="M0 0h256.5v170.6H0V0z"/><path d="m155.9 115 100.6 55.6v-15.8L184.6 115h-28.7zM100.2 55.7 0 0v15.8l71.8 39.9h28.4z"/></g><g fill="#0052B4"><path d="m196.9 115 59.6 32.9V115h-59.6zm-41 0 100.6 55.6v-15.8L184.6 115h-28.7zm73.4 55.6-73.5-40.9v40.9h73.5zM45.2 115 0 140.1V115h45.2zm55 7.1v48.6H12.8l87.4-48.6zM59.1 55.7 0 22.8v32.8s59.1 0 59.1.1zm41.1 0L0 0v15.8l71.8 39.9h28.4zM26.7 0l73.5 40.8V0H26.7zM210.9 55.7l45.6-25.1v25.1h-45.6zm-55-7.2V0h87.4l-87.4 48.5z"/></g><g fill="#D80027"><path d="M144.3-.2h-32.1v69.5H0v32.1h112.2v69.5h32.1v-69.5h112.2V69.3H144.3V-.2z"/><path d="m155.9 115 100.6 55.6v-15.8L184.6 115h-28.7zM71.8 115 0 154.9v15.8L100.2 115H71.8zM100.2 55.7 0 0v15.8l71.8 39.9h28.4zM184.1 55.7l72.4-39.9V0L155.9 55.7h28.2z"/></g></svg>