<svg xmlns="http://www.w3.org/2000/svg" viewBox="0 0 513 342"><path fill="#FFF" d="M0 0h513v342H0z"/><path fill="#D80027" d="M0 136h513v70H0z"/><path fill="#D80027" d="M221.5 0h70v342h-70z"/><path fill="#FFF" stroke="#231F20" stroke-miterlimit="10" d="m256.5 87.8-24 41.4h-48.8l24.7 42.1-24.7 42.1h48.8l24 42.1 24-42.1h48.8l-24.7-42.1 24.7-42.1h-48.8l-24-41.4z"/><path fill="#D80027" d="M258.6 130.6c-3.3 0-3.3 3.3-3.3 3.3V160h-2v-22s0-4-3.3-4c-4 0-4 4-4 4v23.4l-2 .7v-16.7s0-4-3.3-4c-4 0-4 4-4 4V174c0 6.7 3.3 13.4 8 17.4v14h24V194c6-3.3 10.7-9.4 12-16.7 0-4 1.3-7.3 2.7-10.7l2.7-9.4s.7-3.3-2.7-4.7-4.7 2-4.7 2l-5.3 12.7h-2v-31.4s0-3.3-3.3-3.3c-4 0-4 3.3-4 3.3v24h-1.3v-26.1c-.2.2-.2-3.1-4.2-3.1z"/><path fill="#FFDA44" stroke="#231F20" stroke-miterlimit="10" d="M249.2 25.7V33h-7.3v14.7h7.3v14c-4-4-9.4-6-14.7-6-12.2-.1-22.1 9.6-22.3 21.8-.1 6.1 2.4 12 6.9 16.3v13.4h74.8V93.8c4-4.7 6.7-10 6.7-16-.2-12.2-10.3-21.9-22.4-21.6-5.3.1-10.4 2.1-14.3 5.6v-14h7.3V33.1h-7.3v-7.3l-14.7-.1z"/></svg>