<svg xmlns="http://www.w3.org/2000/svg" viewBox="0 0 513 342"><path fill="#FFF" d="M0 0h513v171H0z"/><path fill="#529E3C" d="M0 171h513v171H0z"/><path fill="#D11C1C" d="m201 259.8 28.2-4.8-21.8-10.3 14.9-8.4s25.2 21.2 25.2 14.4c0-7.3 23.7-4.1 22.7-14.4-1.3-14.1-26.2-1-30.6-18.7-2.5-9.9-10.3-8.6-10.3-8.6l-25.1 8.6-12.5 18.7-6.2-18.7s-14.6 11.9-19.5 18.7c-5.2 7.3-10.7 23.5-10.7 23.5l25.6 10.7-37.3-6.6-27.2 6.6-16.7 4.6 7.3-7.7-15-7.6 15-9-7.3-6.1 32.3 6.1s11.8-1.2 16.3-6.1c5.6-6.2 10.1-27.1 10.1-27.1l-14.8-8.6-11.6 21s-8-19.9-15.6-31c-5.7-8.3-24.3-27.3-24.3-27.3l-24 12.6 13.4-26.7s10.6-9.3 3.9-18.8c-6.8-9.5-12.4-30.9-12.4-30.9s14.1 24.4 19.2 22.5c7.2-2.7-9-25 0-28.9 6.5-2.9 7.6 25.5 7.6 25.5l7.3-13.9v17.3s-4.3 20.7 3 33c7.2 12.3 28.7 20.9 28.7 20.9s-5.6-12.3 0-36c3.8-16 17.2-43.4 23.6-52.1 3.3-4.6-26.7 17-26.7 17v-17l-28.6-2.9-7.3 8.3-18.3-30L104 83.1h34.6l-6.7-8.3H104s5.9-12.1 34.6-12.1l13.6-9.2s18.6.5 29 .9c9.3.4 26.1-11.5 26.1-11.5l4.7 11.5-11 17.3 11.1 11.4-4.7 7 8.1 11.5H201l11.1 17.9-11.1-6.3 6.4 17.3-6.4 17.8 28.2-9.5s0-25.6 10.3-37.2C271.1 69.2 322.6 43 322.6 43s-2.7 23.5 4.9 25.4c11.1 2.7 59.4-19.4 59.4-19.4s-29 31.3-23.1 34.1c3.2 1.5 8.5 7 8.5 7s-25.1 20.5-29.3 29.3c-4.2 8.8 6.1 19.4 6.1 19.4s-21.7 0-32.5 9.5c32.5 0 59.1 15.4 74.8 4 10.5-7.6-37.7-2.9-31.4-21.9 2.4-7.1 8.5-15.2 22.6-17.3s19.1 6.3 19.1 6.3l7.6-11.5h-22.4l40.6-39.6 5.3 51.1-13.7-11.4-6.2 19.2c14.6 44.6-52.8 54.1-52.8 54.1l41.6 27.8-14.8 4.2-4.2 41.7 19.1 15.5-25-6.6-49.2 11.2 9.8-15.3-20.6 4.1 13.7-13.1-13.7-6.1 17.6-4.9 22.1 15.2s11-14.2 12.2-21.7c1.3-7.8-4.8-24.2-4.8-24.2s-32.6-.7-44.1-3.5-18.2-11.9-18.2-11.9l-13.1 15.4s45.5 17.1 34.1 24.2c-2.6 1.7-15.7-3.2-15.7-3.2s-22.4 26.2-36.8 29.7c-6.5 1.6 18.3 10.7 18.3 10.7s-21.2-3.4-32-6.6c-11.3-3.4-44.4 6.6-44.4 6.6l-11-10.7zM383.9 138c3.1 0 5.7-2.6 5.7-5.7s-2.6-5.7-5.7-5.7-5.7 2.6-5.7 5.7 2.5 5.7 5.7 5.7z"/></svg>