<svg xmlns="http://www.w3.org/2000/svg" viewBox="0 0 513 342"><path fill="#c60a0a" d="M0 0h513v342H0z"/><path fill="#3E8446" d="m256.5 170.7-212 126.1V44.5z"/><path fill="#FFDA44" d="m256.5 170.7 211 126.1h-423zm211-126.2-211 126.2-212-126.2z"/><path fill="#3E8446" d="M467.5 44.5v252.3l-211-126.1z"/><path fill="#FFDA44" d="m256.5 10.4 2.8 10.2H270l-8.6 6.3 3.3 10.2-8.2-6.3-9.2 6.3 3.3-10.2-8.6-6.3h10.7zm-86.4 0 3.3 10.2h10.7l-8.6 6.3 3.3 10.2-8.7-6.3-8.7 6.3 3.3-10.2-8.6-6.3h10.7zm171.8 0 3.3 10.2H356l-8.7 6.3 3.3 10.2-8.7-6.3-8.7 6.3 3.3-10.2-8.6-6.3h10.7zm-85.4 293.8 2.8 10.2H270l-8.6 6.3 3.3 10.2-8.2-6.3-9.2 6.3 3.3-10.2-8.6-6.3h10.7zm-86.4 0 3.3 10.2h10.7l-8.6 6.3 3.3 10.2-8.7-6.3-8.7 6.3 3.3-10.2-8.6-6.3h10.7zm171.8 0 3.3 10.2H356l-8.7 6.3 3.3 10.2-8.7-6.3-8.7 6.3 3.3-10.2-8.6-6.3h10.7z"/><circle cx="244.5" cy="170.7" r="76.2" fill="#c60a0a"/><path fill="#FFDA44" d="m244.5 110.1 13.6 41.8h44l-35.6 25.8 13.6 41.8-35.6-25.8-35.5 25.8 13.6-41.8-35.6-25.8h44zm-136.8 57.7c4.4 6.9 2.3 16.1-4.6 20.5s-16.1 2.3-20.5-4.6c-7.9-12.5-3.3-33-3.3-33s20.4 4.6 28.4 17.1z"/><circle cx="99.1" cy="182.1" r="7.4" fill="#A2001D"/></svg>
