<svg xmlns="http://www.w3.org/2000/svg" viewBox="0 0 513 342"><path fill="#0052B4" d="M0 0h513v342H0z"/><g fill="#FFF"><path d="M223.4 170.7c.3-.3.5-.6.8-.9-.3.3-.5.6-.8.9zm-34.2 41.9 11 22.9 24.7-5.7-11.1 22.8 19.9 15.8L209 274v25.4l-19.8-15.9-19.8 15.9.1-25.4-24.8-5.6 19.9-15.8-11.1-22.8 24.8 5.7zm197.9 28.5 5.2 10.9 11.8-2.7-5.3 10.9 9.5 7.5-11.8 2.6v12.2l-9.4-7.6-9.5 7.6.1-12.2-11.9-2.6 9.5-7.5-5.3-10.9 11.9 2.7zm-48.6-116 5.2 10.9 11.8-2.7-5.3 10.9 9.5 7.5-11.8 2.7v12.1l-9.4-7.6-9.5 7.6v-12.1l-11.8-2.7 9.5-7.5-5.3-10.9 11.8 2.7zm48.6-66.2 5.2 10.9 11.8-2.7-5.3 10.9 9.5 7.5-11.8 2.7v12.1l-9.4-7.6-9.5 7.6.1-12.1-11.9-2.7 9.5-7.5-5.3-10.9 11.9 2.7zm42.4 49.7 5.3 10.9 11.8-2.7-5.3 10.9 9.5 7.5-11.8 2.6V150l-9.5-7.6-9.4 7.6v-12.2l-11.8-2.6 9.5-7.5-5.3-10.9 11.8 2.7zm-30.3 57.9 4.1 12.7h13.3l-10.8 7.8 4.1 12.6-10.7-7.8-10.8 7.8 4.1-12.6-10.7-7.8h13.3z"/><path d="M256 0v30.6l-45.2 25.1H256V115h-59.1l59.1 32.8v22.9h-26.7l-73.5-40.9v40.9h-55.6v-48.6l-87.5 48.6H0v-30.6L45.2 115H0V55.7h59.1L0 22.8V0h26.7l73.5 40.8V0h55.6v48.6L243.3 0z"/></g><path fill="#D80027" d="M144 0h-32v69.3H0v32h112v69.4h32v-69.4h112v-32H144z"/><path fill="#0052B4" d="M155.8 115 256 170.7v-15.8L184.2 115z"/><path fill="#FFF" d="M155.8 115 256 170.7v-15.8L184.2 115z"/><path fill="#D80027" d="M155.8 115 256 170.7v-15.8L184.2 115zm-84 0L0 154.9v15.8L100.2 115z"/><path fill="#0052B4" d="M100.2 55.6 0 0v15.7l71.8 39.9z"/><path fill="#FFF" d="M100.2 55.6 0 0v15.7l71.8 39.9z"/><path fill="#D80027" d="M100.2 55.6 0 0v15.7l71.8 39.9zm84 0L256 15.7V0L155.8 55.6z"/></svg>
