<svg xmlns="http://www.w3.org/2000/svg" viewBox="0 0 513 342"><path fill="#FFF" d="M0 0h513v342H0z"/><path fill="#D80027" d="M0 0h513v114H0z"/><path fill="#0052B4" d="M0 228h513v114H0z"/><path fill="#338AF3" d="M309.3 113.2v-44l17.5-14.4 17.7 14.4v44zm-105.6 0v-44l-17.3-14.4-17.9 14.4v44zm35.2 0v-44l17.6-14.4 17.6 14.4v44z"/><path fill="#0052B4" d="M309.3 113.2h-35.2v-44l17.5-14.4 17.7 14.4zm-70.4 0h-35.2v-44l17.5-14.4 17.7 14.4z"/><path fill="#FFF" stroke="#D80027" d="M168.5 113.2v101.9c0 24.3 14.4 46.2 35.4 59.4 21.3 13.4 42.1 14.7 52.6 14.7s31.4-1.7 52.6-14.8c21-13 35.4-35.1 35.4-59.3V113.2h-176z"/><path fill="#D80027" d="M168.5 113.2h35.2v35.2h-35.2zm70.4 0h35.2v35.2h-35.2zm70.4 0h35.2v35.2h-35.2zm-105.6 35.2h35.2v35.2h-35.2zm70.4 0h35.2v35.2h-35.2zm-105.6 35.2h35.2v35.2h-35.2zm35.2 35.2h35.2V254h-35.2zm35.2-35.2h35.2v35.2h-35.2zm70.4 0h35.2v35.2h-35.2zm-35.2 35.2h35.2V254h-35.2zm35.2 55.5c8.6-5.4 16.2-12.3 22-20.3h-22v20.3zM181.7 254c5.8 8 13.3 14.9 22 20.4V254h-22zm57.2 0v33.7c7.2 1.2 13.3 1.5 17.6 1.5s10.4-.3 17.6-1.6V254h-35.2z"/></svg>
