<svg xmlns="http://www.w3.org/2000/svg" viewBox="0 0 513 342"><path fill="#F93" d="M0 0h513v114H0z"/><path fill="#fff" d="M0 114h513v114H0z"/><path fill="#138808" d="M0 228h513v114H0z"/><circle cx="256.5" cy="171" r="34.2" stroke="navy" stroke-width="4" fill="none"/><circle cx="256.5" cy="171" r="3.42" fill="navy"/><g stroke="navy" stroke-width="2"><path d="m265.3 138.159-17.6 65.682m17.6-65.682-17.6 65.682M273.5 141.555l-34 58.89M280.542 146.958l-48.084 48.084M285.945 154l-58.89 34M289.341 162.2l-65.682 17.6M290.5 171h-68M289.341 179.8l-65.682-17.6M285.945 188l-58.89-34M280.542 195.042l-48.084-48.084M273.5 200.445l-34-58.89M265.3 203.841l-17.6-65.682M256.5 205v-68M247.7 203.841l17.6-65.682M239.5 200.445l34-58.89M232.458 195.042l48.084-48.084M227.055 188l58.89-34M223.659 179.8l65.682-17.6M222.5 171h68M223.659 162.2l65.682 17.6M227.055 154l58.89 34M232.458 146.958l48.084 48.084M239.5 141.555l34 58.89M247.7 138.159l17.6 65.682"/></g></svg>