<svg xmlns="http://www.w3.org/2000/svg" viewBox="0 0 513 342"><path fill="#F93" d="M0 0h513v114H0z"/><path fill="#fff" d="M0 114h513v114H0z"/><path fill="#138808" d="M0 228h513v114H0z"/><circle cx="256.5" cy="171" r="34.2" fill="none" stroke="navy" stroke-width="4"/><circle cx="256.5" cy="171" r="3.42" fill="navy"/><path stroke="navy" stroke-width="2" d="m265.3 138.159-17.6 65.682m17.6-65.682-17.6 65.682m25.8-62.286-34 58.89m41.042-53.487-48.084 48.084M285.945 154l-58.89 34m62.286-25.8-65.682 17.6M290.5 171h-68m66.841 8.8-65.682-17.6m62.286 25.8-58.89-34m53.487 41.042-48.084-48.084m41.042 53.487-34-58.89m25.8 62.286-17.6-65.682M256.5 205v-68m-8.8 66.841 17.6-65.682m-25.8 62.286 34-58.89m-41.042 53.487 48.084-48.084M227.055 188l58.89-34m-62.286 25.8 65.682-17.6M222.5 171h68m-66.841-8.8 65.682 17.6M227.055 154l58.89 34m-53.487-41.042 48.084 48.084M239.5 141.555l34 58.89m-25.8-62.286 17.6 65.682"/></svg>
