<svg xmlns="http://www.w3.org/2000/svg" viewBox="0 0 513 342"><path fill="#FFF" d="M0 0h512v342H0z"/><path fill="#6DA544" d="M0 0h513v114H0z"/><path fill="#D80027" d="M0 227.9h513v114H0zm278.8-93.1c.1 2 8.7 26.2 4.4 39.4-6.6 20.3-15.8 21.8-19.8 24.5V134l-6.9-4.2-6.9 4.2v64.7c-4-2.7-12.4-2.4-19.8-24.5-4.3-12.7 5.7-37.3 5.8-39.2 0 0-9.5 8.1-15.8 24-5.9 14.8 1.9 49.6 29.5 54.8 2.3.4 4.7 5.6 7.2 5.6 2.1 0 4.1-5.2 6-5.5 28.4-4.6 35-41.7 29.9-55.6-5.4-14.6-13.6-23.5-13.6-23.5z"/><path fill="#FFF" d="M44.6 98.9h22.3v24.4H44.6zM0 98.9h22.3v24.4H0zm89.2 0h22.3v24.4H89.2zm44.6 0h22.3v24.4h-22.3zm44.6 0h22.3v24.4h-22.3zm44.6 0h22.3v24.4H223zm44.7 0H290v24.4h-22.3zm44.6 0h22.3v24.4h-22.3zm44.6 0h22.3v24.4h-22.3zm44.6 0h22.3v24.4h-22.3zm44.6 0h22.3v24.4h-22.3zm44.6 0H513v24.4h-22.3zm-446.1 118h22.3v25.5H44.6zm-44.6 0h22.3v25.5H0zm89.2 0h22.3v25.5H89.2zm44.6 0h22.3v25.5h-22.3zm44.6 0h22.3v25.5h-22.3zm44.6 0h22.3v25.5H223zm44.7 0H290v25.5h-22.3zm44.6 0h22.3v25.5h-22.3zm44.6 0h22.3v25.5h-22.3zm44.6 0h22.3v25.5h-22.3zm44.6 0h22.3v25.5h-22.3zm44.6 0H513v25.5h-22.3z" opacity=".5"/></svg>
