<svg xmlns="http://www.w3.org/2000/svg" viewBox="0 85.333 512 341.333"><path fill="#FFF" d="M0 85.337h512v341.326H0z"/><path fill="#D80027" d="M0 85.337h512v113.775H0z"/><path fill="#6DA544" d="M0 312.888h512v113.775H0z"/><path fill="#FFDA44" d="M226.318 300.522h59.364v-25.23l-11.873 5.937L256 263.421l-17.809 17.808-11.873-5.937zm-33.963-29.682 2.763 8.504h8.94l-7.233 5.255 2.763 8.502-7.233-5.255-7.234 5.255 2.763-8.502-7.233-5.255h8.94zm8.566-29.68 2.763 8.502h8.94l-7.233 5.255 2.763 8.504-7.233-5.256-7.234 5.256 2.763-8.504-7.233-5.255h8.94zm24.488-22.261 2.763 8.502h8.94l-7.233 5.255 2.763 8.504-7.233-5.256-7.234 5.256 2.763-8.504-7.233-5.255h8.94zm94.236 51.941-2.763 8.504h-8.94l7.233 5.255-2.763 8.502 7.233-5.255 7.234 5.255-2.763-8.502 7.233-5.255h-8.94zm-8.566-29.68-2.763 8.502h-8.94l7.233 5.255-2.763 8.504 7.233-5.256 7.234 5.256-2.763-8.504 7.233-5.255h-8.94zm-24.488-22.261-2.763 8.502h-8.94l7.233 5.255-2.763 8.504 7.233-5.256 7.234 5.256-2.763-8.504 7.233-5.255h-8.94zM256 207.767l2.763 8.503h8.941l-7.234 5.256 2.763 8.502-7.233-5.254-7.233 5.254 2.763-8.502-7.234-5.256h8.941z"/></svg>
