<svg width="105" height="27" viewBox="0 0 105 27" fill="none" xmlns="http://www.w3.org/2000/svg">
<path d="M8.25206 26.1685C3.42718 26.1685 0.150391 24.93 0.150391 22.5047C0.150391 21.1114 1.82749 20.4148 3.7884 20.2341C2.36932 19.6923 1.33726 19.0215 1.33726 17.783C1.33726 15.9511 3.65939 15.2028 5.38809 14.9964C2.85955 14.403 0.692222 13.0097 0.692222 10.5328C0.692222 6.97217 4.94947 5.7595 8.71649 5.7595C9.69694 5.7595 10.729 5.83691 11.7095 6.04332C12.1223 3.05035 13.7736 0.831421 16.4569 0.831421C17.876 0.831421 18.6243 1.86348 18.6243 2.84394C18.6243 3.876 17.8502 4.90806 16.2763 4.85645C14.1864 4.80485 12.7157 4.93386 11.8643 6.06912C14.496 6.61095 16.6375 7.97843 16.6375 10.5586C16.6375 14.0934 12.4319 15.3577 8.71649 15.3577C8.35526 15.3577 7.65862 15.3061 7.1684 15.2287C5.90412 15.2287 4.22703 15.2545 4.22703 15.8737C4.22703 17.5766 17.6438 15.7963 17.6438 21.3694C17.6438 24.801 12.8705 26.1685 8.25206 26.1685ZM8.71649 15.1512C10.213 15.1512 10.9612 13.2161 10.9612 10.5586C10.9612 7.97843 10.213 5.96592 8.71649 5.96592C7.1684 5.96592 6.36855 7.97843 6.36855 10.5586C6.36855 13.2935 7.2458 15.1512 8.71649 15.1512ZM8.27786 25.9105C11.0644 25.9105 12.1481 24.801 12.1481 23.6657C12.1481 21.7564 8.56168 21.3952 6.62656 20.9824C5.18168 21.163 4.33023 22.1951 4.33023 23.2271C4.33023 24.7494 5.77512 25.9105 8.27786 25.9105Z" fill="white"/>
<path d="M22.1726 21.55C19.8246 21.55 17.8121 20.0793 17.8121 17.4476C17.8121 12.8291 24.5721 11.0746 27.9263 9.96515C27.9263 7.61721 27.5651 5.94012 26.2234 5.94012C24.4947 5.94012 24.0819 7.90103 23.153 9.50072C22.766 10.3006 22.1984 10.9198 21.1405 10.9198C20.0826 10.9198 19.4376 10.12 19.4376 9.1911C19.4376 6.92057 23.54 5.7595 26.2234 5.7595C29.7066 5.7595 33.9896 6.76576 33.9896 10.765V18.8151C33.9896 19.7697 34.3251 20.2341 34.6605 20.2341C34.9185 20.2341 35.1765 20.0277 35.3313 19.6665L35.5119 19.7955C34.9185 20.9308 33.422 21.55 31.9255 21.55C29.9388 21.55 27.9263 20.518 27.9263 18.6861V18.2216C26.533 20.4147 24.2109 21.55 22.1726 21.55ZM25.7074 19.0989C26.5072 19.0989 27.3587 18.5828 27.9263 17.783V10.2748C24.8043 11.3326 23.8497 14.0676 23.8497 16.1833C23.8497 18.17 24.7269 19.0989 25.7074 19.0989Z" fill="white"/>
<path d="M38.5303 21.1114H35.6405V20.9566C36.75 20.9566 37.395 20.4147 37.395 19.3569V9.29431C37.395 8.64927 37.1112 7.74622 35.976 7.74622H35.6405V7.59141C37.6015 7.59141 41.9103 8.13324 43.3036 6.19813H43.4584V9.0621C45.6257 7.23019 48.2575 5.78531 50.4764 5.78531C52.5405 5.78531 54.037 6.76576 54.037 8.98469V19.3569C54.037 20.4147 54.8627 20.9566 55.7141 20.9566V21.1114H53.0049C51.8181 21.1114 51.4827 20.8534 51.0698 20.8276C50.6828 20.8534 50.3216 21.1114 49.1089 21.1114H46.8642V20.9566C47.5608 20.9566 47.9737 20.4147 47.9737 19.3569V9.24271C47.9737 8.03004 47.6124 7.4108 46.7352 7.4108C45.9869 7.4108 44.6453 8.33965 43.4584 9.42332V19.3569C43.4584 20.4147 44.0518 20.9566 44.6711 20.9566V21.1114H42.4263C41.2137 21.1114 40.904 20.8534 40.4912 20.8276C40.1042 20.8534 39.743 21.1114 38.5303 21.1114Z" fill="white"/>
<path d="M61.9272 21.4984C58.9084 21.4984 55.7607 19.2021 55.7607 13.5774C55.7607 8.05584 59.2181 5.7595 62.1078 5.7595C63.9913 5.7595 65.2298 6.27553 66.1845 7.10118V4.70164C66.1845 4.05661 65.9007 3.15355 64.7654 3.15355H64.43V2.99875C66.3909 2.99875 70.6997 3.54058 72.093 1.60546H72.2478V19.3827C72.2478 20.4664 72.6864 20.9566 73.5379 20.9566V21.1114H67.5777C67.0101 21.1114 66.2103 20.905 66.1845 19.7439V18.8409C65.2298 20.647 63.5785 21.4984 61.9272 21.4984ZM64.4816 20.0019C65.3846 20.0019 66.1845 19.0989 66.1845 17.396V7.4366C65.4104 6.71416 64.6622 6.32714 63.9913 6.32714C62.5981 6.32714 61.824 9.1911 61.824 12.6485C61.824 17.912 63.2689 20.0019 64.4816 20.0019Z" fill="white"/>
<path d="M82.3261 21.4726C77.2948 21.4726 73.9406 18.17 73.9406 13.2419C73.9406 8.77828 77.14 5.7595 82.1455 5.7595C87.4606 5.7595 89.9376 8.03004 89.7053 12.0809H79.6428C79.6428 12.2615 79.617 12.4421 79.617 12.6227C79.6686 17.4476 82.1455 20.4405 85.1385 20.4405C86.5834 20.4405 88.1315 19.7181 89.5505 18.17L89.7053 18.3248C87.925 20.4406 85.3965 21.4726 82.3261 21.4726ZM79.6686 11.8229H84.029C84.3902 8.52026 83.513 5.99172 82.3777 5.99172C81.1651 5.99172 79.8234 8.75248 79.6686 11.8229Z" fill="white"/>
<path d="M92.4391 21.1114H89.6009V20.9566C90.504 20.9566 91.3554 20.4147 91.3554 19.3569V9.29431C91.3554 8.64927 91.0716 7.74622 89.9363 7.74622H89.6009V7.59141C91.5618 7.59141 95.8707 8.13324 97.264 6.19813H97.4188V10.6618C98.6056 7.3592 100.463 5.6821 102.76 5.7595C104.205 5.7595 104.85 6.79156 104.85 7.82362C104.85 8.85568 104.153 9.91354 102.992 9.86194C102.45 9.86194 101.831 9.68133 101.263 9.52652C99.6893 9.1911 98.1412 9.01049 97.4188 11.6164V19.3569C97.4188 20.4147 98.2444 20.9566 99.0959 20.9566V21.1114H96.4641C95.1741 21.1114 94.8644 20.8276 94.4516 20.8276C94.0646 20.8276 93.7034 21.1114 92.4391 21.1114Z" fill="white"/>
</svg>
