<svg width="42" height="41" viewBox="0 0 42 41" fill="none" xmlns="http://www.w3.org/2000/svg">
<path d="M36.7142 0.142853C39.2783 0.142853 41.3566 2.22142 41.3568 4.78543V36.2141C41.3568 38.7784 39.2784 40.8567 36.7142 40.8567H5.28546C2.72145 40.8566 0.642883 38.7783 0.642883 36.2141V4.78543C0.643034 2.22149 2.72152 0.143004 5.28546 0.142853H36.7142ZM5.28546 3.14285C4.37837 3.143 3.64303 3.87834 3.64288 4.78543V36.2141C3.64288 37.1214 4.37826 37.8566 5.28546 37.8567H36.7142C37.6215 37.8567 38.3568 37.1215 38.3568 36.2141V4.78543C38.3566 3.87823 37.6214 3.14285 36.7142 3.14285H5.28546ZM20.9993 7.99832C27.9033 7.99832 33.5009 13.5954 33.5013 20.4993V22.0706C33.5013 24.635 31.422 26.714 28.8577 26.7141C27.4108 26.7141 26.1185 26.0525 25.2669 25.0149C24.7172 25.5344 24.0779 25.9506 23.3782 26.2405C22.6243 26.5528 21.8153 26.7141 20.9993 26.7141C20.1835 26.714 19.3751 26.5527 18.6214 26.2405C17.8678 25.9282 17.1826 25.4707 16.6058 24.8938C16.0289 24.3169 15.5704 23.632 15.2581 22.8782C14.9459 22.1243 14.7855 21.3152 14.7855 20.4993C14.7856 19.6835 14.9459 18.8751 15.2581 18.1214C15.5704 17.3675 16.0288 16.6827 16.6058 16.1057C17.1828 15.5288 17.8675 15.0704 18.6214 14.7581C19.3751 14.4459 20.1835 14.2855 20.9993 14.2854C21.8153 14.2854 22.6244 14.4459 23.3782 14.7581C24.132 15.0703 24.8169 15.5289 25.3939 16.1057C25.9707 16.6826 26.4283 17.3677 26.7405 18.1214C27.0527 18.8751 27.2141 19.6835 27.2142 20.4993V22.0706C27.2142 22.9781 27.9502 23.7141 28.8577 23.7141C29.7652 23.714 30.5013 22.9781 30.5013 22.0706V20.4993C30.5009 15.2522 26.2465 10.9983 20.9993 10.9983C15.7523 10.9985 11.4987 15.2524 11.4984 20.4993C11.4984 25.7465 15.7521 30.001 20.9993 30.0013C22.2994 30.0013 23.5351 29.7407 24.6595 29.2708L24.804 29.218C25.5314 28.9972 26.3227 29.3601 26.6224 30.0764C26.9415 30.8407 26.5809 31.7189 25.8167 32.0384C24.3321 32.6589 22.7036 33.0013 20.9993 33.0013C14.0953 33.001 8.49835 27.4034 8.49835 20.4993C8.49873 13.5955 14.0955 7.99854 20.9993 7.99832ZM20.9993 17.2854C20.5775 17.2855 20.1596 17.3691 19.7698 17.5305C19.3799 17.6921 19.0253 17.9284 18.7269 18.2268C18.4284 18.5253 18.1921 18.8799 18.0306 19.2698C17.8691 19.6596 17.7856 20.0774 17.7855 20.4993C17.7855 20.9213 17.8691 21.3399 18.0306 21.7298C18.1921 22.1196 18.4286 22.4744 18.7269 22.7727C19.0252 23.0711 19.38 23.3075 19.7698 23.469C20.1596 23.6305 20.5775 23.714 20.9993 23.7141C21.4214 23.7141 21.8399 23.6305 22.2298 23.469C22.6197 23.3075 22.9743 23.0712 23.2728 22.7727C23.5712 22.4743 23.8075 22.1197 23.9691 21.7298C24.1306 21.3398 24.2142 20.9214 24.2142 20.4993C24.2141 20.0774 24.1305 19.6596 23.9691 19.2698C23.8075 18.88 23.5711 18.5252 23.2728 18.2268C22.9744 17.9285 22.6196 17.692 22.2298 17.5305C21.8399 17.3691 21.4213 17.2854 20.9993 17.2854Z" fill="#C30B0D"/>
</svg>
