<svg xmlns="http://www.w3.org/2000/svg" fill="none" viewBox="0 0 24 24"><path fill="#000" fill-rule="evenodd" d="M5 11a7 7 0 0 1 14 0c0 2.625-1.547 5.138-3.354 7.066a17 17 0 0 1-2.55 2.242 8 8 0 0 1-.924.577 3 3 0 0 1-.172.083 3 3 0 0 1-.172-.083 8 8 0 0 1-.923-.577 17 17 0 0 1-2.55-2.242C6.547 16.138 5 13.625 5 11Zm6.882 10.012Zm.232-.001h-.003l.007.001-.004-.001ZM12 2a9 9 0 0 0-9 9c0 3.375 1.953 6.362 3.895 8.434a19 19 0 0 0 2.856 2.508c.425.3.82.545 1.159.72.168.087.337.164.498.222.14.05.356.116.592.116s.451-.066.592-.116c.16-.058.33-.135.498-.222.339-.175.734-.42 1.159-.72.85-.6 1.87-1.457 2.856-2.508C19.047 17.362 21 14.375 21 11a9 9 0 0 0-9-9ZM7.38 9.927c2.774-.094 3.459 1.31 3.591 3.19a.89.89 0 0 1-.855.956c-2.774.094-3.458-1.31-3.59-3.19a.89.89 0 0 1 .854-.956Zm9.236 0c-2.774-.094-3.458 1.31-3.59 3.19a.89.89 0 0 0 .854.956c2.774.094 3.459-1.31 3.591-3.19a.89.89 0 0 0-.855-.956Z" clip-rule="evenodd"/></svg>
