<?xml version="1.0" encoding="UTF-8"?>
<!-- Generated by Pixelmator Pro 3.6.5 -->
<svg width="300" height="300" viewBox="0 0 576 576" xmlns="http://www.w3.org/2000/svg">
    <path id="path1" fill="#000000" fill-rule="evenodd" stroke="none" d="M 98.612198 76 L 206.924072 76 C 238.405853 76 238.405853 123.222687 206.924072 123.222687 L 122.223541 123.222687 L 122.223541 453.781494 L 206.924072 453.781494 C 238.405853 453.781494 238.405853 501.004181 206.924072 501.004181 L 98.612198 501.004181 C 85.572014 501.004181 75.000854 490.433563 75.000854 477.392853 L 75.000854 99.611359 C 75.003632 86.602325 85.603714 76.002869 98.612198 76 Z M 353.449432 165.558533 C 362.669678 156.339661 377.615631 156.339661 386.835876 165.558533 L 493.086945 271.80957 C 502.304352 281.028442 502.304352 295.975739 493.086945 305.194611 L 386.835876 411.447083 C 364.581573 432.940002 331.955505 400.314453 353.449432 378.060608 L 419.395935 312.113434 L 210.766083 312.113434 C 179.284302 312.113434 179.284302 264.890747 210.766083 264.890747 L 419.395935 264.890747 L 353.449432 198.943573 C 344.231995 189.724701 344.231995 174.777374 353.449432 165.558533 Z"/>
</svg>
