<?xml version="1.0" encoding="UTF-8"?>
<!-- Generated by Pixelmator Pro 3.6.5 -->
<svg width="300" height="300" viewBox="0 0 576 576" xmlns="http://www.w3.org/2000/svg">
    <path id="path1" fill="#000000" fill-rule="evenodd" stroke="none" d="M 304.279358 82.91452 C 295.059143 73.695648 280.113159 73.695648 270.892914 82.91452 L 164.641846 189.165588 C 143.147888 211.419403 175.773956 244.044983 198.02829 222.550629 L 263.974792 156.604858 L 263.974792 365.234741 C 263.974792 396.716064 311.19751 396.716064 311.19751 365.234741 L 311.19751 156.604858 L 377.144012 222.550629 C 399.398193 245.592743 433.571899 211.419403 410.530457 189.165588 Z M 122.176025 368.052124 C 122.128098 336.570801 74.915703 336.570801 74.953323 368.052124 L 75.083984 477.388641 C 75.099564 490.429382 85.655144 501 98.695335 501 L 476.476959 501 C 489.51712 501 500.103882 490.429382 500.088318 477.388641 L 499.958435 368.052124 C 499.920685 336.570801 452.687744 336.570801 452.735718 368.052124 L 452.865601 453.777283 L 122.306686 453.777283 Z"/>
</svg>
