<svg xmlns="http://www.w3.org/2000/svg" fill="none" viewBox="0 0 24 24"><path fill="#000" fill-rule="evenodd" d="M6.17 5.004c-.553-.029-.814.107-.937.23-.122.122-.258.383-.23.936.03.552.222 1.28.611 2.15.282.628.655 1.304 1.112 2.005a28 28 0 0 1 1.72-1.88 28 28 0 0 1 1.88-1.719 15 15 0 0 0-2.007-1.112c-.868-.39-1.597-.581-2.15-.61Zm5.83.44c-.985-.688-1.953-1.247-2.863-1.655-.998-.447-1.978-.736-2.863-.782s-1.791.148-2.455.812-.859 1.57-.812 2.455.335 1.865.782 2.863c.408.91.967 1.878 1.655 2.863-.688.985-1.247 1.953-1.655 2.863-.447.998-.736 1.978-.782 2.863s.148 1.791.812 2.455c.664.663 1.57.859 2.455.812s1.865-.335 2.863-.782c.91-.408 1.878-.967 2.863-1.655.985.688 1.952 1.247 2.863 1.655.998.447 1.978.736 2.863.782s1.791-.148 2.455-.812c.663-.664.859-1.57.812-2.455s-.335-1.865-.782-2.863c-.408-.91-.967-1.878-1.655-2.863.688-.985 1.247-1.952 1.655-2.863.447-.998.736-1.978.782-2.863s-.148-1.791-.812-2.455-1.57-.859-2.455-.812-1.865.335-2.863.782c-.91.408-1.878.967-2.863 1.655Zm0 2.497A26 26 0 0 0 9.86 9.86 26 26 0 0 0 7.94 12a26 26 0 0 0 1.92 2.14A26 26 0 0 0 12 16.06a26 26 0 0 0 2.14-1.92A26 26 0 0 0 16.06 12a26 26 0 0 0-1.92-2.14A26 26 0 0 0 12 7.94Zm5.274 2.384a28 28 0 0 0-1.72-1.88 28 28 0 0 0-1.88-1.719 15 15 0 0 1 2.007-1.112c.868-.39 1.597-.581 2.15-.61s.813.107.936.23c.123.122.258.383.23.936-.03.552-.222 1.28-.611 2.15a15 15 0 0 1-1.112 2.005Zm0 3.35a28 28 0 0 1-1.72 1.88 28 28 0 0 1-1.88 1.719c.702.457 1.378.83 2.007 1.112.868.39 1.597.581 2.15.61s.813-.106.936-.23c.123-.122.258-.383.23-.935-.03-.553-.222-1.282-.611-2.15a15 15 0 0 0-1.112-2.006Zm-6.949 3.599a28 28 0 0 1-1.88-1.72 28 28 0 0 1-1.719-1.88 15 15 0 0 0-1.112 2.007c-.39.868-.581 1.597-.61 2.15s.107.813.23.936c.122.123.383.258.936.23.552-.03 1.28-.222 2.15-.611a15 15 0 0 0 2.005-1.112Z" clip-rule="evenodd"/></svg>
