<svg xmlns="http://www.w3.org/2000/svg" fill="none" viewBox="0 0 24 24"><path fill="#000" fill-rule="evenodd" d="M2.293 2.293a1 1 0 0 1 1.414 0l18 18a1 1 0 0 1-1.414 1.414L17.586 19h-.94c-.904 1.748-2.607 3-4.646 3s-3.742-1.252-4.646-3H4a1 1 0 0 1-.991-1.132l1.207-9.053c.116-.87.372-1.69.743-2.442L2.293 3.707a1 1 0 0 1 0-1.414Zm4.19 5.604q-.202.565-.285 1.183L5.142 17h10.444L6.483 7.897ZM9.778 19c.61.637 1.399 1 2.222 1s1.613-.363 2.222-1H9.778ZM8.834 2.666a7.853 7.853 0 0 1 10.95 6.15l.645 4.832a1 1 0 0 1-1.983.265l-.644-4.833A5.853 5.853 0 0 0 9.64 4.495a1 1 0 0 1-.807-1.83Z" clip-rule="evenodd"/></svg>
