<svg xmlns="http://www.w3.org/2000/svg" fill="none" viewBox="0 0 24 24"><path fill="#000" fill-rule="evenodd" d="M4.702 8.943a7.307 7.307 0 0 1 14.596 0l.19 3.798 1.321 2.641A1.809 1.809 0 0 1 19.191 18H16.9a5.002 5.002 0 0 1-9.8 0H4.809a1.809 1.809 0 0 1-1.618-2.618l1.32-2.641.19-3.798ZM9.17 18a3.001 3.001 0 0 0 5.658 0H9.171ZM12 4a5.307 5.307 0 0 0-5.3 5.042l-.19 3.798a2 2 0 0 1-.21.795L5.119 16h13.764l-1.183-2.365a2 2 0 0 1-.208-.795l-.19-3.798A5.308 5.308 0 0 0 12 4Z" clip-rule="evenodd"/></svg>
