<svg xmlns="http://www.w3.org/2000/svg" fill="none" viewBox="0 0 24 24"><path fill="#000" d="M12 2a7.854 7.854 0 0 1 7.785 6.815l1.055 7.92.018.224a2 2 0 0 1-2 2.041h-2.215c-.904 1.747-2.605 3-4.643 3s-3.739-1.253-4.643-3H5.142a2 2 0 0 1-1.982-2.265l1.056-7.92.057-.363A7.854 7.854 0 0 1 12 2ZM9.78 19c.609.637 1.398 1 2.22 1s1.611-.363 2.22-1H9.78ZM12 4a5.854 5.854 0 0 0-5.76 4.81l-.041.27L5.142 17h13.716l-1.056-7.92A5.854 5.854 0 0 0 12 4ZM2.718 7.464a1 1 0 1 1-1.953-.427l1.953.427Zm20.518-.427a1 1 0 0 1-1.954.427l1.954-.427ZM3.193 2.105a1 1 0 0 1 1.531 1.287 9.5 9.5 0 0 0-2.006 4.072L.765 7.037a11.46 11.46 0 0 1 2.428-4.932Zm16.205-.123a1 1 0 0 1 1.34.047l.069.076.217.265a11.46 11.46 0 0 1 2.212 4.667l-.978.213-.976.214a9.46 9.46 0 0 0-1.826-3.853l-.18-.22-.062-.081a1 1 0 0 1 .184-1.328Z"/></svg>
