<svg xmlns="http://www.w3.org/2000/svg" fill="none" viewBox="0 0 24 24"><path fill="#000" d="M12 2a7.854 7.854 0 0 1 7.784 6.815l1.207 9.053a1 1 0 0 1-.99 1.132h-3.354c-.904 1.748-2.608 3-4.647 3-2.038 0-3.742-1.252-4.646-3H4a1.002 1.002 0 0 1-.991-1.132l1.207-9.053A7.85 7.85 0 0 1 12 2ZM9.78 19c.608.637 1.398 1 2.221 1s1.613-.363 2.222-1H9.779ZM3.193 2.104a1 1 0 0 1 1.53 1.288A9.5 9.5 0 0 0 2.72 7.464a1 1 0 0 1-1.954-.427 11.46 11.46 0 0 1 2.428-4.933Zm16.205-.122a1 1 0 0 1 1.409.122 11.5 11.5 0 0 1 2.429 4.933 1 1 0 0 1-1.954.427 9.5 9.5 0 0 0-2.006-4.072 1 1 0 0 1 .122-1.41Z"/></svg>
