<svg xmlns="http://www.w3.org/2000/svg" fill="none" viewBox="0 0 24 24"><path fill="#000" fill-rule="evenodd" d="m12 .757 2.122 2.122A3 3 0 0 1 13 7.829V9h4.5a3 3 0 0 1 3 3v1.646a3 3 0 0 1-.5 1.658V19a3 3 0 0 1-3 3H7a3 3 0 0 1-3-3v-3.696a3 3 0 0 1-.5-1.658V12a3 3 0 0 1 3-3H11V7.829a3 3 0 0 1-1.121-4.95L12 .757ZM6.5 11a1 1 0 0 0-1 1v1.646a1 1 0 0 0 .629.928l.5.2a1 1 0 0 0 .742 0l1.015-.405a3 3 0 0 1 2.228 0l1.015.405a1 1 0 0 0 .742 0l1.015-.405a3 3 0 0 1 2.228 0l1.015.405a1 1 0 0 0 .742 0l.5-.2a1 1 0 0 0 .629-.928V12a1 1 0 0 0-1-1h-11ZM6 16.674V19a1 1 0 0 0 1 1h10a1 1 0 0 0 1-1v-2.326a3 3 0 0 1-2.114-.043l-1.015-.405a1 1 0 0 0-.742 0l-1.015.405a3 3 0 0 1-2.228 0l-1.015-.405a1 1 0 0 0-.742 0l-1.015.405A3 3 0 0 1 6 16.674ZM12.002 6a1 1 0 0 0 .706-1.707L12 3.586l-.707.707A1 1 0 0 0 12.002 6Z" clip-rule="evenodd"/></svg>
