<svg xmlns="http://www.w3.org/2000/svg" fill="none" viewBox="0 0 448 90"><path fill="#F0F2F5" fill-rule="evenodd" d="M49.5 40.389c-4.483-9.147-16.69-26.193-28.04-34.6C13.27-.277 0-4.971 0 9.964c0 2.983 1.733 25.057 2.75 28.641 3.534 12.46 16.41 15.637 27.866 13.714C10.593 55.68 5.5 66.817 16.5 77.953c20.891 21.15 30.026-5.307 32.367-12.086.43-1.242.63-1.824.633-1.33.003-.494.204.088.633 1.33 2.34 6.78 11.476 33.235 32.367 12.086 11-11.136 5.907-22.273-14.116-25.635 11.455 1.924 24.332-1.254 27.866-13.713C97.267 35.021 99 12.947 99 9.965 99-4.972 85.73-.278 77.54 5.788c-11.35 8.407-23.557 25.453-28.04 34.6Zm107.33.725c6.787 2.477 10.39 8.198 10.39 14.602 0 10.844-7.122 17.418-20.78 17.418h-27.901V12.34h26.98c12.987 0 19.271 6.746 19.271 15.711 0 5.977-2.681 10.332-7.96 13.064Zm-12.149-19.297H129.85V37.7h14.831c5.781 0 8.881-3.074 8.881-8.197 0-4.696-3.184-7.685-8.881-7.685ZM129.85 63.571h16.004c6.368 0 9.803-2.988 9.803-8.368q0-8.453-9.803-8.453H129.85v16.821Zm53.053 9.563h-10.557V12.34h10.557v60.795Zm35.005-44.059v24.677c0 7.258-4.525 11.1-9.636 11.1-5.446 0-8.127-2.818-8.127-8.368V29.075h-10.558v29.202c0 10.246 5.949 15.882 15.082 15.882q8.673 0 13.574-7.428v6.403h10.222V29.075h-10.557Zm58.611 22.798v2.562h-32.342c.754 7.6 4.86 11.356 11.228 11.356 4.859 0 8.127-2.134 9.887-6.318h10.138c-2.262 8.965-9.803 14.686-20.109 14.686-6.452 0-11.646-2.135-15.585-6.319s-5.948-9.734-5.948-16.735c0-6.917 1.927-12.467 5.865-16.736 3.938-4.184 9.049-6.319 15.5-6.319 6.536 0 11.731 2.22 15.585 6.575s5.781 10.161 5.781 17.248ZM255.07 36.418c-5.782 0-9.804 3.416-10.809 10.503h21.701c-.922-6.404-4.776-10.503-10.892-10.503Zm25.075 22.713c.586 10.161 7.205 15.199 19.773 15.199 12.15 0 19.188-4.953 19.188-13.833 0-7.514-4.525-11.442-14.998-13.405l-5.446-.854c-5.028-.94-7.206-2.306-7.206-5.38q0-5.123 7.541-5.123c5.781 0 8.881 1.879 9.133 7.258h9.97c-.419-9.99-6.787-14.943-19.103-14.943-11.479 0-17.931 5.038-17.931 13.32 0 7.259 4.692 11.699 14.16 13.321l4.944.854c6.451 1.11 8.462 2.647 8.462 5.806 0 3.5-2.849 5.294-8.546 5.294-6.368 0-9.049-2.05-9.636-7.514h-10.305Zm85.298 14.003h-12.066l-12.568-20.492-6.536 6.66v13.832h-10.389V12.34h10.389v35.009l17.596-18.273h23.801l3.519 11.015a419 419 0 0 1 6.871 24.591c1.843-7.002 4.189-15.199 6.954-24.506l3.519-11.1h11.06l-16.674 47.646c-1.759 4.867-3.938 8.367-6.703 10.331s-6.703 2.904-11.898 2.904c-1.759 0-3.267-.086-4.608-.257v-8.453h4.022c4.776 0 7.122-2.988 7.122-7.087 0-2.05-.67-5.038-2.011-8.88l-12.526-36.082-16.219 16.528 17.345 27.41ZM424.5 29h10v13.5H448v10h-13.5V66h-10V52.5H411v-10h13.5V29Z" clip-rule="evenodd"/></svg>
