<svg xmlns="http://www.w3.org/2000/svg" fill="none" viewBox="0 0 330 78"><path fill="#F0F2F5" fill-rule="evenodd" d="M48.68 43.716c0-6.404-3.602-12.125-10.389-14.602 5.279-2.732 7.96-7.087 7.96-13.064C46.251 7.085 39.967.34 26.98.34H0v60.794h27.901c13.658 0 20.78-6.574 20.78-17.418ZM11.313 9.817h14.83c5.697 0 8.881 2.989 8.881 7.685 0 5.123-3.1 8.197-8.881 8.197h-14.83V9.817Zm16.003 41.754H11.312V34.75h16.003q9.803 0 9.803 8.453c0 5.38-3.435 8.368-9.803 8.368Zm26.492 9.564h10.557V.339H53.807v60.796ZM99.37 41.752V17.075h10.557v44.06H99.704V54.73q-4.901 7.428-13.574 7.428c-9.133 0-15.082-5.635-15.082-15.882V17.075h10.558v27.41c0 5.55 2.68 8.367 8.127 8.367 5.111 0 9.636-3.842 9.636-11.1Zm58.611.683v-2.562c0-7.087-1.927-12.893-5.781-17.248s-9.049-6.575-15.585-6.575c-6.451 0-11.562 2.135-15.5 6.319-3.938 4.27-5.865 9.82-5.865 16.736 0 7.001 2.01 12.552 5.948 16.736 3.938 4.183 9.133 6.318 15.585 6.318 10.306 0 17.847-5.72 20.109-14.686h-10.138c-1.76 4.184-5.027 6.318-9.887 6.318-6.368 0-10.474-3.757-11.228-11.356h32.342Zm-32.258-7.514c1.006-7.087 5.027-10.503 10.809-10.503 6.116 0 9.97 4.099 10.892 10.503h-21.701ZM181.38 62.33c-12.568 0-19.187-5.038-19.774-15.199h10.306c.587 5.465 3.268 7.514 9.636 7.514 5.698 0 8.546-1.793 8.546-5.294 0-3.16-2.01-4.696-8.462-5.806l-4.944-.854c-9.468-1.622-14.16-6.063-14.16-13.32 0-8.283 6.452-13.32 17.931-13.32 12.316 0 18.685 4.952 19.104 14.942h-9.972c-.251-5.38-3.351-7.258-9.132-7.258q-7.541 0-7.541 5.123c0 3.074 2.178 4.44 7.206 5.38l5.446.854c10.473 1.963 14.998 5.891 14.998 13.405 0 8.88-7.038 13.833-19.188 13.833Zm53.459-1.195h12.065l-17.343-27.41 16.218-16.528 12.526 36.082c1.341 3.842 2.011 6.83 2.011 8.88 0 4.099-2.346 7.087-7.122 7.087h-4.022V77.7c1.341.17 2.849.256 4.608.256 5.195 0 9.133-.94 11.898-2.904s4.944-5.464 6.703-10.331l16.674-47.646h-11.06l-3.519 11.1c-2.765 9.307-5.111 17.504-6.954 24.506a419 419 0 0 0-6.871-24.591l-3.519-11.015H233.33l-17.596 18.273V.339h-10.389v60.796h10.389V47.302l6.536-6.66 12.568 20.492ZM305.961 17h10v13.5h13.5v10h-13.5V54h-10V40.5h-13.5v-10h13.5V17Z" clip-rule="evenodd"/></svg>
