<svg xmlns="http://www.w3.org/2000/svg" fill="none" viewBox="0 0 24 24"><path fill="#000" d="M12 2a1 1 0 0 1 1 1v2h3.2l1.113.005c.975.015 1.568.077 2.05.322a3 3 0 0 1 1.31 1.31C21 7.28 21 8.12 21 9.8v.287a1.498 1.498 0 0 1-.005 2.827c-.006 2.204-.058 3.41-.54 4.356l-.093.174a5 5 0 0 1-2.092 2.011l-.205.096c-.766.33-1.72.417-3.21.44L13 20h-2l-1.854-.009c-1.49-.023-2.445-.11-3.211-.44l-.205-.096a5 5 0 0 1-2.185-2.185c-.409-.803-.51-1.79-.536-3.415l-.005-.94A1.498 1.498 0 0 1 3 10.086V9.8c0-1.575 0-2.412.27-3.04l.057-.122a3 3 0 0 1 1.105-1.196l.206-.115C5.279 5 6.12 5 7.8 5H11V3a1 1 0 0 1 1-1M7.8 7c-.873 0-1.408.002-1.808.034a3 3 0 0 0-.367.051l-.063.018-.016.006a1 1 0 0 0-.437.437l-.006.016-.018.063a3 3 0 0 0-.05.367C5.001 8.392 5 8.927 5 9.8V12c0 1.433.002 2.388.062 3.121.058.71.16 1.036.265 1.241a3 3 0 0 0 1.31 1.31c.207.106.532.209 1.242.267.733.06 1.688.061 3.121.061h2c1.433 0 2.388-.002 3.121-.061.71-.058 1.036-.161 1.241-.266a3 3 0 0 0 1.31-1.31c.106-.206.209-.532.267-1.242.06-.733.061-1.688.061-3.121V9.8c0-.873-.002-1.408-.034-1.808a2.5 2.5 0 0 0-.051-.367l-.017-.063-.007-.016a1 1 0 0 0-.437-.437l-.015-.006-.064-.018a3 3 0 0 0-.367-.05C17.608 7.001 17.073 7 16.2 7zM9 10a1 1 0 0 1 1 1v2a1 1 0 1 1-2 0v-2a1 1 0 0 1 1-1m6 0a1 1 0 0 1 1 1v2a1 1 0 1 1-2 0v-2a1 1 0 0 1 1-1"/></svg>
