<?xml version="1.0" encoding="UTF-8"?>
<!-- Generated by Pixelmator Pro 3.6.5 -->
<svg width="300" height="300" viewBox="0 0 576 576" xmlns="http://www.w3.org/2000/svg">
    <path id="path1" fill="#000000" fill-rule="evenodd" stroke="none" d="M 57.32803 176.743622 C 57.450138 125.522064 98.667519 84 149.662369 84 L 426.665405 84 C 477.660248 84 519.121765 125.522064 518.999756 176.743622 L 518.634521 329.999298 C 518.512207 381.220856 477.295013 422.74292 426.300171 422.74292 L 294.215942 422.74292 L 184.291885 489.009003 C 168.894363 498.324982 149.27179 487.170715 149.29718 469.114746 L 149.29718 422.74292 C 98.30233 422.74292 56.840771 381.220856 56.962837 329.999298 Z M 149.662369 130.371826 C 124.16494 130.371826 103.556229 151.133545 103.495193 176.743622 L 103.129967 329.999298 C 103.069023 355.610779 123.799713 376.371124 149.297134 376.371124 L 172.380722 376.371124 C 185.129425 376.371124 195.46431 386.752686 195.46431 399.557007 L 195.46431 428.16864 L 275.933685 379.664185 C 279.519073 377.507507 283.619873 376.36969 287.798645 376.371124 L 426.30014 376.371124 C 451.797577 376.371124 472.406281 355.610779 472.467316 329.999298 L 472.83255 176.743622 C 472.892578 151.133545 452.162781 130.371826 426.665405 130.371826 Z"/>
</svg>
