<svg xmlns="http://www.w3.org/2000/svg" fill="none" viewBox="0 0 24 24"><path fill="#000" fill-rule="evenodd" d="M6.002 5h12a1 1 0 0 1 1 1v10.036a1 1 0 0 1-1 1h-2.626a2 2 0 0 0-1.276.46l-2.098 1.738-2.065-1.731a2 2 0 0 0-1.285-.467h-2.65a1 1 0 0 1-1-1V6a1 1 0 0 1 1-1Zm12-2h-12a3 3 0 0 0-3 3v10.036a3 3 0 0 0 3 3h2.65l2.704 2.266a1 1 0 0 0 1.28.004l2.74-2.27h2.626a3 3 0 0 0 3-3V6a3 3 0 0 0-3-3ZM13 11.75a1 1 0 1 0-2 0v2a1 1 0 1 0 2 0v-2ZM12 10a1.25 1.25 0 1 1 0-2.5 1.25 1.25 0 0 1 0 2.5Z" clip-rule="evenodd"/></svg>
