<svg xmlns="http://www.w3.org/2000/svg" fill="none" viewBox="0 0 24 24"><path fill="#000" fill-rule="evenodd" d="M5.002 17.036V5h14v12.036h-3.986a1 1 0 0 0-.639.23l-2.375 1.968-2.344-1.965a1 1 0 0 0-.643-.233H5.002ZM20.002 3h-16a1 1 0 0 0-1 1v14.036a1 1 0 0 0 1 1h4.65l2.704 2.266a1 1 0 0 0 1.28.004l2.74-2.27h4.626a1 1 0 0 0 1-1V4a1 1 0 0 0-1-1Zm-7.878 3.663c-1.39 0-2.5 1.135-2.5 2.515a1 1 0 0 0 2 0c0-.294.232-.515.5-.515a.507.507 0 0 1 .489.6.2.2 0 0 1-.027.048 1.1 1.1 0 0 1-.267.226c-.508.345-1.128.923-1.286 1.978a1 1 0 1 0 1.978.297.76.76 0 0 1 .14-.359c.063-.086.155-.169.293-.262.436-.297 1.18-.885 1.18-2.013 0-1.38-1.11-2.515-2.5-2.515ZM12 15.75a1.25 1.25 0 1 1 0-2.5 1.25 1.25 0 0 1 0 2.5Z" clip-rule="evenodd"/></svg>
