<?xml version="1.0" encoding="UTF-8"?>
<!-- Generated by Pixelmator Pro 3.6.5 -->
<svg width="300" height="300" viewBox="0 0 576 576" xmlns="http://www.w3.org/2000/svg">
    <path id="path1" fill="#000000" fill-rule="evenodd" stroke="none" d="M 58.444416 155.083038 C 58.726849 116.930786 89.373947 86 127.527458 86 L 449.91507 86 C 488.068542 86 519.280518 116.930786 518.998108 155.083038 L 517.53302 352.99408 C 517.250793 391.146332 486.603516 422.077118 448.450012 422.077118 L 293.657928 422.077118 L 184.000092 487.889587 C 168.639862 497.143372 149.064804 486.063843 149.090134 468.132507 L 149.090134 422.077118 L 126.062447 422.077118 C 87.908928 422.077118 56.69696 391.146332 56.979393 352.99408 Z M 127.527458 132.055359 C 114.809624 132.055359 104.593925 142.364685 104.499779 155.083038 L 103.034691 352.99408 C 102.940506 365.711029 113.344536 376.021759 126.06237 376.021759 L 172.117737 376.021759 C 184.835571 376.021759 195.145416 386.331085 195.145416 399.049438 L 195.145416 427.46582 L 275.419952 379.290955 C 278.996613 377.150391 283.087494 376.020355 287.256165 376.021759 L 448.449951 376.021759 C 461.167786 376.021759 471.383514 365.711029 471.477631 352.99408 L 472.942749 155.083038 C 473.03714 142.364685 462.632874 132.055359 449.91507 132.055359 Z"/>
</svg>
