<svg xmlns="http://www.w3.org/2000/svg" fill="none" viewBox="0 0 24 24"><path fill="#000" fill-rule="evenodd" d="M6.002 6a3 3 0 0 1 3-3h10a3 3 0 0 1 3 3v6a3 3 0 0 1-3 3h-1v1a3 3 0 0 1-3 3h-4.24l-4.274 2.374a1 1 0 0 1-1.486-.874V19a3 3 0 0 1-3-3v-6a3 3 0 0 1 3-3h1V6Zm-1 3a1 1 0 0 0-1 1v6a1 1 0 0 0 1 1h1a1 1 0 0 1 1 1v.8l3.015-1.674a1 1 0 0 1 .485-.126h4.5a1 1 0 0 0 1-1v-1.933a1 1 0 0 1 0-.134V10a1 1 0 0 0-1-1h-10Zm13 4v-3a3 3 0 0 0-3-3h-7V6a1 1 0 0 1 1-1h10a1 1 0 0 1 1 1v6a1 1 0 0 1-1 1h-1Z" clip-rule="evenodd"/></svg>
