<svg xmlns="http://www.w3.org/2000/svg" fill="none" viewBox="0 0 24 24"><path fill="#000" fill-rule="evenodd" d="M7.018 6a1 1 0 0 0-.808.412l-.81-.588.809.588L3 10.825V17a1 1 0 1 0 2 0 1 1 0 0 1 1-1h12a1 1 0 0 1 1 1 1 1 0 1 0 2 0v-5.998l-3.22-4.577A1 1 0 0 0 16.962 6H7.018ZM23 11.686V17a3 3 0 0 1-5.83 1H6.83A3.001 3.001 0 0 1 1 17v-5.5a1 1 0 1 1 0-2h.49l3.102-4.265A3 3 0 0 1 7.018 4h9.944a3 3 0 0 1 2.453 1.274l3.104 4.412H23a1 1 0 1 1 0 2ZM5 13a1 1 0 0 1 1-1h2a1 1 0 1 1 0 2H6a1 1 0 0 1-1-1Zm10 0a1 1 0 0 1 1-1h2a1 1 0 1 1 0 2h-2a1 1 0 0 1-1-1Z" clip-rule="evenodd"/></svg>
