<svg xmlns="http://www.w3.org/2000/svg" fill="none" viewBox="0 0 24 24"><path fill="#000" fill-rule="evenodd" d="M13.832 1.014a1 1 0 0 1 1.154.818L14 2l.986-.168v.003l.001.005.002.014.007.045.021.156c.017.13.035.312.048.527.025.42.028 1.01-.082 1.6-.127.69-.447 1.31-.701 1.726a7 7 0 0 1-.498.712l-.01.014-.004.005-.002.001v.002L13 6l.767.642a1 1 0 0 1-1.535-1.282l.002-.003.017-.02a5 5 0 0 0 .324-.47c.198-.325.378-.705.442-1.049.068-.37.071-.78.051-1.12a6 6 0 0 0-.05-.504l-.004-.025m.818-1.155a1 1 0 0 0-.818 1.155Zm5.257 1.545a1 1 0 0 1 .602 1.28l-.45 1.25a1 1 0 0 1-1.882-.678l.45-1.25a1 1 0 0 1 1.28-.602ZM6.524 7.136a2 2 0 0 1 3.294-.732l7.778 7.778a2 2 0 0 1-.732 3.294L4.653 21.91c-1.596.579-3.142-.967-2.563-2.563L6.524 7.136Zm9.658 8.46L8.404 7.818 3.97 20.03l12.212-4.434Zm5.712-8.543a1 1 0 0 1-.447 1.341l-1 .5a1 1 0 1 1-.894-1.788l1-.5a1 1 0 0 1 1.341.447Zm-4.687-.26a1 1 0 0 1 0 1.414l-1 1a1 1 0 1 1-1.414-1.414l1-1a1 1 0 0 1 1.414 0Zm-.206 4.165A1 1 0 0 1 18.042 10L18 11l.042-1 .003.001h.014l.035.003.117.008a7.7 7.7 0 0 1 1.594.306c.423.135.861.352 1.168.516a12 12 0 0 1 .508.288l.032.02.01.006.004.002L21 12l.527-.85a1 1 0 0 1-1.054 1.7l-.005-.003-.023-.014a8 8 0 0 0-.415-.236 5.5 5.5 0 0 0-.835-.374A5.7 5.7 0 0 0 17.973 12l-.015-.002h-.002a1 1 0 0 1-.955-1.041Z" clip-rule="evenodd"/></svg>
