<svg xmlns="http://www.w3.org/2000/svg" fill="none" viewBox="0 0 24 24"><path fill="#000" fill-rule="evenodd" d="M18.535 5.465a5.003 5.003 0 0 0-7.076 0l-.005.005-.752.742a1 1 0 1 1-1.404-1.424l.749-.74a7.003 7.003 0 0 1 9.904 9.905l-.002.003-.737.746a1 1 0 1 1-1.424-1.404l.747-.757a5.003 5.003 0 0 0 0-7.076ZM6.202 9.288a1 1 0 0 1 .01 1.414l-.747.757a5.003 5.003 0 1 0 7.076 7.076l.005-.005.752-.742a1 1 0 1 1 1.404 1.424l-.746.737-.003.002a7.003 7.003 0 0 1-9.904-9.904l.74-.75a1 1 0 0 1 1.413-.009Zm8.505.005a1 1 0 0 1 0 1.414l-4 4a1 1 0 0 1-1.414-1.414l4-4a1 1 0 0 1 1.414 0Z" clip-rule="evenodd"/></svg>
