<svg xmlns="http://www.w3.org/2000/svg" fill="none" viewBox="0 0 24 24"><path fill="#000" d="M14.3 23v-1.1a1 1 0 0 1 2 0V23a1 1 0 1 1-2 0Zm5.243-3.457a1 1 0 0 1 1.414 0l1.1 1.1a1 1 0 1 1-1.414 1.414l-1.1-1.1a1 1 0 0 1 0-1.414ZM4.788 9.298a1 1 0 0 1 1.424 1.404l-.742.752-.004.005a5.003 5.003 0 1 0 7.075 7.075l.005-.004.752-.742a1 1 0 0 1 1.404 1.424l-.747.736a7.003 7.003 0 1 1-9.904-9.904l.737-.746ZM23 14.3a1 1 0 0 1 0 2h-1.1a1 1 0 1 1 0-2H23ZM10.044 4.05a7.005 7.005 0 0 1 9.905 9.906h0l-.737.746a1 1 0 0 1-1.424-1.404l.742-.752.004-.005a5.003 5.003 0 1 0-7.075-7.075l-.005.004-.752.742a1 1 0 0 1-1.404-1.424l.746-.737ZM2.1 7.7a1 1 0 1 1 0 2H1a1 1 0 0 1 0-2h1.1Zm-.157-5.757a1 1 0 0 1 1.414 0l1.1 1.1a1 1 0 1 1-1.414 1.414l-1.1-1.1a1 1 0 0 1 0-1.414ZM7.7 2.1V1a1 1 0 1 1 2 0v1.1a1 1 0 0 1-2 0Z"/></svg>
