<svg xmlns="http://www.w3.org/2000/svg" fill="none" viewBox="0 0 24 24"><path fill="#000" fill-rule="evenodd" d="M2.004 5a1 1 0 0 1 1-1h7a1 1 0 0 1 1 1v8c0 2.585-1.162 4.335-2.316 5.417-.571.536-1.14.91-1.569 1.15a7 7 0 0 1-.738.36l-.016.006-.006.002h-.002l-.001.001L6.004 19l.351.936A1 1 0 0 1 5.004 19v-5h-2a1 1 0 0 1-1-1V5Zm5 12.234q.156-.127.316-.276c.846-.793 1.684-2.043 1.684-3.958V6h-5v6h2a1 1 0 0 1 1 1v4.234Zm6-12.234a1 1 0 0 1 1-1h7a1 1 0 0 1 1 1v8c0 2.585-1.162 4.335-2.316 5.417-.571.536-1.14.91-1.569 1.15a7 7 0 0 1-.738.36l-.016.006-.006.002h-.002l-.001.001-.352-.936.351.936A1 1 0 0 1 16.004 19v-5h-2a1 1 0 0 1-1-1V5Zm5 12.234V13a1 1 0 0 0-1-1h-2V6h5v7c0 1.915-.838 3.165-1.684 3.958q-.16.15-.316.276Z" clip-rule="evenodd"/></svg>
