<svg xmlns="http://www.w3.org/2000/svg" fill="none" viewBox="0 0 24 24"><path fill="#000" fill-rule="evenodd" d="M2.003 5.999a2 2 0 0 1 2-1.999h5c1.104 0 2 .893 2 1.999V13c0 2.585-1.16 4.335-2.315 5.417-.571.536-1.14.91-1.569 1.15a7 7 0 0 1-.738.36l-.016.006-.006.002h-.002l-.001.001L6.004 19l.351.936a1 1 0 0 1-1.351-.935L5 14H4a2 2 0 0 1-2-2.001l.002-6Zm5 11.236L7 12.999A1 1 0 0 0 6 12H4l.003-6h5v7c0 1.915-.837 3.165-1.683 3.958q-.16.15-.317.277Zm6-11.235a2 2 0 0 1 2-2h5c1.104 0 2 .893 2 1.999V13c0 2.585-1.16 4.335-2.315 5.417-.571.536-1.14.91-1.569 1.15a7 7 0 0 1-.738.36l-.016.006-.006.002h-.002l-.001.001-.352-.936.351.936A1 1 0 0 1 16.004 19v-5h-1a2 2 0 0 1-2-2V6Zm7 0h-5v6h2a1 1 0 0 1 1 1v4.234q.158-.127.317-.276c.846-.793 1.684-2.043 1.684-3.958V6Z" clip-rule="evenodd"/></svg>
