<svg xmlns="http://www.w3.org/2000/svg" fill="none" viewBox="0 0 24 24"><path fill="#000" fill-rule="evenodd" d="M4 12c0-4.09 3.527-7.5 8-7.5s8 3.41 8 7.5c0 1.579-.419 2.056-.708 2.236-.388.241-1.031.286-2.058.153-.33-.043-.652-.096-.991-.152l-.531-.087c-.52-.081-1.077-.156-1.61-.164-1.065-.016-2.336.245-2.996 1.567-.418.834-.295 1.67-.078 2.314.18.534.47 1.055.683 1.437v.001l.097.175.01.018C7.432 19.407 4 16.033 4 12Zm8-9.5C6.532 2.5 2 6.7 2 12s4.532 9.5 10 9.5c.401 0 .812-.04 1.166-.193.41-.176.761-.517.866-1.028.085-.416-.03-.796-.118-1.029a6 6 0 0 0-.351-.73l-.12-.215c-.215-.392-.403-.73-.52-1.078-.13-.387-.111-.614-.029-.78.146-.291.404-.473 1.178-.461.385.005.825.06 1.329.14q.226.035.47.077c.36.059.742.122 1.105.17 1.021.132 2.325.213 3.373-.439C21.496 15.22 22 13.874 22 12c0-5.3-4.532-9.5-10-9.5Zm3.5 8.5a1.5 1.5 0 1 0 0-3 1.5 1.5 0 0 0 0 3ZM9 12.25a1.5 1.5 0 1 1-3 0 1.5 1.5 0 0 1 3 0Zm1.5-2.75a1.5 1.5 0 1 0 0-3 1.5 1.5 0 0 0 0 3Z" clip-rule="evenodd"/></svg>
