<svg xmlns="http://www.w3.org/2000/svg" fill="none" viewBox="0 0 24 24"><path fill="#000" d="M7 4a1 1 0 0 0-1 1v12.05q.243-.05.5-.05H18V4H7Zm5 7c.894 0 1.57.188 2.068.513a2.1 2.1 0 0 1 .806.937l.046.12c.285.836-.43 1.43-1.03 1.43h-3.78c-.6 0-1.315-.594-1.03-1.43l.046-.12a2.1 2.1 0 0 1 .806-.937C10.43 11.188 11.106 11 12 11Zm0-4a1.75 1.75 0 1 1 0 3.5A1.75 1.75 0 0 1 12 7Zm8 11a1 1 0 0 1-1 1H6.5a.5.5 0 0 0 0 1H19a1 1 0 1 1 0 2H6.5A2.5 2.5 0 0 1 4 19.5V5a3 3 0 0 1 3-3h11a2 2 0 0 1 2 2v14Z"/></svg>
