<svg xmlns="http://www.w3.org/2000/svg" fill="none" viewBox="0 0 24 24"><path fill="#000" fill-rule="evenodd" d="M4.4 9.493C4.14 10.28 4 11.124 4 12a8 8 0 1 0 10.899-7.459l-.67 2.679a2.95 2.95 0 0 1-2.14 2.142l-2.173.547a.32.32 0 0 0-.205.164 2.316 2.316 0 0 1-3.457.81L4.4 9.493Zm.883-1.84 2.171 1.63a.315.315 0 0 0 .471-.11c.303-.6.851-1.04 1.503-1.204l2.174-.546a.95.95 0 0 0 .687-.688l.97.242-.97-.242.67-2.678a7.99 7.99 0 0 0-7.676 3.597ZM2 12C2 6.477 6.477 2 12 2s10 4.477 10 10-4.477 10-10 10S2 17.523 2 12Zm8.048.543a2.2 2.2 0 0 1 1.69-.636l.827.053c.52.033 1.023.204 1.456.495l1.37.921a2.453 2.453 0 0 1-1.367 4.489h-.98a2.95 2.95 0 0 1-2.45-1.312L9.77 15.32a2.2 2.2 0 0 1 .278-2.776Zm1.563 1.36a.197.197 0 0 0-.177.306l.823 1.235c.176.263.471.42.787.42h.98a.453.453 0 0 0 .252-.828l-1.37-.921a.95.95 0 0 0-.468-.159l-.827-.053Z" clip-rule="evenodd"/></svg>
