<svg xmlns="http://www.w3.org/2000/svg" fill="none" viewBox="0 0 24 24"><path fill="#000" d="M3 16.782v-9.64c0-.546-.001-1.015.03-1.4.033-.397.105-.792.299-1.172a3 3 0 0 1 1.315-1.316c.38-.194.775-.266 1.172-.298.386-.032.856-.03 1.402-.03h3.815a1.004 1.004 0 1 1 0 2.008H7.218c-.58 0-.953 0-1.238.023-.273.023-.374.06-.424.086a1 1 0 0 0-.438.439c-.025.05-.063.15-.085.424a17 17 0 0 0-.025 1.236v9.64c0 .58.002.953.025 1.238.022.272.06.374.085.424.096.188.25.342.438.438.05.025.151.063.424.085.285.023.659.025 1.238.025h9.639c.579 0 .953-.002 1.238-.025.272-.022.373-.06.423-.085.189-.096.342-.25.438-.438.026-.05.063-.152.086-.424.023-.285.024-.659.024-1.238v-3.815a1.004 1.004 0 1 1 2.009 0v3.815c0 .546 0 1.016-.03 1.4-.033.398-.106.793-.299 1.173a3 3 0 0 1-1.316 1.317c-.38.193-.775.264-1.172.297-.385.031-.855.031-1.401.031h-9.64c-.545 0-1.015 0-1.4-.031-.398-.033-.793-.104-1.173-.297a3 3 0 0 1-1.315-1.317c-.194-.38-.266-.775-.299-1.172-.031-.385-.03-.855-.03-1.4m13.685-13.9a3.01 3.01 0 0 1 4.26 0l.173.172a3.013 3.013 0 0 1 0 4.26l-8.077 8.077a2 2 0 0 1-1.42.588H9.026c-.555 0-1.004-.45-1.004-1.004V12.38c0-.533.211-1.044.588-1.42zM10.03 13.971h1.592l8.077-8.076a1.004 1.004 0 0 0 0-1.42l-.173-.173a1.004 1.004 0 0 0-1.42 0L10.03 12.38z"/></svg>
