<svg xmlns="http://www.w3.org/2000/svg" fill="none" viewBox="0 0 24 24"><path fill="#000" fill-rule="evenodd" d="M6.343 6.343a8 8 0 1 1 11.314 11.314A8 8 0 0 1 6.343 6.343ZM19.071 4.93c-3.905-3.905-10.237-3.905-14.142 0s-3.905 10.237 0 14.142 10.237 3.905 14.142 0 3.905-10.237 0-14.142Zm-3.537 9.535a5 5 0 0 0-7.07 0 1 1 0 1 0 1.413 1.415 3 3 0 0 1 4.243 0 1 1 0 0 0 1.414-1.415ZM16 9.5c0 .828-.56 1.5-1.25 1.5s-1.25-.672-1.25-1.5.56-1.5 1.25-1.5S16 8.672 16 9.5ZM9.25 11c.69 0 1.25-.672 1.25-1.5S9.94 8 9.25 8 8 8.672 8 9.5 8.56 11 9.25 11Z" clip-rule="evenodd"/></svg>
