<svg xmlns="http://www.w3.org/2000/svg" fill="none" viewBox="0 0 24 24"><path fill="#000" fill-rule="evenodd" d="M4 12a8 8 0 1 1 16 0 8 8 0 0 1-16 0Zm8-10C6.477 2 2 6.477 2 12s4.477 10 10 10 10-4.477 10-10S17.523 2 12 2ZM9.351 12.13c1.898-1.507 2.176-2.95 1.613-3.83a1.52 1.52 0 0 0-1.225-.707 1.56 1.56 0 0 0-1.218.53 1.56 1.56 0 0 0-1.326-.082c-.456.186-.8.588-.91 1.083-.227 1.02.527 2.282 2.826 3.048a.26.26 0 0 0 .24-.043Zm5.538.042c2.299-.766 3.053-2.027 2.826-3.048a1.52 1.52 0 0 0-.91-1.082 1.56 1.56 0 0 0-1.326.081 1.56 1.56 0 0 0-1.217-.53 1.52 1.52 0 0 0-1.226.706c-.563.881-.285 2.325 1.613 3.83.068.054.158.07.24.043Zm1.072 2.38a4 4 0 0 1-7.924 0c-.04-.293.218-.525.514-.499 2.309.206 4.587.206 6.896 0 .296-.026.555.206.514.5Z" clip-rule="evenodd"/></svg>
