<svg xmlns="http://www.w3.org/2000/svg" fill="none" viewBox="0 0 24 24"><path fill="#000" fill-rule="evenodd" d="M4.568 4h14.864c.252 0 .498 0 .706.017.229.019.499.063.77.201a2 2 0 0 1 .874.874c.138.271.182.541.201.77.017.208.017.454.017.706v10.864c0 .252 0 .498-.017.706a2 2 0 0 1-.201.77 2 2 0 0 1-.874.874 2 2 0 0 1-.77.201c-.208.017-.454.017-.706.017H4.568c-.252 0-.498 0-.706-.017a2 2 0 0 1-.77-.201 2 2 0 0 1-.874-.874 2 2 0 0 1-.201-.77C2 17.93 2 17.684 2 17.432V6.568c0-.252 0-.498.017-.706a2 2 0 0 1 .201-.77 2 2 0 0 1 .874-.874 2 2 0 0 1 .77-.201C4.07 4 4.316 4 4.568 4Zm.456 2L12 11.708 18.976 6H5.024ZM20 7.747l-6.733 5.509a2 2 0 0 1-2.534 0L4 7.746V17.4a8 8 0 0 0 .011.589h.014c.116.01.278.011.575.011h14.8a8 8 0 0 0 .589-.012v-.013c.01-.116.011-.279.011-.575V7.747Z" clip-rule="evenodd"/></svg>
