<svg xmlns="http://www.w3.org/2000/svg" fill="none" viewBox="0 0 24 24"><path fill="#000" fill-rule="evenodd" d="M12 2a1 1 0 0 1 .889.542l1.679 3.259 3.491-1.117a1 1 0 0 1 1.257 1.257L18.2 9.432l3.259 1.679a1 1 0 0 1 0 1.778l-3.124 1.61 2.609 5.098a1 1 0 0 1-1.346 1.346l-5.098-2.61-1.61 3.125a1 1 0 0 1-1.778 0l-1.679-3.259-3.491 1.117a1 1 0 0 1-1.257-1.257L5.8 14.568l-3.259-1.679a1 1 0 0 1 0-1.778l3.124-1.61-2.609-5.098a1 1 0 0 1 1.346-1.346L9.5 5.667l-.455.89.455-.89 1.61-3.125A1 1 0 0 1 12 2Zm0 3.183-.72 1.4a2 2 0 0 1-2.69.864L6.248 6.248 7.447 8.59a2 2 0 0 1-.865 2.69L5.183 12l1.534.79a2 2 0 0 1 .989 2.387L7.18 16.82l1.643-.526a2 2 0 0 1 2.387.99l.79 1.533.72-1.4a2 2 0 0 1 2.69-.864l2.342 1.199-1.199-2.342a2 2 0 0 1 .864-2.69l1.4-.72-1.534-.79a2 2 0 0 1-.989-2.387l.526-1.643-1.643.526a2 2 0 0 1-2.387-.99L12 5.184Z" clip-rule="evenodd"/></svg>
