<svg xmlns="http://www.w3.org/2000/svg" fill="none" viewBox="0 0 24 24"><path fill="#000" fill-rule="evenodd" d="M12 6c-3.127 0-6.367 1.79-8.638 5.606a.77.77 0 0 0 0 .788C5.633 16.209 8.873 18 12 18s6.367-1.79 8.638-5.606a.77.77 0 0 0 0-.788C18.367 7.791 15.127 6 12 6Zm0-2c3.952 0 7.79 2.272 10.357 6.583a2.77 2.77 0 0 1 0 2.834C19.79 17.727 15.952 20 12 20s-7.79-2.272-10.357-6.583a2.77 2.77 0 0 1 0-2.834C4.21 6.273 8.048 4 12 4Zm0 6a2 2 0 1 0 0 4 2 2 0 0 0 0-4Zm-4 2a4 4 0 1 1 8 0 4 4 0 0 1-8 0Z" clip-rule="evenodd"/></svg>
