<svg xmlns="http://www.w3.org/2000/svg" fill="none" viewBox="0 0 24 24"><path fill="#000" fill-rule="evenodd" d="M3 4a1 1 0 0 0-1 1v14a1 1 0 0 0 1 1h18a1 1 0 0 0 1-1V5a1 1 0 0 0-1-1H3Zm1 14V6h16v12H4Zm2-5.713c0 1.54.92 2.463 2.48 2.463 1.434 0 2.353-.807 2.353-2.06v-.166c0-.578-.267-.834-.884-.834h-.806c-.416 0-.632.182-.632.535 0 .357.22.55.632.55h.146v.063c0 .36-.299.609-.735.609-.597 0-.904-.4-.904-1.168v-.52c0-.775.307-1.155.951-1.155.325 0 .538.152.746.3.089.064.176.127.272.177a.8.8 0 0 0 .409.108c.385 0 .656-.263.656-.636 0-.353-.26-.679-.664-.915-.409-.24-.96-.388-1.548-.388C6.955 9.25 6 10.2 6 11.67v.617Zm6.358 2.385c.526 0 .813-.31.813-.872v-3.627c0-.558-.295-.873-.825-.873s-.825.31-.825.873V13.8c0 .558.302.872.837.872Zm3.367-.872c0 .566-.283.872-.802.872-.538 0-.848-.318-.848-.872v-3.635c0-.512.314-.826.82-.826h2.496c.35 0 .609.272.609.64 0 .369-.26.629-.609.629h-1.666v.973h1.47c.365 0 .608.248.608.613 0 .36-.247.613-.608.613h-1.47v.993Z" clip-rule="evenodd"/></svg>
