<svg xmlns="http://www.w3.org/2000/svg" fill="none" viewBox="0 0 24 24"><path fill="#000" fill-rule="evenodd" d="M4 3a1 1 0 0 0-1 1v16a1 1 0 0 0 1 1h16a1 1 0 0 0 1-1V4a1 1 0 0 0-1-1H4Zm1 16V5h14v14H5Zm10.725-5.2c0 .566-.283.872-.802.872-.538 0-.848-.318-.848-.872v-3.635c0-.512.314-.826.82-.826h2.496c.35 0 .609.272.609.64 0 .369-.26.629-.609.629h-1.666v.973h1.47c.365 0 .608.248.608.613 0 .36-.247.613-.608.613h-1.47v.993Zm-3.367.872c.526 0 .813-.31.813-.872v-3.627c0-.558-.295-.873-.825-.873s-.825.31-.825.873V13.8c0 .558.302.872.837.872Zm-3.879.078C6.92 14.75 6 13.827 6 12.287v-.617c0-1.47.955-2.42 2.472-2.42.589 0 1.139.147 1.548.388.404.236.664.562.664.915 0 .373-.271.636-.656.636a.8.8 0 0 1-.41-.108 2 2 0 0 1-.271-.177c-.208-.148-.421-.3-.746-.3-.644 0-.95.38-.95 1.155v.52c0 .768.306 1.168.903 1.168.436 0 .735-.248.735-.61v-.061h-.146c-.412 0-.632-.194-.632-.551 0-.353.216-.535.632-.535h.806c.617 0 .884.256.884.834v.166c0 1.253-.92 2.06-2.354 2.06Z" clip-rule="evenodd"/></svg>
