<svg xmlns="http://www.w3.org/2000/svg" fill="none" viewBox="0 0 24 24"><path fill="#000" fill-rule="evenodd" d="M6 4.667A2.667 2.667 0 0 1 8.667 2c1.34 0 2.538.608 3.333 1.564A4.32 4.32 0 0 1 15.333 2 2.667 2.667 0 0 1 18 4.667c0 .859-.25 1.66-.681 2.333H20a1 1 0 0 1 1 1v2a1 1 0 0 1-1 1h-7V7h.667A2.333 2.333 0 0 0 16 4.667.667.667 0 0 0 15.333 4 2.333 2.333 0 0 0 13 6.333V7h-2v-.667A2.333 2.333 0 0 0 8.667 4 .667.667 0 0 0 8 4.667 2.333 2.333 0 0 0 10.333 7H11v4H4a1 1 0 0 1-1-1V8a1 1 0 0 1 1-1h2.681A4.3 4.3 0 0 1 6 4.667ZM11 13H4v7a1 1 0 0 0 1 1h6v-8Zm9 0h-7v8h6a1 1 0 0 0 1-1v-7Z" clip-rule="evenodd"/></svg>
