<svg xmlns="http://www.w3.org/2000/svg" fill="none" viewBox="0 0 45 46"><path stroke="#fff" stroke-linecap="round" stroke-linejoin="round" stroke-width="3" d="m10.112 42.152-2.062-2.75a11.8 11.8 0 0 1-2.357-7.072V13.424a3.683 3.683 0 1 1 7.366 0v8.103c4.395-1.974 5.48-2.17 10.312-1.473V7.53a3.683 3.683 0 0 1 7.366 0v21.323"/><path stroke="#fff" stroke-linecap="round" stroke-linejoin="round" stroke-width="3" d="M29.277 42.152c2.38-1.587 4.614-4.692 6.303-7.057l3.933-5.506a3.641 3.641 0 0 0-5.807-4.391l-2.956 3.695c-1.473 0-5.009.59-7.366 2.946"/></svg>
