<?xml version="1.0" encoding="UTF-8" standalone="no"?>
<svg
   width="300"
   height="300"
   viewBox="0 0 24 24"
   version="1.1"
   id="svg1"
   xmlns="http://www.w3.org/2000/svg"
   xmlns:svg="http://www.w3.org/2000/svg">
  <defs
     id="defs1" />
  <path
     d="m 16.697,5.5 c -1.222,-0.06 -2.679,0.51 -3.89,2.16 a 1.0015793,1.0015793 180 0 1 -1.611,0 l 0,0 C 9.984,6.01 8.526,5.44 7.304,5.5 6.061,5.57 4.955,6.28 4.394,7.41 c -0.552,1.12 -0.633,2.78 0.479,4.82 1.074,1.97 3.257,4.27 7.129,6.61 3.87,-2.34 6.052,-4.64 7.126,-6.61 1.111,-2.04 1.03,-3.7 0.477,-4.82 C 19.044,6.28 17.939,5.57 16.697,5.5 Z m 4.187,7.69 c -1.351,2.48 -4.001,5.12 -8.379,7.67 a 0.98366926,0.98366926 180 0 1 -1.007,0 l 0,0 C 7.119,18.31 4.469,15.67 3.116,13.19 1.756,10.69 1.706,8.33 2.602,6.52 3.489,4.73 5.249,3.61 7.203,3.51 c 1.651,-0.09 3.368,0.56 4.798,2.01 1.429,-1.45 3.146,-2.1 4.796,-2.01 1.954,0.1 3.714,1.22 4.601,3.01 0.896,1.81 0.846,4.17 -0.514,6.67 z"
     id="path1" />
</svg>
