<svg xmlns="http://www.w3.org/2000/svg" fill="none" viewBox="0 0 24 24"><title>Group</title>
    <g id="Page-1" stroke="none" stroke-width="1" fill="none" fill-rule="evenodd">
        <g id="homeOpen_filled_corner0_rounded" transform="translate(3, 1.5)" fill="#000000" fill-rule="nonzero">
            <path d="M9.44364312,0.15639476 L17.7200205,6.76701528 C18.0357279,7.0191814 18.093026,7.48699107 17.8479994,7.81189741 C17.7695119,7.91597214 17.6667819,7.99532179 17.551334,8.04413795 L17.55,17.9693347 C17.55,18.7623717 17.4672257,19.0499461 17.311793,19.3398685 C17.1563603,19.6297911 16.9282691,19.8573239 16.6376351,20.0123761 C16.3470012,20.1674283 16.0587211,20.25 15.263738,20.25 L2.73626205,20.25 C1.94127893,20.25 1.65299884,20.1674283 1.36236489,20.0123761 C1.07173094,19.8573239 0.843639723,19.6297911 0.688206987,19.3398685 C0.53277425,19.0499461 0.45,18.7623717 0.45,17.9693347 L0.449663467,8.04478375 C0.185850164,7.93365207 0,7.66681737 0,7.35531026 C0,7.12523566 0.103335771,6.90807954 0.279945674,6.76701528 L8.55632309,0.15639476 C8.81739431,-0.0521315867 9.18257187,-0.0521315867 9.44364312,0.15639476 Z M5.85,8.45 C5.35294372,8.45 4.95,8.76603429 4.95,9.15588235 L4.95,16.7441176 C4.95,17.1339657 5.35294372,17.45 5.85,17.45 C6.34705627,17.45 6.75,17.1339657 6.75,16.7441176 L6.75,9.15588235 C6.75,8.76603429 6.34705627,8.45 5.85,8.45 Z M12.15,8.45 C11.6529437,8.45 11.25,8.76603429 11.25,9.15588235 L11.25,16.7441176 C11.25,17.1339657 11.6529437,17.45 12.15,17.45 C12.6470563,17.45 13.05,17.1339657 13.05,16.7441176 L13.05,9.15588235 C13.05,8.76603429 12.6470563,8.45 12.15,8.45 Z" id="Combined-Shape"></path>
        </g>
    </g></svg>
