<svg xmlns="http://www.w3.org/2000/svg" fill="none" viewBox="0 0 24 24"><path fill="#000" fill-rule="evenodd" d="M3 5a2 2 0 0 1 2-2h14a2 2 0 0 1 2 2v14a2 2 0 0 1-2 2H5a2 2 0 0 1-2-2V5Zm16 0H5v7.213l1.246-.932.044-.03a3 3 0 0 1 3.863.454c1.468 1.58 2.941 2.749 4.847 2.749 1.703 0 2.855-.555 4-1.618V5Zm0 10.357c-1.112.697-2.386 1.097-4 1.097-2.81 0-4.796-1.755-6.313-3.388a1 1 0 0 0-1.269-.164L5 14.712V19h14v-3.643ZM15 8a1 1 0 1 0 0 2 1 1 0 0 0 0-2Zm-3 1a3 3 0 1 1 6 0 3 3 0 0 1-6 0Z" clip-rule="evenodd"/></svg>