<svg xmlns="http://www.w3.org/2000/svg" fill="none" viewBox="0 0 64 64"><path fill="#111822" d="M57.666 33.416q-.001-.21-.022-.419L57.6 33H44a4.33 4.33 0 0 0-3.466 1.734l-.8 1.066a6.34 6.34 0 0 1-5.068 2.533h-5.333a6.33 6.33 0 0 1-5.066-2.533l-.8-1.066A4.33 4.33 0 0 0 20 33H6.4l-.045-.003a4 4 0 0 0-.022.42v11.916a4.333 4.333 0 0 0 4.333 4.333h42.667a4.333 4.333 0 0 0 4.333-4.333V33.416Zm-38.57-19.083a4.33 4.33 0 0 0-3.764 2.184L7.057 31H20c1.994 0 3.87.939 5.067 2.533l.8 1.067a4.33 4.33 0 0 0 3.466 1.733h5.333a4.33 4.33 0 0 0 3.467-1.733l.8-1.067A6.34 6.34 0 0 1 44 31h12.944l-8.277-14.483a4.33 4.33 0 0 0-3.762-2.184h-25.81Zm40.57 31a6.333 6.333 0 0 1-6.333 6.333H10.666a6.333 6.333 0 0 1-6.333-6.333V33.416c0-1.102.288-2.185.835-3.142l8.428-14.75a6.33 6.33 0 0 1 5.5-3.19h25.809a6.33 6.33 0 0 1 5.499 3.19l8.427 14.75h.001a6.33 6.33 0 0 1 .834 3.142v11.917Z"/></svg>
