<svg xmlns="http://www.w3.org/2000/svg" fill="none" viewBox="0 0 24 24"><path fill="#000" fill-rule="evenodd" d="M3 12a4 4 0 0 1 7.212-2.385c.363.488.963.885 1.696.885h8.111l1.2 1.5-1.2 1.5h-1.783l-1.789-.894a1 1 0 0 0-.894 0l-1.79.894h-1.855c-.733 0-1.333.397-1.696.885A4 4 0 0 1 3 12Zm4-6a6 6 0 1 0 4.817 9.579.3.3 0 0 1 .076-.072l.017-.007H14a1 1 0 0 0 .447-.106L16 14.618l1.553.776c.139.07.292.106.447.106h2.02a2 2 0 0 0 1.561-.75l1.2-1.5a2 2 0 0 0 0-2.5l-1.2-1.5a2 2 0 0 0-1.562-.75h-8.11l-.016-.007a.3.3 0 0 1-.077-.071A6 6 0 0 0 7 6Zm0 7.5a1.5 1.5 0 1 0 0-3 1.5 1.5 0 0 0 0 3Z" clip-rule="evenodd"/></svg>
