<svg xmlns="http://www.w3.org/2000/svg" fill="none" viewBox="0 0 24 24"><path fill="#000" d="M18 2a1 1 0 0 1 1 1v2a1 1 0 0 1-1 1H7v2h15a1 1 0 0 1 1 1v12a1 1 0 0 1-1 1H2a1 1 0 0 1-1-1V9a1 1 0 0 1 1-1h3V5a1 1 0 0 1 1-1h11V3a1 1 0 0 1 1-1ZM3 20h18V10H3v10Zm3-4.25a1.25 1.25 0 1 1 0 2.5 1.25 1.25 0 0 1 0-2.5Zm12 0a1.25 1.25 0 1 1 0 2.5 1.25 1.25 0 0 1 0-2.5ZM14 16a1 1 0 1 1 0 2h-4a1 1 0 1 1 0-2h4Zm-8.268 1.42h0Zm-.073-.057h0Zm-.06-.067h0Zm-.047-.078h0Zm-.033-.09q.006.027.016.055-.01-.027-.016-.055ZM5.5 17h0Zm.5-5.25a1.25 1.25 0 1 1-1.243 1.378L4.75 13l.007-.128A1.25 1.25 0 0 1 6 11.75Zm4 0a1.25 1.25 0 1 1-1.243 1.378L8.75 13l.007-.128A1.25 1.25 0 0 1 10 11.75Zm4 0a1.25 1.25 0 1 1-1.243 1.378L12.75 13l.007-.128A1.25 1.25 0 0 1 14 11.75Zm4 0a1.25 1.25 0 1 1-1.243 1.378L16.75 13l.007-.128A1.25 1.25 0 0 1 18 11.75ZM5.732 13.42h0Zm-.073-.057h0Zm-.06-.067h0Zm-.047-.078h0Zm-.033-.09q.006.028.016.055-.01-.028-.016-.055ZM5.5 13h0Z"/></svg>
