<svg xmlns="http://www.w3.org/2000/svg" fill="none" viewBox="0 0 20 20"><path fill="#000" fill-rule="evenodd" d="M14.5 8a1 1 0 0 1 .912.59l4.5 10a1 1 0 0 1-1.824.82L16.554 16h-4.108l-1.534 3.41a1 1 0 0 1-1.824-.82l4.5-10A1 1 0 0 1 14.5 8m-1.153 6h2.306L14.5 11.437zM5.053.106a1 1 0 0 1 1.342.447L7.118 2H11a1 1 0 0 1 0 2H9.92c-.28 1.765-1.27 3.24-2.393 4.398a17 17 0 0 0 2.605 1.562q.129.062.197.092l.005.002.049.022.01.005a1 1 0 0 1-.787 1.838h-.002l-.027-.013-.068-.03-.242-.113A19 19 0 0 1 6 9.75a19 19 0 0 1-3.509 2.125l-.068.03-.027.013h-.002a1 1 0 0 1-.788-1.838l.011-.005.049-.022.005-.002q.069-.03.197-.092a17 17 0 0 0 2.604-1.562C3.348 7.239 2.36 5.764 2.08 4H1a1 1 0 0 1 0-2h3.882l-.277-.553A1 1 0 0 1 5.053.106M4.118 4c.27 1.151.98 2.193 1.882 3.1.901-.907 1.612-1.95 1.882-3.1z" clip-rule="evenodd"/></svg>
