<svg xmlns="http://www.w3.org/2000/svg" fill="none" viewBox="0 0 24 24"><path fill="#000" d="M3.92 19v-4.153a1 1 0 0 1 1-1H9l.103.005a1 1 0 0 1 0 1.99L9 15.847H7.285c.854.737 1.784 1.38 2.631 1.9.702.431 1.329.769 1.78.997l.291.143a25.6 25.6 0 0 0 3.67-2.326c2.144-1.642 4.073-3.756 4.315-6.023a1 1 0 0 1 1.988.212c-.336 3.154-2.89 5.717-5.086 7.398a27.6 27.6 0 0 1-4.34 2.704l-.078.038-.021.01-.007.003-.002.001-.001.001a1 1 0 0 1-.827.01v0h-.002l-.004-.002-.013-.006q-.016-.006-.045-.02l-.162-.075a27 27 0 0 1-2.503-1.361 22 22 0 0 1-2.95-2.143V19a1 1 0 0 1-2 0ZM2 10c0-2.214.696-3.971 1.833-5.184A5.7 5.7 0 0 1 8 3a7.1 7.1 0 0 1 4 1.228A7.1 7.1 0 0 1 16 3a5.68 5.68 0 0 1 3.469 1.185l.031-1.702a1 1 0 0 1 2 .035l-.081 4.5a1 1 0 0 1-1 .983H16.5a1 1 0 1 1 0-2h2.02A3.68 3.68 0 0 0 16 5a5.12 5.12 0 0 0-3.11 1.053 3 3 0 0 0-.155.129l-.029.025v.002l-.003.002-.072.064a1 1 0 0 1-1.338-.068l-.028-.025a3 3 0 0 0-.155-.13A5.12 5.12 0 0 0 8 5c-.982 0-1.965.392-2.708 1.185C4.554 6.97 4 8.214 4 10q0 .507.099 1.002l.075.328.02.1a1 1 0 0 1-1.925.5l-.03-.097-.102-.446A7 7 0 0 1 2 10Z"/></svg>
