<svg xmlns="http://www.w3.org/2000/svg" fill="none" viewBox="0 0 24 24"><path fill="#000" d="M2 12a9.97 9.97 0 0 1 2.929-7.07l.076-.068a1 1 0 0 1 1.407 1.406l-.07.076A7.97 7.97 0 0 0 4 12a7.97 7.97 0 0 0 2.078 5.38l.265.277.07.076a1 1 0 0 1-1.408 1.407l-.076-.07-.331-.346A9.97 9.97 0 0 1 2 12Zm18 0a7.97 7.97 0 0 0-2.078-5.379l-.265-.278-.07-.076a1 1 0 0 1 1.408-1.406l.076.068.331.347A9.97 9.97 0 0 1 22 12a9.97 9.97 0 0 1-2.929 7.07 1 1 0 1 1-1.414-1.413A7.97 7.97 0 0 0 20 12ZM6 12c0-1.656.673-3.158 1.758-4.243a1 1 0 0 1 1.414 1.414A4 4 0 0 0 8 12.001a3.98 3.98 0 0 0 1.04 2.689l.132.138.068.077a1 1 0 0 1-1.407 1.406l-.075-.069-.2-.208A5.98 5.98 0 0 1 6 12Zm10 0a3.98 3.98 0 0 0-1.04-2.69l-.132-.139-.068-.075a1 1 0 0 1 1.407-1.407l.075.068.2.208A5.98 5.98 0 0 1 18 12a6 6 0 0 1-1.758 4.243 1 1 0 0 1-1.414-1.415A4 4 0 0 0 16 12Zm-6 0a2 2 0 1 1 4 0 2 2 0 0 1-4 0Z"/></svg>
