<svg width="24" height="24" viewBox="0 0 24 24" fill="none" xmlns="http://www.w3.org/2000/svg">
<g clip-path="url(#clip0_2445_7583)">
<path d="M23.8253 11.8693L23.7821 11.8261C21.595 9.63953 18.491 8.76105 15.4757 9.47872C15.0748 9.57473 14.6811 9.70194 14.2994 9.85075C14.5106 9.40431 14.6835 8.94347 14.8155 8.46583C15.3653 6.50006 15.2164 4.39027 14.4002 2.52771C14.261 2.21328 13.8936 2.06926 13.5792 2.20608C13.2647 2.34529 13.1206 2.71252 13.2575 3.02695C13.9585 4.62789 14.0857 6.44005 13.6152 8.1298C13.3127 9.20989 12.7701 10.2156 12.0331 11.0629C11.3969 10.2252 10.9384 9.2579 10.6935 8.23541C10.0766 5.64558 10.8304 2.97894 12.7101 1.10198L12.7341 1.07798C12.9838 0.842757 12.9958 0.446722 12.7605 0.1971C12.5277 -0.0549226 12.1339 -0.0669236 11.8819 0.170697C11.8651 0.187499 11.8483 0.2043 11.8315 0.221102C9.64444 2.40769 8.76579 5.51117 9.48359 8.52583C9.57962 8.93147 9.70925 9.3299 9.8629 9.71634C9.41397 9.50272 8.94584 9.3275 8.4657 9.19309C6.49954 8.64344 4.38934 8.79226 2.52641 9.60833C2.20952 9.74514 2.06547 10.1124 2.20471 10.4268C2.34395 10.7412 2.71126 10.8852 3.02575 10.7484C4.627 10.0476 6.43952 9.92036 8.1296 10.3908C9.20991 10.6932 10.2158 11.2357 11.0632 11.9725C10.2254 12.6086 9.25793 13.067 8.23523 13.3119C5.6449 13.9287 2.97773 13.1726 1.098 11.2933L1.07639 11.2693C0.841125 11.0197 0.445012 11.0077 0.195341 11.2429C-0.0543304 11.4781 -0.0663339 11.8741 0.168933 12.1238C0.185738 12.1406 0.202543 12.1598 0.219348 12.1742C1.90463 13.8591 4.13486 14.7664 6.44912 14.7664C7.13812 14.7664 7.83432 14.6848 8.52572 14.5216C8.92663 14.4256 9.32034 14.2983 9.70205 14.1495C9.49079 14.596 9.31794 15.0592 9.1859 15.5345C8.63615 17.5002 8.78499 19.61 9.60122 21.4726C9.74046 21.787 10.1078 21.931 10.4223 21.7942C10.7367 21.655 10.8808 21.2878 10.7439 20.9733C10.0429 19.3724 9.91571 17.5602 10.3862 15.8705C10.6887 14.7904 11.2313 13.7847 11.9683 12.9374C12.6045 13.7751 13.063 14.7424 13.3079 15.7649C13.9249 18.3547 13.1686 21.0213 11.2913 22.8983L11.2673 22.9223C11.0176 23.1575 11.0056 23.5536 11.2409 23.8032C11.3633 23.9328 11.529 24 11.6946 24C11.8483 24 12.0019 23.9448 12.1219 23.8296C12.1387 23.8128 12.1556 23.796 12.1724 23.7792C14.3594 21.5926 15.238 18.4891 14.5202 15.4744C14.4242 15.0688 14.2946 14.6704 14.1409 14.2839C14.5898 14.4976 15.058 14.6728 15.5381 14.8072C16.3183 15.0256 17.1226 15.1336 17.9244 15.1336C19.1415 15.1336 20.3539 14.884 21.4774 14.392C21.7919 14.2527 21.9359 13.8855 21.7991 13.5711C21.6599 13.2567 21.2926 13.1126 20.9781 13.2495C19.3768 13.9503 17.5643 14.0775 15.8742 13.6071C14.7915 13.3047 13.788 12.7622 12.9406 12.0253C13.7784 11.3893 14.7459 10.9308 15.7686 10.686C18.3589 10.0692 21.0261 10.8252 22.9034 12.7022L22.9322 12.731C23.1699 12.9806 23.5636 12.9854 23.8109 12.7478C24.0581 12.515 24.0629 12.1166 23.8253 11.8693Z" fill="#FDE295"/>
</g>
<defs>
<clipPath id="clip0_2445_7583">
<rect width="24" height="24" fill="white"/>
</clipPath>
</defs>
</svg>
