<svg xmlns="http://www.w3.org/2000/svg" viewBox="0 0 4096 4096"><path fill="#FF850D" d="M3032 65c3.803 2.535 4.112 4.965 5.164 9.164l.585 2.213q.625 2.373 1.235 4.75c.872 3.397 1.768 6.786 2.663 10.176q.688 2.607 1.372 5.214c1.999 7.607 4.13 15.17 6.294 22.733 7.873 27.731 15.128 55.646 22.303 83.565 1.375 5.34 2.78 10.67 4.228 15.99 5.875 21.62 11.058 43.381 16.156 65.195l.689 2.944q3.654 15.62 7.28 31.247l.535 2.306q.752 3.25 1.496 6.503l.466 2.022c1.65 7.272 3.065 14.591 4.503 21.908l.851 4.321q.889 4.511 1.775 9.022 1.128 5.738 2.26 11.474l2.587 13.142c8.38 42.53 14.76 85.778 16.683 129.111l.164 3.623c.35 8.125.568 16.247.711 24.377l.072 3.733c.357 20.948-.743 41.63-2.39 62.506-.43 5.48-.84 10.96-1.252 16.442q-.326 4.338-.668 8.674l-.303 3.932-.27 3.43a108 108 0 0 0-.155 7.14C3127 655 3127 655 3126 656c-.31 2.099-.57 4.205-.812 6.313-.864 6.996-2.159 13.855-3.58 20.757a852 852 0 0 0-3.796 19.805l-.505 2.791c-.99 5.503-1.94 11.01-2.813 16.533-3.292 20.77-7.882 40.911-13.434 61.185-2.997 10.98-5.76 22.021-8.553 33.055-2.503 9.882-5.06 19.74-7.84 29.55a302 302 0 0 0-3.417 13.323c-2.749 11.342-6.433 22.43-9.945 33.552a5584 5584 0 0 0-4.055 12.913c-4.491 14.34-9.005 28.67-13.614 42.972a1385 1385 0 0 0-5.606 17.906c-6.344 20.608-13.308 40.943-20.616 61.227-3.797 10.543-7.51 21.1-10.98 31.754a444 444 0 0 1-5.351 15.4c-1.834 5.02-3.613 10.059-5.398 15.095l-2.13 6.003a3995 3995 0 0 0-7.485 21.257c-5.432 15.562-11.056 31.028-16.992 46.406l-2.473 6.407c-3.541 9.198-6.972 18.437-10.418 27.671-4.15 11.121-8.344 22.213-12.825 33.207-1.966 4.842-3.66 9.724-5.253 14.703-1.783 5.168-3.871 10.211-5.921 15.278a785 785 0 0 0-6.75 17.312c-8.464 22.39-17.323 44.644-26.446 66.773-3.087 7.494-6.077 15.026-9.076 22.554a8619 8619 0 0 1-7.318 18.286c-5.138 12.753-5.138 12.753-10.098 25.574-2.767 7.283-5.825 14.446-8.839 21.629-2.22 5.305-4.391 10.612-6.411 15.996a152 152 0 0 1-4.957 11.633c-3.652 7.858-6.95 15.848-10.23 23.868l-1.867 4.547a1297 1297 0 0 0-10.821 27.21c-2.898 7.493-6.076 14.864-9.25 22.243a994 994 0 0 0-6.75 16.124c-2.049 5.001-4.13 9.976-6.352 14.903-3.815 8.52-7.417 17.102-10.652 25.86-1.162 2.904-2.406 5.728-3.71 8.57-2.703 5.892-5.195 11.86-7.661 17.855-2.797 6.801-5.682 13.54-8.75 20.223-2.196 4.878-4.215 9.83-6.25 14.777-2.845 6.918-5.785 13.768-8.906 20.566-1.32 2.937-2.481 5.913-3.594 8.934-1.89 5.01-4 9.85-6.258 14.703-1.323 2.98-2.477 5.993-3.617 9.047-2.812 7.447-6.21 14.567-9.625 21.75q-1.353 2.902-2.687 5.813l-1.075 2.332a246 246 0 0 0-3.055 7.428c-2.027 5.078-4.164 10.1-6.343 15.114l-1.17 2.704-2.463 5.682c-5.79 13.35-11.568 26.701-17.207 40.114a1723 1723 0 0 1-10.812 25.126l-1.311 2.983a682 682 0 0 1-2.494 5.584 189 189 0 0 0-2.605 6.163c-3.545 8.452-8.02 14.149-14.594 20.457l-2.831 2.8a976 976 0 0 1-7.407 7.234c-2.517 2.446-5.015 4.912-7.514 7.376q-5.49 5.408-11.012 10.781c-5.96 5.674-5.96 5.674-11.42 11.809a66.7 66.7 0 0 1-7 7.5h-2v2c-1.32 1.262-1.32 1.262-3.125 2.688-3.218 2.653-5.813 5.495-8.457 8.707-1.912 2.165-4.136 3.845-6.418 5.605l-1 2h-2v2h-2l-.687 1.688c-1.689 2.974-3.78 5.032-6.313 7.312h-2l-2 4h-2l-1 3h-2v2h-2l-2 4h-2l-.67 1.66c-1.744 3.068-4.093 5.331-6.6 7.77l-1.57 1.554a1503 1503 0 0 1-4.972 4.891q-2.475 2.431-4.942 4.87a744 744 0 0 1-3.072 3.019c-2.46 2.425-4.746 4.9-6.903 7.592L2557 1998h-2v2c-1.375 1.625-1.375 1.625-3 3h-2v2h-2v2h-2l-.769 1.756c-1.372 2.5-2.903 4.15-4.93 6.155l-2.296 2.285-2.478 2.437-2.54 2.524q-4.018 3.99-8.05 7.968a6986 6986 0 0 0-8.06 7.99 2120 2120 0 0 1-5.021 4.967l-2.286 2.266-2.02 1.996c-1.636 1.59-1.636 1.59-2.55 3.656h-2v2h-2v2h-2l-.812 1.813c-1.187 2.185-2.284 3.6-4.188 5.187h-2l-.698 1.686c-1.657 2.945-3.73 4.966-6.134 7.341l-1.435 1.427c-1.51 1.5-3.028 2.991-4.546 4.483l-3.025 2.999q-2.799 2.774-5.607 5.54c-5.395 5.315-5.395 5.315-10.614 10.801-.544.59-1.088 1.18-1.65 1.787l-1.729 1.874a509 509 0 0 1-17.206 17.67c-3.057 2.904-3.057 2.904-5.356 6.392h-2v2h-2l-.716 1.706c-1.582 2.827-3.513 4.73-5.827 6.997l-2.756 2.723q-1.443 1.413-2.889 2.824c-5.626 5.522-11.175 11.018-16.3 17.012-2.159 2.481-4.47 4.754-6.825 7.05-2.578 2.516-4.685 4.685-6.687 7.688h-2v2a349 349 0 0 1-5 4l-2 3h-2l-2 4h-2l-.707 1.703c-1.612 2.864-3.612 4.77-5.98 7.047-5.248 5.142-10.14 10.43-14.626 16.25l-1.687 2h-2v2c-1.875 2.125-1.875 2.125-4 4h-2l-.8 1.797c-1.244 2.283-2.504 3.677-4.387 5.453-4.471 4.34-8.794 8.887-12.391 13.988L2323 2241h-2v2h-2v2h-2l-1 3h-2l-.687 1.688c-1.672 2.945-3.896 4.955-6.313 7.312l-2 3h-2v2h-2l-.812 1.766c-1.203 2.262-2.526 4.04-4.188 5.984l-1.562 1.86C2293 2273 2293 2273 2291 2273v2a281 281 0 0 1-5 5 1049 1049 0 0 0-4 5c-2.125 2.313-2.125 2.313-4 4h-2v2h-2l-.687 1.625c-1.769 3.2-3.85 5.665-6.313 8.375h-2c-.235.554-.47 1.109-.71 1.68-1.615 2.904-3.637 5.026-5.915 7.445-4.193 4.515-8.053 9.162-11.781 14.074L2245 2326h-2l-.645 1.61c-1.878 3.312-4.436 5.9-7.043 8.64l-3.292 3.52-1.596 1.701c-2.892 3.104-5.66 6.31-8.424 9.529l-2.984 3.457q-1.635 1.896-3.266 3.793l-1.576 1.828c-2.062 2.403-4.064 4.768-5.908 7.344L2207 2369h-2l-.812 1.75c-1.217 2.306-2.491 4.27-4.188 6.25h-2l-.746 1.715c-1.47 2.677-3.232 4.615-5.316 6.847-4 4.363-7.767 8.855-11.489 13.454-2.767 3.372-5.6 6.68-8.449 9.984-6.14 7.134-12.186 14.333-17.93 21.793l-1.513 1.957a528 528 0 0 0-2.928 3.832c-1.164 1.51-2.391 2.969-3.629 4.418h-2c-.22.53-.44 1.06-.668 1.605-1.809 3.252-4.209 5.92-6.644 8.707-3.083 3.57-6.094 7.096-8.75 11L2126 2465h-2l-.746 1.68c-1.495 2.765-3.32 5.018-5.316 7.445-2.742 3.26-2.742 3.26-4.938 6.875h-2v3a166 166 0 0 1-5 5 229 229 0 0 0-4.5 5.813c-3.834 5.067-7.781 10.024-11.812 14.937-5.17 6.31-10.158 12.74-15.09 19.239a446 446 0 0 1-11.371 14.296c-6.926 8.444-13.569 17.122-20.227 25.778l-1.673 2.164c-2.675 3.49-5.114 6.964-7.327 10.773l-3 3-1.562 2.688L2028 2590h-2l-.687 2.688c-1.523 3.841-3.337 5.471-6.313 8.312a125 125 0 0 0-2.77 3.64 535 535 0 0 1-6.414 8.508l-1.612 2.094-1.641 2.133c-4.285 5.567-8.434 11.162-12.293 17.035L1993 2636h-2l-.937 2.375C1989 2641 1989 2641 1988 2643h-2l-.82 1.734c-4.062 7.8-9.997 14.73-15.276 21.74a2257 2257 0 0 0-12.091 16.213l-1.785 2.414a437 437 0 0 0-12.356 17.723L1942 2705h-2l-.594 1.973c-2.01 4.328-4.93 7.757-7.906 11.465a476 476 0 0 0-16.328 21.894c-1.98 2.817-3.983 5.617-5.985 8.418l-1.207 1.693a1806 1806 0 0 1-7.464 10.37l-1.798 2.48q-1.756 2.424-3.516 4.843l-1.612 2.223-1.442 1.984c-1.21 1.663-1.21 1.663-2.148 3.657h-2l-.723 2.125c-1.5 3.38-3.448 5.957-5.715 8.875-2.766 3.573-5.281 7.101-7.562 11a305 305 0 0 1-3.562 5.313l-1.817 2.675L1867 2808h-2l-.719 2.098c-1.52 3.445-3.56 6.326-5.781 9.34l-2.734 3.769-1.405 1.924a1115 1115 0 0 0-6.111 8.494l-1.223 1.71c-4.255 5.959-8.436 11.97-12.626 17.975a1154 1154 0 0 1-13.963 19.515 341 341 0 0 0-9.037 13.065c-3.743 5.638-7.686 11.135-11.667 16.606l-1.765 2.43a1730 1730 0 0 1-3.526 4.83l-1.65 2.267-1.484 2.03c-1.29 1.92-2.323 3.855-3.309 5.947h-2l-.648 1.996c-1.832 4.072-4.36 7.463-6.977 11.066q-1.627 2.272-3.25 4.547l-1.61 2.252c-6.297 8.745-6.297 8.745-11.515 18.139h-2l-.797 2.203c-1.22 2.838-2.642 5.051-4.453 7.547-2.786 3.859-5.455 7.779-8.086 11.744q-2.631 3.96-5.277 7.908l-3.7 5.535-1.916 2.862-1.822 2.728-1.646 2.461c-1.327 1.967-1.327 1.967-2.303 4.012h-2l-.777 2.688c-1.232 3.337-2.62 5.512-4.785 8.312a198 198 0 0 0-9 13.063c-2.538 4.003-5.115 7.957-7.876 11.812-3.353 4.727-6.4 9.615-9.45 14.54-5.04 8.121-10.28 16.111-15.503 24.114-2.986 4.584-5.95 9.183-8.915 13.78a525 525 0 0 1-8.67 13.027c-1.197 1.804-1.197 1.804-2.024 4.664h-2l-.648 1.938c-1.9 4.302-4.433 8.115-6.977 12.062q-1.638 2.566-3.273 5.133l-1.613 2.524c-3.226 5.075-6.35 10.214-9.489 15.343l-3.625 5.875c-3.16 5.13-6.292 10.277-9.42 15.426-5.106 8.404-10.236 16.79-15.471 25.113-3.17 5.053-6.244 10.16-9.295 15.286a361 361 0 0 1-6.877 11.05c-2.761 4.298-5.224 8.692-7.624 13.2-2.461 4.448-5.117 8.777-7.793 13.1-2.168 3.237-2.168 3.237-2.895 6.95h-2l-.703 2.484c-1.569 4.253-3.706 7.899-6.047 11.766l-1.36 2.28a1579 1579 0 0 1-3.89 6.47l-3.312 5.5-1.239 2.031a277 277 0 0 0-3.691 6.524c-3.09 5.583-6.336 11.07-9.57 16.57A652 652 0 0 0 1527 3335q-1.618 2.972-3.25 5.938c-1.596 2.914-3.157 5.832-4.625 8.812-4.099 8.3-8.406 16.546-13.25 24.438a115 115 0 0 0-5.437 10c-3.017 6.169-6.406 12.101-9.813 18.062-4.113 7.21-8.094 14.436-11.738 21.894-2.528 5.173-5.188 10.269-7.887 15.356a797 797 0 0 0-10.031 19.582c-2.41 4.85-4.92 9.64-7.469 14.418-4.315 8.095-8.427 16.28-12.5 24.5-10.367 20.9-10.367 20.9-15.5 30.438-4.642 8.637-8.83 17.484-13.02 26.347A562 562 0 0 1 1406 3568l-1.422 2.844-1.328 2.656-1.559 3.121a2177 2177 0 0 1-3.539 7.04 831 831 0 0 0-10.59 21.776c-2.825 6.028-5.776 11.954-8.937 17.813-3.811 7.086-7.324 14.284-10.765 21.556a1710 1710 0 0 1-9.622 19.94l-1.285 2.623-2.625 5.358c-6.457 13.179-12.839 26.368-18.862 39.751-2.946 6.508-6.204 12.765-9.638 19.026-2.297 4.393-4.245 8.891-6.187 13.45-2.33 5.434-4.913 10.705-7.59 15.975-2.441 4.817-4.771 9.676-7.051 14.571a574 574 0 0 1-7.812 16.125c-7.114 14.117-13.881 28.4-20.376 42.813-3.097 6.871-6.297 13.663-9.706 20.385-7.081 13.989-13.72 28.191-20.105 42.51-2.184 4.887-4.425 9.726-6.884 14.483a164 164 0 0 0-2.422 4.961l-1.32 2.785-1.164 2.504C1234 3924 1234 3924 1231 3925c2.306-17.509 5.424-34.882 9.161-52.14a431 431 0 0 0 3.273-17c1.392-8.036 2.977-16.024 4.612-24.013 3.065-14.936 3.065-14.936 5.579-29.972 1.477-9.965 3.505-19.803 5.52-29.67 1.643-8.066 3.26-16.137 4.878-24.208a9231 9231 0 0 1 1.767-8.77c1.642-8.166 3.26-16.33 4.67-24.54 1.564-9.09 3.404-18.123 5.228-27.164a2961 2961 0 0 0 3.742-18.925l.61-3.126q1.219-6.245 2.434-12.49c2.983-15.335 6.086-30.643 9.248-45.941l.91-4.403c2.562-12.412 5.082-24.834 7.603-37.255l1.79-8.81q1.338-6.567 2.67-13.135l.434-2.136a2174 2174 0 0 0 6.213-31.805c1.574-8.335 3.516-16.56 5.533-24.798 1.585-6.526 2.864-13.103 4.125-19.699 1.534-8.01 3.202-15.933 5.238-23.83 1.93-7.621 3.588-15.303 5.262-22.983l.467-2.142c1.716-7.882 3.402-15.77 5.033-23.67 1.966-9.502 4.205-18.94 6.43-28.384 1.434-6.1 2.862-12.199 4.17-18.328 1.39-6.393 2.93-12.678 4.736-18.964 2.477-8.778 4.563-17.62 6.571-26.516 5.39-23.817 11.425-47.46 17.527-71.102a5870 5870 0 0 0 4.441-17.35l3.218-12.625a1119 1119 0 0 1 6.977-26.138c2.328-8.332 4.495-16.706 6.667-25.081 3.592-13.84 7.212-27.66 11.24-41.38.762-2.61.762-2.61 1.455-5.238.844-3.372 1.769-6.721 2.685-10.074l.645-2.36q1.055-3.855 2.113-7.71l.735-2.68c4.055-14.76 8.253-29.475 12.535-44.172l1.355-4.652.658-2.26c2.197-7.557 4.314-15.137 6.421-22.72 1.92-6.896 3.905-13.772 5.921-20.641 4.363-14.882 8.51-29.823 12.654-44.767q1.586-5.715 3.175-11.43.785-2.823 1.565-5.647c2.633-9.52 5.319-19.009 8.307-28.424 2.047-6.461 3.915-12.967 5.761-19.488q.945-3.337 1.897-6.675 1.372-4.822 2.742-9.644c11.624-40.925 23.28-81.848 35.589-122.574 2.26-7.486 4.442-14.991 6.574-22.515 4.247-14.963 8.618-29.897 13.361-44.711a570 570 0 0 0 5.688-18.937c6.043-21.405 12.597-42.667 19.173-63.913q1.548-5.003 3.092-10.005A8196 8196 0 0 1 1570 2553l.684-2.192c6.007-19.233 12.09-38.434 18.575-57.512a527 527 0 0 0 6.847-21.845c2.276-7.823 4.752-15.577 7.269-23.326l.762-2.352c4.873-15.016 10.053-29.919 15.288-44.812a2008 2008 0 0 0 11.763-34.461c5.6-16.916 11.349-33.778 17.164-50.621l1.82-5.281c3.89-11.289 7.87-22.54 11.97-33.754A1313 1313 0 0 0 1668 2260.5c4.404-12.54 8.96-25.027 13.594-37.484l1.337-3.597q1.281-3.441 2.568-6.881c1.944-5.22 3.821-10.444 5.556-15.737 1.73-5.26 3.71-10.372 5.82-15.488 2.53-6.224 4.941-12.46 7.125-18.813 2.47-7.182 5.248-14.215 8.103-21.252a339 339 0 0 0 6.596-17.717c1.107-3.005 2.298-5.937 3.543-8.886 3.255-7.748 6.218-15.601 9.196-23.457 3.66-9.652 7.365-19.28 11.23-28.852a552 552 0 0 0 3.895-10.086 182 182 0 0 1 5-11.875c1.586-3.418 3.002-6.819 4.25-10.375 2.098-5.95 4.574-11.719 7.047-17.52a513 513 0 0 0 6.828-16.98c2.165-5.655 4.486-11.17 7.062-16.652 1.89-4.305 3.466-8.719 5.08-13.133 1.32-3.576 2.716-7.024 4.483-10.402 1.473-2.893 2.288-5.118 2.687-8.313h2l.352-2.124c.71-3.151 1.778-5.916 3.02-8.9l1.475-3.56 1.59-3.791q.817-1.956 1.632-3.913c6.521-15.61 13.185-31.148 20.42-46.442a226 226 0 0 0 4.011-9.27c1.715-4.19 3.556-8.287 5.5-12.375 4.01-8.444 7.666-17.044 11.363-25.629 3.63-8.428 7.345-16.8 11.29-25.086 1.615-3.489 3.011-7.04 4.406-10.62 1.3-3.163 2.845-6.174 4.402-9.216 2.02-4.034 3.932-8.116 5.851-12.199a681 681 0 0 1 9-18.437c2.453-4.84 4.642-9.688 6.57-14.758 2.666-6.393 5.974-12.513 9.118-18.68 7.21-14.208 14.055-28.605 20.75-43.062 2.99-6.436 6.132-12.785 9.332-19.118 1.29-2.557 2.57-5.118 3.849-7.68q1.012-2.027 2.027-4.054c1.641-3.28 3.279-6.56 4.905-9.848 6.729-13.57 13.77-26.98 20.848-40.37 3.748-7.09 7.479-14.182 11.039-21.368 5.347-10.791 10.94-21.456 16.502-32.137q2.405-4.628 4.791-9.265a1177 1177 0 0 1 16.832-31.41l1.875-3.38c3.23-5.788 6.533-11.516 10.005-17.164 1.715-2.954 3.001-5.965 4.245-9.144h2l.688-2.437c1.03-2.797 2.067-5.041 3.523-7.602a697 697 0 0 0 5.691-10.3l1.51-2.784q1.522-2.808 3.04-5.617a390 390 0 0 1 9.246-16.096 164 164 0 0 0 4.177-7.414A542 542 0 0 1 2055 1409a563 563 0 0 0 7-12.5c9.392-17.302 19.475-34.228 30.27-50.69 3-4.6 5.717-9.28 8.277-14.142 2.311-4.243 4.897-8.313 7.45-12.414 2.475-4.02 4.836-8.1 7.198-12.188 2.65-4.503 5.425-8.926 8.203-13.351 1.704-2.67 1.704-2.67 2.602-5.715h2l.824-2.203c1.137-2.705 2.446-5.056 3.988-7.547 1.979-3.233 3.884-6.479 5.688-9.812 2.19-4.002 4.663-7.75 7.266-11.493 1.395-2.026 1.395-2.026 2.234-4.945h2l.848-2.234c3.433-8.241 8.994-15.654 13.85-23.116a773 773 0 0 0 9.052-14.275c4.833-7.797 9.852-15.47 14.897-23.131a417 417 0 0 0 9.972-15.943c2.005-3.341 4.123-6.603 6.256-9.863a3290 3290 0 0 0 14.25-22.126l2.1-3.28c2.809-4.39 5.618-8.78 8.412-13.18 4.22-6.632 8.588-13.144 13.063-19.605 3.533-5.107 6.992-10.26 10.425-15.435 3.328-5.013 6.679-10.004 10.125-14.937 6.413-9.206 12.578-18.58 18.787-27.925q2.702-4.06 5.416-8.114l1.591-2.379 2.988-4.463a395 395 0 0 0 9.663-15.22L2303 1015h2l.688-2c4.392-10.04 4.392-10.04 8.312-12 .698-1.317 1.36-2.654 2-4q1.257-1.961 2.582-3.879l1.556-2.264 1.675-2.42 3.53-5.128 1.833-2.657q2.656-3.864 5.293-7.742l1.7-2.496q1.584-2.325 3.164-4.654c3.444-5.049 7.011-9.996 10.616-14.93 3.354-4.627 6.608-9.321 9.863-14.018l2.105-3.029q6.005-8.655 11.958-17.346a940 940 0 0 1 21.629-30.23c1.651-2.222 1.651-2.222 2.496-5.207h2l.75-1.562c1.646-3.21 3.448-6.314 5.25-9.438h2l.727-2.14c1.482-3.33 3.37-5.764 5.648-8.61 4.037-5.122 7.882-10.347 11.625-15.687l1.53-2.182 3.02-4.312a876 876 0 0 1 18.165-25.003c3.366-4.516 6.622-9.108 9.887-13.699 4.237-5.958 8.554-11.858 12.882-17.75l4.093-5.571c3.711-5.058 7.383-10.143 11.048-15.234 5.045-7 10.17-13.93 15.375-20.812l4.5-6 2.254-3.004q2.234-2.98 4.46-5.96a980 980 0 0 1 11.599-15.223c4.458-5.74 8.622-11.664 12.774-17.627 3.659-5.217 7.522-10.146 11.67-14.987 1.592-2.008 2.707-3.866 3.743-6.199h2l.832-1.758c1.143-2.194 2.407-4.11 3.856-6.113l1.602-2.22 1.71-2.346 1.769-2.437c7.166-9.833 14.654-19.404 22.188-28.956 3.669-4.664 7.242-9.391 10.777-14.158 2.421-3.219 4.894-6.394 7.37-9.57 3.266-4.207 6.485-8.451 9.709-12.692a3160 3160 0 0 1 16-20.863c2.962-3.91 5.79-7.912 8.593-11.938L2639 555h2l.242-1.676c1.019-3.123 2.757-5.014 4.883-7.511A445 445 0 0 0 2658 531l2.445-3.168c8.02-10.24 8.02-10.24 15.555-20.832h2l.71-1.617c1.667-3.08 3.762-5.76 5.915-8.508l1.347-1.735c3.364-4.323 6.787-8.598 10.22-12.867 3.69-4.64 7.2-9.387 10.558-14.273l2.25-3h2l.715-2.152c1.512-3.35 3.437-5.638 5.847-8.41 3.486-4.068 6.813-8.191 10-12.5 4.301-5.803 8.839-11.371 13.438-16.938a1551 1551 0 0 0 22.644-28.265q3.516-4.496 7.044-8.985l1.396-1.78q3.96-5.039 7.979-10.033a452 452 0 0 0 7.494-9.6c3.916-5.146 7.93-10.17 12.13-15.087 6.641-7.773 12.76-15.778 18.614-24.16L2820 325h2l.834-1.788c1.114-2.114 2.298-3.775 3.818-5.61l1.587-1.931 1.698-2.046q1.773-2.157 3.543-4.316l1.795-2.188c2.532-3.113 5.007-6.27 7.475-9.433a646 646 0 0 1 12.57-15.579c1.711-1.999 1.711-1.999 2.68-4.109h2l.825-1.779c1.15-2.175 2.393-3.876 3.968-5.76l1.65-1.995 1.744-2.091c4.347-5.265 8.51-10.54 12.25-16.262 1.951-2.638 4.232-4.806 6.563-7.113q2.193-2.563 4.313-5.187l2.363-2.918q4.156-5.178 8.297-10.368c4.392-5.476 8.862-10.89 13.316-16.316 3.51-4.282 7.009-8.57 10.461-12.899 10.943-13.716 22.093-27.27 33.25-40.812 10.294-12.495 10.294-12.495 20.5-25.062l1.969-2.442c1.57-1.917 1.57-1.917 2.531-3.996h2l.188-1.687c1.145-3.261 3.36-4.895 5.812-7.313 5.976-6.92 5.976-6.92 11.25-14.375C3005 97 3005 97 3007.191 94.844c3.425-3.467 6.445-7.175 9.497-10.969l1.76-2.168c2.305-2.852 4.516-5.652 6.552-8.707h2l.813-1.75c1.204-2.283 2.595-4.224 4.187-6.25Z"/><path fill="#FF850D" d="M3675 1204c.695 10.29 1.218 20.564 1.5 30.875l.06 2.121c.157 5.668.3 11.336.44 17.004l.07 2.798c1.315 53.213.904 106.264-.67 159.463l-.214 7.189c-.162 5.566-.295 11.133-.416 16.7-.733 32.236-4.947 63.926-9.36 95.826q-.528 3.9-1.009 7.807c-.9 7.274-2.19 14.218-4.151 21.28l-.782 2.907c-.813 3.013-1.64 6.022-2.468 9.03q-1.259 4.604-2.515 9.209-.78 2.85-1.568 5.697l-.718 2.602-.63 2.27c-.613 2.394-1.09 4.798-1.569 7.222-4.852 20.916-10.381 41.312-19 61l-2.316 5.328a7118 7118 0 0 1-3.774 8.66c-6.157 14.121-12.152 28.312-17.66 42.7-2.782 7.263-5.862 14.306-9.25 21.312l-.98 2.082c-4.851 10.062-10.794 19.622-16.684 29.098-3.042 4.936-5.96 9.946-8.898 14.945-3.843 6.535-7.696 13.037-11.876 19.363-1.838 2.956-3.503 5.99-5.183 9.038-11.543 20.708-23.93 41.042-37.8 60.271-2.897 4.042-5.734 8.125-8.579 12.203a4795 4795 0 0 1-13.125 18.688l-1.452 2.056q-3.896 5.515-7.802 11.022l-1.677 2.368a3478 3478 0 0 1-3.2 4.511l-1.443 2.039-1.276 1.798c-1.097 1.554-1.097 1.554-2.025 3.518h-2l-.727 2.11c-1.487 3.376-3.469 6.19-5.648 9.14l-2.71 3.734-1.441 1.979c-2.524 3.49-4.996 7.015-7.474 10.537l-3.07 4.348q-2.72 3.85-5.422 7.71c-5.339 7.59-10.937 14.945-16.687 22.227-2.504 3.18-4.941 6.326-7.11 9.746L3423 2010h-2v3a107 107 0 0 1-3.445 3.426c-5.486 5.554-9.88 12.334-14.555 18.574l-3.656 4.875-1.91 2.547c-5.778 7.703-5.778 7.703-7.637 10.172a354 354 0 0 0-3.531 4.812l-1.61 2.219-1.412 1.977L3382 2063h-2l-.831 1.768c-1.137 2.171-2.385 3.995-3.872 5.939l-1.611 2.112L3372 2075l-1.639 2.123q-2.55 3.287-5.111 6.564c-10.989 14.101-10.989 14.101-21.75 28.376-3.99 5.35-8.21 10.457-12.531 15.539-1.974 2.223-1.974 2.223-2.969 4.398h-2l-.816 1.758c-1.198 2.269-2.525 4.111-4.122 6.117l-1.867 2.363L3317 2145a3838 3838 0 0 0-4.12 5.229q-1.44 1.83-2.881 3.656a312 312 0 0 0-7.561 9.99L3300 2167h-2l-2 5h-2l-.687 2.188c-1.582 3.389-3.612 5.237-6.313 7.812-2.587 2.846-4.763 5.29-6 9a249 249 0 0 1-5 5c-1.84 2.044-3.609 4.143-5.375 6.25l-1.46 1.736c-6.191 7.392-11.945 15.017-17.466 22.924L3250 2229h-2l-.738 1.676c-1.526 2.81-3.395 5.06-5.45 7.512-2.824 3.4-5.617 6.809-8.312 10.312-4.059 5.256-8.28 10.373-12.5 15.5a1600 1600 0 0 0-14.71 18.148 996 996 0 0 1-5.33 6.579l-1.647 2.018-3.37 4.125a389 389 0 0 0-11.872 15.32c-.978 1.306-2.019 2.564-3.071 3.81h-2l-.75 1.625c-1.557 2.957-3.284 5.672-5.25 8.375h-2l-.691 1.602c-1.745 3.196-3.975 5.943-6.247 8.773l-2.96 3.719-1.542 1.933a507 507 0 0 0-4.662 6.004l-1.504 1.952a638 638 0 0 0-2.864 3.749c-1.13 1.46-2.325 2.87-3.53 4.268h-2l-.777 2.242c-1.279 2.884-2.634 4.597-4.785 6.883-5.655 6.17-11.38 12.478-15.876 19.563L3122 2387h-2l-.687 2.188c-1.585 3.395-3.652 5.162-6.313 7.812-2.144 2.472-4.198 5.014-6.25 7.563l-1.716 2.115c-4.278 5.302-8.358 10.723-12.327 16.26L3091 2425h-2l-.762 1.703c-1.426 2.646-3.12 4.74-5.05 7.047l-2.426 2.922-1.335 1.603c-2.666 3.222-5.294 6.476-7.927 9.725a2522 2522 0 0 1-11.125 13.625c-3.881 4.73-7.65 9.544-11.408 14.37-3.097 3.957-6.308 7.767-9.725 11.454-1.467 1.648-1.467 1.648-2.242 4.551a283 283 0 0 1-5 5l-1 2h-2l-.68 1.621c-1.754 3.16-4.074 5.738-6.445 8.441-4.352 5.037-8.325 10.226-12.18 15.657-2.001 2.693-4.324 4.91-6.695 7.281a370 370 0 0 0-6.23 8.77L2995 2543h-2l-.766 1.707c-1.41 2.62-3.075 4.695-4.984 6.98l-2.422 2.918-1.353 1.623c-2.84 3.412-5.655 6.844-8.475 10.272l-3.633 4.41c-8.082 9.813-8.082 9.813-16.055 19.715-3.72 4.667-7.513 9.272-11.312 13.875a1234 1234 0 0 0-15 18.5 1443 1443 0 0 1-14.887 18.371c-2.42 3.012-4.699 6.106-6.922 9.266L2906 2652h-2l-.73 1.668c-1.558 2.861-3.485 5.152-5.582 7.644-2.682 3.217-5.267 6.415-7.626 9.876L2888 2674h-2l-.937 1.875L2883 2680h-2l-.875 1.75L2877 2688h-2l-1 3h-2l-.75 2.188c-2.325 5.231-6.25 8.812-10.25 12.812l-1 2h-2l-.754 2.223c-1.363 3.037-2.886 4.817-5.184 7.215-3.677 3.965-7.075 8.036-10.374 12.312a338 338 0 0 1-11.938 14.563c-3.819 4.407-7.516 8.86-11.059 13.496-4.728 6.126-9.709 12.052-14.735 17.934a359 359 0 0 0-13.188 16.384c-2.954 3.874-6.035 7.612-9.206 11.31a425 425 0 0 0-11.624 14.188l-1.41 1.795c-1.936 2.48-3.782 4.961-5.528 7.58h-2l-.937 1.875L2758 2833h-2l-.875 1.75L2754 2837l-.812 1.938c-1.627 2.824-3.88 4.755-6.188 7.062a313 313 0 0 0-5.45 7.207L2740 2855h-2l-.852 1.76c-4.522 8.821-10.33 12.54-19.148 16.802l-3.409 1.709A1160 1160 0 0 1 2705 2880q-2.044 1.016-4.086 2.04-3.234 1.62-6.477 3.226c-5.124 2.585-10.189 5.283-15.262 7.969-5.758 3.04-11.561 5.977-17.397 8.866-5.101 2.536-10.124 5.2-15.139 7.902-4.464 2.396-8.973 4.686-13.514 6.934a612 612 0 0 0-16.625 8.563 604 604 0 0 1-16.375 8.438c-8.242 4.084-16.368 8.378-24.499 12.676a4097 4097 0 0 1-14.314 7.511l-2.968 1.552a809 809 0 0 1-16.532 8.385c-6.913 3.408-13.643 7.119-20.378 10.865-5.85 3.24-11.77 6.28-17.773 9.223-4.964 2.452-9.75 5.143-14.532 7.93-3.812 2.207-7.675 4.23-11.629 6.17-6.914 3.403-13.661 7.074-20.416 10.782-7.709 4.229-15.453 8.389-23.209 12.53a2306 2306 0 0 0-29.41 15.973c-6.828 3.776-13.684 7.5-20.543 11.219a1824 1824 0 0 0-30.964 17.18c-7.437 4.22-14.912 8.368-22.396 12.503-9.897 5.475-19.695 11.1-29.446 16.832-6.143 3.604-12.319 7.092-18.628 10.399-2.552 1.367-5.014 2.827-7.488 4.332q-2.202 1.32-4.406 2.637l-7.795 4.668a1075 1075 0 0 0-14.861 9.07c-4.592 2.841-9.258 5.461-14.016 8.012-4.044 2.232-7.99 4.62-11.942 7.009-4.91 2.967-9.844 5.889-14.793 8.791-11.971 7.029-11.971 7.029-23.75 14.376-4.034 2.585-8.126 4.972-12.332 7.265-4.216 2.347-8.25 4.984-12.312 7.586-6.292 4.023-12.628 7.972-18.98 11.898A4457 4457 0 0 0 2113 3208l-2.385 1.498a7694 7694 0 0 0-7.552 4.752l-2.331 1.465a492 492 0 0 0-13.655 8.937c-2.104 1.365-4.248 2.59-6.452 3.785-8.422 4.584-16.329 10.018-24.29 15.348-3.755 2.503-7.544 4.954-11.335 7.403l-2.148 1.386-4.482 2.895a7005 7005 0 0 0-12.682 8.218l-2.385 1.546c-6.47 4.202-12.89 8.479-19.303 12.767l-14.4 9.618-4.33 2.894c-7.603 5.083-15.21 10.147-22.96 15.006-3.3 2.117-6.49 4.384-9.693 6.646a660 660 0 0 1-8.93 6.148l-2.925 1.989c-2.543 1.564-4.959 2.693-7.762 3.699v2c-2.16 1.55-2.16 1.55-5.062 3.313-3.424 2.109-6.77 4.23-10 6.624C1915 3338 1915 3338 1913 3338v2c-1.8 1.227-1.8 1.227-4.312 2.625-3.698 2.147-7.191 4.391-10.626 6.938-5.302 3.919-10.695 7.695-16.124 11.437l-2.565 1.783-2.408 1.655-2.168 1.496C1873 3367 1873 3367 1871 3367v2c-1.95 1.375-1.95 1.375-4.687 3-4.936 3.05-9.498 6.38-14.059 9.96-5.112 3.986-10.395 7.703-15.712 11.41-5.962 4.176-11.782 8.523-17.541 12.973-4.788 3.657-4.788 3.657-7.001 3.657v2c-4.385 3-4.385 3-7 3v2a164 164 0 0 1-7.312 5.25q-2.356 1.632-4.708 3.27l-2.486 1.729c-12.437 8.735-24.517 17.985-36.556 27.258q-2.784 2.144-5.57 4.282l-3.368 2.586-3.113 2.39a539 539 0 0 0-5.617 4.407l-2.457 1.953-2.106 1.695C1730 3473 1730 3473 1728 3473v2c-1.871 1.48-1.871 1.48-4.437 3.188-4.42 2.992-8.61 6.162-12.75 9.527C1709 3489 1709 3489 1707 3489v2a142 142 0 0 1-6.625 4.938q-2.076 1.491-4.148 2.988l-2.14 1.545c-3.165 2.319-6.258 4.724-9.337 7.154l-1.754 1.384a701 701 0 0 0-10.621 8.616 270 270 0 0 1-11.062 8.625c-5.765 4.276-11.332 8.771-16.882 13.321-9.063 7.429-9.063 7.429-11.431 7.429v2c-1.68 1.508-1.68 1.508-3.875 3.125l-2.18 1.633C1625 3555 1625 3555 1623 3555v2c-1.898 1.727-1.898 1.727-4.375 3.625l-2.46 1.914C1614 3564 1614 3564 1612 3564v2a197 197 0 0 1-5 3l-1.262 1.277c-2.55 2.528-5.397 4.662-8.238 6.848l-1.762 1.379c-2.566 1.98-4.64 3.463-7.738 4.496v2c-1.46 1.29-1.46 1.29-3.375 2.625l-1.898 1.352C1581 3590 1581 3590 1579 3590l-1 3c-1.367 1.35-1.367 1.35-3.09 2.7l-1.877 1.474-1.97 1.514-1.96 1.548c-4.838 3.764-4.838 3.764-7.103 3.764v2c-1.617 1.227-1.617 1.227-3.875 2.625-4.597 2.946-8.77 6.246-12.96 9.738C1543 3620 1543 3620 1540 3621v2a186 186 0 0 1-6 4l-2.75 2.25C1529 3631 1529 3631 1527 3631v2c-1.33.91-2.669 1.81-4.031 2.672-2.39 1.612-4.602 3.39-6.844 5.203-3.187 2.57-6.376 5.132-9.625 7.625l-1.906 1.469C1503 3651 1503 3651 1501 3651v2c-2.962 2.172-5.507 3.836-9 5v2a148 148 0 0 1-5 3 301 301 0 0 0-5.812 4.438 3053 3053 0 0 1-5.283 4.096c-5.3 4.08-10.667 8.075-16.032 12.07q-1.812 1.35-3.621 2.706a1168 1168 0 0 1-4.627 3.44l-2.586 1.922C1447 3693 1447 3693 1445 3693v2c-2.02 1.664-2.02 1.664-4.812 3.625l-3.051 2.164L1434 3703q-2.755 1.995-5.5 4l-2.746 1.996q-2.772 2.017-5.54 4.04A2137 2137 0 0 1 1412 3719l-2.844 2.059-2.718 1.941-2.442 1.75C1402 3726 1402 3726 1400 3726c1.982-7.751 4.403-15.241 7.168-22.746l1.208-3.307q1.26-3.448 2.529-6.895 1.899-5.171 3.784-10.347c4.63-12.658 9.42-25.234 14.502-37.718 1.065-2.615 2.115-5.236 3.164-7.858l2.752-6.854a851 851 0 0 0 5.295-13.568c2.527-6.585 5.217-13.09 7.973-19.582l1.46-3.448a539 539 0 0 1 9.493-21.052c2.312-5.013 4.42-10.107 6.481-15.228 2.688-6.546 5.866-12.831 9.053-19.144 3.109-6.164 6.114-12.379 9.122-18.593q1.57-3.24 3.141-6.478c3.5-7.22 6.954-14.457 10.313-21.744 3.085-6.664 6.612-13.021 10.265-19.387 2.424-4.238 4.713-8.542 6.985-12.863l2.265-4.305 1.068-2.03c2.96-5.603 6.026-11.147 9.112-16.681l2.43-4.36 1.268-2.273c3.084-5.542 6.101-11.118 9.102-16.705 4.436-8.25 8.902-16.394 13.91-24.31 4.849-7.788 9.19-15.9 13.68-23.897 2.789-4.96 5.61-9.9 8.446-14.834q1.097-1.907 2.19-3.817c6.255-10.91 12.66-21.723 19.147-32.496 4.146-6.887 8.247-13.8 12.319-20.73 5.79-9.839 11.78-19.544 17.814-29.235q8.681-13.988 17.12-28.124c2.368-3.929 4.798-7.82 7.214-11.72a346 346 0 0 0 4.891-8.28l1.364-2.363q1.333-2.316 2.647-4.643c1.053-1.828 2.182-3.612 3.325-5.385h2l.715-2.566c1.45-3.873 3.494-7.012 5.848-10.372 3.417-4.995 6.685-10.03 9.75-15.25 4.263-7.256 8.859-14.282 13.522-21.287l1.638-2.482 1.476-2.218c1.217-1.763 1.217-1.763 1.051-3.825l1.277-1.27c2.234-2.244 3.654-4.703 5.285-7.418l2.141-3.527 1.135-1.874c6.357-10.452 12.965-20.743 19.627-31 3.213-4.95 6.377-9.928 9.535-14.911 6.451-10.162 12.92-20.312 19.523-30.375 6.352-9.684 12.627-19.388 18.605-29.308 3.407-5.628 6.995-11.115 10.701-16.55 1.933-2.843 3.743-5.634 5.171-8.767h2v-3h2l.64-1.937c1.92-4.326 4.505-8.122 7.11-12.063l1.733-2.645a2704 2704 0 0 1 14.538-21.871c2.642-3.946 5.261-7.9 7.792-11.918l1.264-2.006q1.633-2.613 3.251-5.236L1835 2937h2l.703-2.012c1.668-3.844 3.81-7.266 6.047-10.8l1.356-2.158c2.703-4.263 5.485-8.408 8.64-12.354 1.594-2.13 2.889-4.392 4.254-6.676a604 604 0 0 1 4.938-7.437l1.302-1.948 2.559-3.82a976 976 0 0 0 3.228-4.865c2.135-3.17 4.358-6.271 6.598-9.367 4.02-5.59 7.887-11.264 11.68-17.008a567 567 0 0 1 8.57-12.555c2.95-4.233 5.692-8.451 8.125-13h2l.621-1.953c1.955-4.32 4.683-7.955 7.441-11.797 5.586-7.868 11.044-15.811 16.438-23.812 6.753-9.988 13.773-19.733 20.983-29.392 2.231-3.01 4.41-6.054 6.58-9.108 3.787-5.331 7.604-10.64 11.437-15.938 5.823-8.055 5.823-8.055 11.625-16.125l1.19-1.657a434 434 0 0 0 6.677-9.64l1.52-2.245q1.464-2.172 2.91-4.357c1.143-1.694 2.354-3.34 3.578-4.976h2c.235-.687.47-1.374.71-2.082 1.56-3.528 3.652-6.507 5.915-9.606l1.215-1.7c3.216-4.457 6.64-8.732 10.085-13.013 3.344-4.189 6.584-8.455 9.825-12.724l2.105-2.767a2385 2385 0 0 0 12.27-16.296c7.048-9.437 14.317-18.701 21.57-27.98 5.145-6.598 10.204-13.259 15.256-19.928 6.025-7.93 12.221-15.713 18.549-23.404a790 790 0 0 0 8.375-10.375c3.521-4.42 7.173-8.723 10.843-13.02 3.41-4.017 6.68-8.128 9.907-12.293 3.828-4.935 7.84-9.599 12.07-14.199 3.19-3.616 6.12-7.414 9.074-11.224 3.63-4.665 7.395-9.194 11.233-13.69a630 630 0 0 0 8.873-10.637l2.184-2.671a478 478 0 0 0 3.539-4.407A99 99 0 0 1 2177 2476h2l.746-1.71c1.473-2.689 3.237-4.663 5.316-6.915l2.434-2.66L2190 2462c5.015-5.466 9.87-10.936 14.297-16.895 2.069-2.557 4.362-4.795 6.703-7.105 1.94-2.02 3.847-4.07 5.75-6.125l1.574-1.696c4.206-4.575 8.114-9.325 11.934-14.23L2232 2414h2l.652-1.617c1.844-3.26 4.348-5.811 6.91-8.508 3.624-3.639 3.624-3.639 6.438-7.875h2l.7-1.66c1.668-3.002 3.781-5.257 6.113-7.778l2.582-2.808a258 258 0 0 1 5.242-5.383 87 87 0 0 0 5.363-5.871c2.502-3.014 5.212-5.748 8-8.5 10.321-10.197 10.321-10.197 20-21 8.264-9.568 8.264-9.568 11-12h2l.797-1.793c1.257-2.306 2.55-3.724 4.453-5.52 2.424-2.348 4.702-4.728 6.875-7.312 2.489-2.953 5.11-5.674 7.875-8.375a1384 1384 0 0 0 4.375-4.312l2.148-2.114a126 126 0 0 0 5.348-5.949c5.894-6.79 12.43-12.992 18.816-19.312q3.918-3.877 7.825-7.762l1.793-1.768c3.134-3.116 5.95-6.312 8.695-9.783a524 524 0 0 1 5-4l2-3h2v-2c1.355-1.332 1.355-1.332 3.188-2.812 3.115-2.585 5.982-5.287 8.812-8.188l1.617-1.586c3.77-3.703 7.288-7.552 10.746-11.547 2.122-2.42 4.26-4.694 6.637-6.867h2l1-3h2l1-3h2v-2h2v-2h2v-2h2l2-4h2l1-3h2l.813-1.937C2443 2194 2443 2194 2446 2193c.698-1.317 1.36-2.653 2-4 1.656-1.922 1.656-1.922 3.5-3.75l1.844-1.86C2455 2182 2455 2182 2457 2182l.68-1.668c1.73-3.058 3.942-5.18 6.445-7.644l1.509-1.49c2.63-2.576 5.308-5.067 8.116-7.448 7.792-6.642 14.801-14.238 21.984-21.523a84 84 0 0 1 5.829-5.227c2.881-2.427 5.1-5.04 7.437-8a263 263 0 0 1 5-4 447 447 0 0 0 5-5c14.546-14.714 14.546-14.714 20.254-19.473 2.361-2.065 4.545-4.294 6.746-6.527a7310 7310 0 0 1 8.813-8.875c.768-.777 1.537-1.555 2.33-2.355 3.53-3.546 7.073-7.015 10.869-10.278 4.569-3.929 8.765-8.197 12.988-12.492 4.858-4.941 9.747-9.74 15.004-14.258 3.598-3.14 7.036-6.452 10.496-9.742 4.842-4.604 9.722-9.128 14.786-13.488 1.52-1.341 2.968-2.766 4.401-4.2 2.313-2.312 2.313-2.312 5.063-4.5 2.325-1.615 2.325-1.615 3.25-3.812h2v-2c1.61-1.586 1.61-1.586 3.75-3.375 2.319-1.963 4.502-3.884 6.625-6.062C2648 1997 2648 1997 2650 1997v-2c1.61-1.656 1.61-1.656 3.75-3.5l2.11-1.844c1.985-1.536 3.859-2.628 6.14-3.656v-2c1.484-1.478 1.484-1.478 3.527-3.184 4.13-3.512 8.095-7.157 12.035-10.879l4.192-3.94 2.13-2.005c16.784-15.794 16.784-15.794 23.405-21.46 2.555-2.287 4.912-4.756 7.266-7.247C2716 1934 2716 1934 2718 1934v-2c1.68-1.727 1.68-1.727 3.875-3.625l2.18-1.914C2726 1925 2726 1925 2728 1925v-2c1.593-1.435 3.253-2.798 4.938-4.125 6.066-4.856 12.001-9.814 17.5-15.312 2.527-2.528 5.115-4.96 7.75-7.376l2.605-2.394C2763 1892 2763 1892 2765 1892v-2c1.398-1.41 1.398-1.41 3.375-3.062 3.254-2.766 6.46-5.571 9.625-8.438a829 829 0 0 1 10.938-9.687 718 718 0 0 0 7.062-6.313 795 795 0 0 1 16.469-14.46l1.884-1.61q1.86-1.586 3.724-3.168c2.51-2.14 4.918-4.257 7.22-6.625C2827 1835 2827 1835 2829 1835v-2h2v-2c4.47-4 4.47-4 7-4l.625-1.687c1.952-3.283 4.317-5.02 7.375-7.313h2v-2c4.47-4 4.47-4 7-4v-2c1.695-1.523 1.695-1.523 4.125-3.375 5.089-3.965 9.993-8.108 14.875-12.324q1.68-1.448 3.361-2.892 1.669-1.435 3.325-2.884c4.091-3.525 4.091-3.525 6.314-3.525v-2c1.487-1.354 3.044-2.631 4.625-3.875a465 465 0 0 0 13.25-11c5.21-4.486 10.44-8.948 15.698-13.378a506 506 0 0 0 8.615-7.435C2932 1745 2932 1745 2934 1745v-2a742 742 0 0 1 6-4l2.75-2.75 2.25-2.25h2v-2c1.695-1.523 1.695-1.523 4.125-3.375 5.089-3.965 9.993-8.108 14.875-12.324q1.68-1.448 3.361-2.892 1.669-1.435 3.325-2.884c4.091-3.525 4.091-3.525 6.314-3.525v-2a249 249 0 0 1 6-4l1.75-1.75 1.25-1.25h2v-2a99 99 0 0 1 5.25-3.875c3.592-2.499 6.695-5.002 9.75-8.125a175 175 0 0 1 4.5-3.562l2.281-1.754L3014 1677l2.156-1.715C3018 1674 3018 1674 3020 1674v-2a113 113 0 0 1 5.75-4.5c5.817-4.353 11.381-8.924 16.887-13.664C3045 1652 3045 1652 3047 1652v-2c1.434-1.31 1.434-1.31 3.438-2.793l2.214-1.662 2.348-1.733c5.243-3.893 10.319-7.856 15.176-12.227 5.277-4.585 5.277-4.585 7.824-4.585v-2a114 114 0 0 1 5.813-4.562q1.785-1.34 3.57-2.684l1.829-1.379c3.643-2.802 7.135-5.789 10.643-8.758C3102 1606 3102 1606 3104 1606v-2a93 93 0 0 1 5.188-3.875c2.927-2.061 5.787-4.105 8.55-6.383C3120 1592 3120 1592 3122 1592v-2l4-1v-2a161 161 0 0 1 7.063-5.25c4.628-3.28 9.054-6.642 13.327-10.375 2.212-1.89 4.548-3.57 6.923-5.25 3.621-2.6 7.158-5.259 10.624-8.062A499 499 0 0 1 3175.5 1549l3.031-2.312C3181 1545 3181 1545 3183 1545v-2c2.24-1.725 4.48-3.346 6.813-4.937q1.918-1.323 3.832-2.653l1.73-1.183c1.705-1.287 3.116-2.717 4.625-4.227a155 155 0 0 1 3.965-3.047l2.394-1.788 2.579-1.915 5.445-4.062 2.821-2.102c3.537-2.64 7.065-5.291 10.592-7.944q4.926-3.701 9.862-7.39l4.641-3.476q3.158-2.363 6.326-4.714l1.884-1.415c4.261-3.147 4.261-3.147 6.491-3.147v-2c1.648-1.03 3.321-2.02 5-3 2.1-1.57 4.17-3.173 6.23-4.793C3270 1478 3270 1478 3272 1478v-2a149 149 0 0 1 6-4l2.25-1.75c1.75-1.25 1.75-1.25 3.75-1.25v-2c1.637-1.26 1.637-1.26 3.91-2.684 5.024-3.24 9.77-6.763 14.528-10.379 13.376-10.09 26.92-19.867 40.793-29.262 5.763-3.926 11.279-8.081 16.761-12.386 4.028-3.066 8.204-5.839 12.45-8.598 2.545-1.635 2.545-1.635 4.773-3.414C3379 1399 3379 1399 3381 1399v-2c1.871-1.262 1.871-1.262 4.438-2.687 3.425-1.988 6.602-4.018 9.687-6.5 6.042-4.836 12.48-9.095 18.874-13.446 2.442-1.668 4.873-3.353 7.302-5.042q3.844-2.669 7.699-5.325l2.734-1.89 2.454-1.672 2.105-1.442C3438 1358 3438 1358 3440 1358v-2a108 108 0 0 1 6.25-4.125q1.946-1.224 3.89-2.45l1.98-1.239c7.833-4.94 15.43-10.212 22.898-15.686 3.245-2.355 6.537-4.404 10.046-6.36 4.097-2.412 7.963-5.19 11.874-7.89 15.985-10.961 32.038-21.807 48.468-32.092a585 585 0 0 0 16.018-10.432c5.477-3.682 11.021-7.257 16.592-10.797 3.491-2.237 6.857-4.555 10.152-7.074 2.952-2.245 5.889-4.113 9.207-5.793 4.512-2.388 8.59-5.074 12.73-8.05 3.732-2.593 7.55-5.03 11.395-7.45l2.143-1.362c5.118-3.2 5.118-3.2 7.357-3.2v-2l5-1v-2c1.695-1.191 1.695-1.191 4.125-2.562a294 294 0 0 0 12.688-7.813c4.792-3.095 9.595-6.17 14.437-9.187l3.203-2.004C3673 1204 3673 1204 3675 1204ZM3756 2683c-.712 4.208-1.996 8.123-3.437 12.125l-.79 2.204q-1.38 3.838-2.773 7.671l-1.068 2.966c-12.024 33.327-25.467 66.611-41.932 98.034l-1.012 1.944c-2.21 4.241-4.452 8.465-6.714 12.678q-1.338 2.496-2.666 4.998c-5.579 10.498-11.306 20.764-17.88 30.674-2.465 3.72-4.763 7.444-6.853 11.394-6.356 11.957-14.21 22.519-22.586 33.12a264 264 0 0 0-7.477 9.942c-3.435 4.797-7.064 9.418-10.73 14.038-3.588 4.536-7 9.177-10.328 13.907-1.772 2.329-3.57 4.358-5.754 6.305h-2l-.645 1.64c-1.845 3.213-4.395 5.566-7.043 8.11-4.058 3.972-7.923 7.997-11.605 12.324-2.69 3.036-5.61 5.836-8.496 8.684-2.697 2.735-5.213 5.593-7.703 8.515-1.45 1.66-2.861 3.26-4.508 4.727h-2l-.75 1.734c-1.443 2.616-3.132 4.414-5.25 6.516l-2.125 2.14C3560 3001 3560 3001 3558 3001l-1 3c-1.828 1.656-1.828 1.656-4.25 3.5a360 360 0 0 0-12.5 10.188 2501 2501 0 0 1-4.705 3.997 340 340 0 0 0-3.2 2.759c-4.127 3.556-4.127 3.556-6.345 3.556v2c-1.59 1.46-3.25 2.842-4.937 4.188l-3.036 2.433a607 607 0 0 1-9.957 7.676c-2.2 1.753-2.2 1.753-4.515 4.148-2.415 2.415-4.893 4.545-7.555 6.68-3.067 2.473-6.114 4.955-9.078 7.55-6.061 5.294-12.23 10.037-18.984 14.415-5.1 3.312-10.029 6.822-14.938 10.41-6.16 4.497-12.381 8.855-18.791 12.99-3.281 2.138-6.39 4.406-9.463 6.834-5.037 3.964-10.303 7.54-15.621 11.113-6.769 4.579-13.48 9.196-20.059 14.043-7.506 5.52-7.506 5.52-10.066 5.52v2c-2.02 1.48-2.02 1.48-4.812 3.188l-3.07 1.898L3368 3147q-2.597 1.65-5.187 3.313a1295 1295 0 0 1-11.422 7.182 1412 1412 0 0 0-23.266 14.83q-4.02 2.613-8.062 5.195l-3.688 2.355-1.744 1.113a171 171 0 0 0-8.881 6.075C3303 3189 3303 3189 3301 3189l-1 2a112 112 0 0 1-5.125 3c-5.69 3.242-11.126 6.757-16.534 10.447C3267.215 3212 3267.215 3212 3264 3212v2a121 121 0 0 1-6.875 4.25l-2.074 1.218q-2.068 1.213-4.14 2.419a632 632 0 0 0-7.349 4.363l-2.34 1.398c-2.91 1.77-5.774 3.61-8.628 5.47-1.594.882-1.594.882-3.594.882v2l-1.879.996c-8.203 4.406-16.168 9.168-24.121 14.004l-2.839 1.726q-8.864 5.39-17.72 10.791L3180 3265l-2.687 1.69C3175 3268 3175 3268 3173 3268v2l-1.73.813c-6.489 3.135-12.517 6.743-18.582 10.613C3150 3283 3150 3283 3148 3283v2l-1.844.96c-5.804 3.09-11.415 6.401-16.968 9.915-6.036 3.816-12.151 7.428-18.372 10.938-4.59 2.609-9.107 5.338-13.628 8.062-6.21 3.741-12.432 7.46-18.688 11.125-10.865 6.369-21.654 12.864-32.434 19.375a1146 1146 0 0 1-22.931 13.469 475 475 0 0 0-13.346 7.984c-6.26 3.87-12.597 7.599-18.96 11.296-10.066 5.854-20.051 11.808-29.923 17.983-7.197 4.489-14.478 8.83-21.781 13.143l-1.77 1.046-8.412 4.965c-7.63 4.509-15.235 9.058-22.771 13.723l-2.508 1.548a1132 1132 0 0 0-4.854 3.016c-.727.45-1.455.9-2.205 1.362l-1.964 1.223C2893 3437 2893 3437 2891 3437v2l-1.703.89c-8.449 4.51-16.624 9.455-24.82 14.403l-2.374 1.431a430 430 0 0 0-5.08 3.14C2855 3460 2855 3460 2853 3460v2l-1.95 1.031c-6.457 3.464-12.719 7.169-18.94 11.04a476 476 0 0 1-7.923 4.804c-4.883 2.92-9.703 5.935-14.523 8.956a4162 4162 0 0 1-22.695 14.095 1463 1463 0 0 0-9.125 5.68l-1.837 1.147q-2.355 1.474-4.706 2.954C2769 3513 2769 3513 2767 3513l-1 3c-2.062.938-2.062.938-5 2l-3.434 1.762c-5.382 2.716-10.963 4.899-16.566 7.113l-3.385 1.346a888 888 0 0 1-19.253 7.391c-9.645 3.581-19.197 7.41-28.768 11.184q-6.458 2.546-12.922 5.079a5271 5271 0 0 0-45.781 18.184c-8.003 3.219-16.011 6.384-24.104 9.369-8.66 3.227-17.218 6.719-25.79 10.17a1293 1293 0 0 1-20.595 8.1c-26.933 10.31-53.724 20.977-80.476 31.747-7.745 3.115-15.5 6.17-23.327 9.072-13.62 5.074-27.1 10.522-40.617 15.859l-12.368 4.88a3503 3503 0 0 1-23.177 9.06l-2.112.817a5718 5718 0 0 1-9.926 3.822 697 697 0 0 0-19.655 7.902c-3.93 1.637-7.895 3.178-11.869 4.706l-4.676 1.808-2.21.855c-3.203 1.246-6.39 2.532-9.579 3.817-2.918 1.159-5.851 2.276-8.785 3.394a372 372 0 0 0-12.562 5.063c-5.466 2.304-11.018 4.282-16.614 6.246-4.146 1.507-8.195 3.192-12.242 4.945L2267 3713l-2.24.986c-7.586 3.099-14.253 3.574-22.386 3.502q-2.02.003-4.041.012c-3.674.011-7.348-.003-11.022-.021-3.974-.015-7.95-.007-11.924-.002a6446 6446 0 0 1-23.35-.031c-9.101-.025-18.202-.028-27.303-.03-16.28-.003-32.56-.026-48.84-.06q-23.569-.049-47.138-.06c-1.445-.002-1.445-.002-2.92-.002l-11.63-.006q-23.972-.014-47.942-.044l-10.833-.01c-73.896-.07-73.896-.07-105.726-1.13-11.377-.319-22.762-.302-34.142-.291l-3.92.001c-32.295.04-64.125 1.278-96.129 5.701-3.207.443-6.416.86-9.627 1.27-9.883 1.288-19.493 3.063-29.151 5.531-3.336.834-6.682 1.617-10.029 2.403-21.19 5.025-41.355 11.752-61.512 20.027-3.017 1.184-6.036 2.175-9.132 3.129-5.47 1.77-10.483 4.223-15.576 6.851-5.435 2.792-10.96 5.31-16.55 7.774-8.542 3.792-16.775 7.954-24.937 12.5l-4.094 2.254c-6.913 3.829-13.699 7.756-20.281 12.14-2.14 1.309-4.23 2.414-6.48 3.504-4.058 1.994-7.736 4.357-11.457 6.914l-3.942 2.665-1.93 1.305c-5.057 3.392-10.225 6.622-15.41 9.816-6.023 3.746-11.752 7.787-17.445 12.01-4.688 3.474-9.432 6.857-14.211 10.204-16.952 11.906-33.455 24.434-50.007 36.886-11.04 8.303-22.05 16.573-33.59 24.177-3.357 2.263-6.63 4.621-9.903 7-5.701 4.13-11.575 7.898-17.57 11.585-3.641 2.246-7.2 4.547-10.68 7.04-6.778 4.841-13.913 9.13-21 13.5l-3.11 1.926c-10.927 6.75-21.906 13.416-32.89 20.074l-2.691 1.692C1300 3967 1300 3967 1298 3967c2.32-7.54 5.4-14.552 8.75-21.687l.845-1.809c4.608-9.858 9.368-19.638 14.217-29.379l.915-1.845c6.048-12.178 12.732-23.939 19.835-35.53l1.404-2.297c3.095-5.026 6.324-9.924 9.792-14.703 1.298-1.734 1.298-1.734 2.242-3.75h2l.875-2.25c2.523-6.168 2.523-6.168 4.45-8.031 2.134-2.19 3.79-4.595 5.55-7.094 2.803-3.9 5.63-7.318 9.125-10.625l2.5-3c2.366-2.839 4.89-5.39 7.5-8l2-3h2l.688-1.672c1.7-3.015 3.86-5.14 6.312-7.578l2.688-2.703C1404 3800 1404 3800 1406 3800v-2c1.875-2.125 1.875-2.125 4-4h2v-2c1.469-1.445 1.469-1.445 3.5-3.125a128 128 0 0 0 8.625-8c3.151-3.189 6.307-6.156 9.875-8.875h2l1-3c1.977-1.805 1.977-1.805 4.625-3.875 5.548-4.421 10.911-9.02 16.247-13.695 8.507-7.43 8.507-7.43 11.128-7.43v-2c1.68-1.508 1.68-1.508 3.875-3.125l2.18-1.633C1477 3736 1477 3736 1479 3736l1-3 4-2a587 587 0 0 0 3.305-3.426c10.31-9.574 10.31-9.574 14.695-9.574v-2c1.773-1.453 1.773-1.453 4.375-3.25 6.206-4.393 12.188-9.04 18.166-13.737C1537.32 3689 1537.32 3689 1540 3689v-2c1.371-1.05 1.371-1.05 3.438-2.312 4.781-3.076 9.257-6.462 13.75-9.938a581 581 0 0 1 19.617-14.488 722 722 0 0 0 8.695-6.262l5.5-4 1.801-1.316c1.917-1.4 3.839-2.792 5.762-4.184l1.843-1.352c4.366-3.148 4.366-3.148 6.594-3.148v-2c1.582-1.227 1.582-1.227 3.813-2.625a202 202 0 0 0 10.187-7c4.65-3.409 9.346-6.746 14.063-10.062a1981 1981 0 0 0 34.5-24.876c8.06-5.932 16.246-11.685 24.437-17.437q4.22-2.966 8.438-5.937l2.099-1.48c6.083-4.295 12.12-8.654 18.137-13.044 4.376-3.18 8.822-6.224 13.334-9.208 2.28-1.523 4.485-3.126 6.68-4.769 8.331-6.106 16.929-11.833 25.474-17.634 11.433-7.768 22.847-15.56 34.127-23.55 8.51-6 17.202-11.728 25.883-17.48a850 850 0 0 0 15.14-10.273A781 781 0 0 1 1857.5 3463a754 754 0 0 0 14-9.5c6.421-4.466 12.92-8.807 19.438-13.13q4.463-2.967 8.92-5.942l4.625-3.08a1188 1188 0 0 0 10.255-6.887l3.262-2.211 2.813-1.922C1923 3419 1923 3419 1925 3419v-2c1.494-1.126 1.494-1.126 3.586-2.355l2.307-1.377 2.482-1.456c7.486-4.476 14.685-9.17 21.707-14.347 4.739-3.465 4.739-3.465 6.918-3.465v-2l3.375-1.562c5.25-2.626 9.88-6.006 14.625-9.438 4.94-3.53 9.797-6.94 15.125-9.863 2.385-1.446 4.576-3.095 6.813-4.762 5.267-3.898 10.728-7.374 16.316-10.786 3.298-2.02 6.488-4.098 9.605-6.39C2031 3347 2031 3347 2033 3347v-2c1.66-1.156 1.66-1.156 4.063-2.5 4.42-2.567 8.696-5.276 12.937-8.125l1.898-1.273q1.994-1.338 3.987-2.68 5.676-3.814 11.365-7.61l2.331-1.556a700 700 0 0 1 14.646-9.483c3.47-2.22 6.906-4.49 10.336-6.773l1.94-1.292c4.515-3.02 8.96-6.13 13.349-9.333 2.148-1.375 2.148-1.375 4.859-2.437 2.45-.71 2.45-.71 3.289-2.938a104 104 0 0 1 4.813-3.125c6.147-3.835 12.17-7.839 18.187-11.875l4.5-3 2.156-1.437L2156 3264l3.098-2.066a1948 1948 0 0 1 5.21-3.461 502 502 0 0 0 11.49-7.842c4.771-3.346 9.544-6.457 14.694-9.193 6.772-3.882 13.148-8.481 19.605-12.86 6.656-4.482 13.486-8.657 20.35-12.81 3.797-2.325 7.497-4.59 10.881-7.495 2.509-2.134 4.815-3.592 7.735-5.086 7.773-4.117 15.174-8.82 22.617-13.5 7.29-4.578 14.616-9.086 22.008-13.5 12.592-7.52 25.115-15.167 37.437-23.124 4.167-2.667 8.432-5.066 12.793-7.399 3.72-2.009 7.401-4.084 11.082-6.164 4.605-2.6 9.22-5.176 13.875-7.687 4.23-2.292 8.348-4.733 12.458-7.23 2.58-1.531 5.186-2.983 7.823-4.411l2.918-1.584L2395 3117q2.61-1.428 5.219-2.86a1916 1916 0 0 1 33.368-17.875c2.514-1.318 5.02-2.648 7.526-3.98 9.619-5.1 19.305-9.966 29.16-14.59a373 373 0 0 0 16.977-8.57c19.554-10.43 39.777-19.474 60.021-28.466 5.65-2.512 11.291-5.044 16.933-7.575q2.784-1.25 5.568-2.494a1751 1751 0 0 0 15.228-6.88c10.986-5.032 22.101-9.74 33.25-14.398l2.303-.964c8.504-3.56 17.036-6.995 25.682-10.197 6.615-2.452 13.16-5.073 19.702-7.713l7.797-3.13 2.019-.809a4334 4334 0 0 1 21.78-8.65q2.124-.837 4.247-1.677c8.032-3.176 16.083-6.272 24.22-9.172l3.15-1.131a6825 6825 0 0 1 14.01-5.01 4469 4469 0 0 1 35.95-12.632l2.607-.908q2.392-.832 4.785-1.66a506 506 0 0 0 13.055-4.76c8.85-3.354 17.77-6.433 26.756-9.399q2.195-.727 4.39-1.457c8.792-2.911 17.6-5.763 26.442-8.52 6.298-1.966 12.575-4 18.855-6.023a4563 4563 0 0 1 50.195-15.83c6.819-2.11 13.63-4.244 20.43-6.412 15.099-4.806 30.2-9.418 45.499-13.549a461 461 0 0 0 21.865-6.498c7.278-2.343 14.636-4.368 22.005-6.401 8.143-2.26 16.233-4.667 24.318-7.122 16.42-4.973 32.946-9.543 49.489-14.084q8.425-2.316 16.85-4.64l5.605-1.54 3.373-.928 2.94-.807c1.824-.517 3.632-1.09 5.431-1.689q2.547-.704 5.102-1.383l3.133-.837 3.39-.905a2037 2037 0 0 0 26.625-7.312c10.042-2.835 20.117-5.539 30.205-8.205 9.713-2.567 9.713-2.567 19.36-5.368a299 299 0 0 1 19.314-5.138c12.624-2.96 25.136-6.331 37.657-9.693a9653 9653 0 0 1 23.47-6.261c16.326-4.34 32.693-8.514 49.071-12.655l6.767-1.712 3.399-.86c8.624-2.185 17.24-4.405 25.85-6.64l9.854-2.556c35.511-9.213 71.116-18.01 106.794-26.553l3-.718c.872-.21 1.745-.418 2.644-.633 4.058-.98 8.103-2.01 12.15-3.03 18.17-4.58 36.34-9.128 54.609-13.295 4.882-1.118 9.737-2.258 14.555-3.625 5.41-1.507 10.87-2.74 16.348-3.969 10.4-2.335 20.754-4.83 31.102-7.386 13.734-3.39 27.47-6.754 41.263-9.895 7.7-1.756 15.387-3.562 23.068-5.398l6.996-1.663q5.297-1.258 10.591-2.526 4.974-1.191 9.953-2.37l3.052-.738 2.841-.67 2.475-.59c2.499-.44 4.83-.488 7.362-.416ZM1801.753 1304.863q3.123.132 6.247.258c14.27.578 28.507 1.446 42.75 2.504l3.424.253c32.798 2.45 65.53 5.626 98.258 8.868l7.905.781q16.233 1.604 32.46 3.257 5.188.528 10.375 1.046 6.07.608 12.137 1.239 2.235.23 4.472.451c2.033.202 4.066.415 6.098.63l3.455.353C2032 1325 2032 1325 2034 1327a900 900 0 0 1-18.532 34.08c-2.633 4.61-5.183 9.225-7.52 13.991-5.973 12.152-12.619 23.95-19.327 35.706a337 337 0 0 0-10.078 19.164c-2.097 4.157-4.474 8.124-6.855 12.121-2.264 3.941-4.233 8.006-6.231 12.086-1.34 2.621-2.781 5.102-4.332 7.602-2.952 4.797-5.448 9.765-7.882 14.839-2.462 5.058-5.226 9.914-8.036 14.786-3.939 6.852-7.636 13.828-11.332 20.812q-2.034 3.836-4.07 7.668c-.326.613-.65 1.227-.986 1.858a1199 1199 0 0 1-7.568 13.97 205 205 0 0 0-2.974 5.762l-1.34 2.68-1.347 2.758c-1.59 2.117-1.59 2.117-3.684 2.969-4.168.212-8.197-.174-12.343-.602l-2.921-.281a2012 2012 0 0 1-16.287-1.668c-20.888-2.184-41.795-3.784-62.753-5.132q-3.726-.243-7.45-.494c-31.034-2.06-62.063-1.989-93.152-1.675l-2.487.022c-38.486.357-77.119 4.154-115.223 9.393-3.94.541-7.884 1.047-11.83 1.546-19.549 2.515-38.906 6.031-58.28 9.635q-3.115.576-6.232 1.14c-10.414 1.906-20.746 4.123-31.073 6.451l-2.62.59c-16.21 3.653-32.244 7.779-48.255 12.223q-2.57.7-5.14 1.398A996 996 0 0 0 1423 1586l-2.087.597c-11.49 3.312-22.881 6.95-34.264 10.612q-2.422.778-4.847 1.552A407 407 0 0 0 1351 1610a542 542 0 0 1-7.937 3l-4.004 1.492L1335 1616c-11.91 4.424-11.91 4.424-23.73 9.082a298 298 0 0 1-4.57 1.805c-5.631 2.184-11.084 4.676-16.536 7.265-5.181 2.438-10.436 4.66-15.726 6.848-8.014 3.328-15.722 7.024-23.438 11-2.621 1.32-5.248 2.628-7.875 3.937l-4.082 2.043q-3.898 1.95-7.805 3.883c-17.228 8.538-34.214 17.391-50.77 27.18a409 409 0 0 1-20.835 11.504c-2.691 1.326-2.691 1.326-4.633 3.453h-3v2c-1.922 1.27-1.922 1.27-4.75 2.812-8.59 4.86-16.769 10.33-25.021 15.737a498 498 0 0 1-8.104 5.138c-4.816 3.044-9.427 6.344-14.05 9.67-3.417 2.46-6.843 4.9-10.325 7.268l-2.078 1.414C1086 1749 1086 1749 1084 1749v2l-4 1v2h-3v2a204 204 0 0 1-5 3c-3.487 2.522-6.882 5.169-10.293 7.793l-2.09 1.59-1.887 1.45C1056 1771 1056 1771 1053 1772v2c-1.554 1.253-3.172 2.426-4.812 3.562-4 2.833-7.856 5.744-11.625 8.875a241 241 0 0 1-11.563 9c-5.057 3.752-9.677 7.81-14.285 12.094-2.668 2.426-5.408 4.707-8.215 6.969-4.799 3.87-9.33 7.969-13.86 12.148-2.43 2.165-4.915 4.148-7.515 6.102-3.613 2.737-6.26 5.723-9.125 9.25-1.904 1.743-3.863 3.409-5.828 5.082-2.325 2.053-4.496 4.209-6.672 6.418a160 160 0 0 1-10.578 9.797c-2.412 2.137-4.655 4.413-6.922 6.703a2225 2225 0 0 1-3.086 3.05c-5.281 5.231-10.483 10.447-15.3 16.114-3.776 4.296-7.958 8.222-12.051 12.211-7.048 6.745-7.048 6.745-12.563 14.625h-2l-.75 1.672c-1.492 2.78-3.287 5.11-5.25 7.578l-2.125 2.703L887 1930h-2v2h-2l-.64 1.578c-1.935 3.446-4.502 6.218-7.11 9.172-3.446 3.945-6.81 7.87-9.875 12.125L863 1958h-2c-.269.57-.538 1.141-.814 1.73-2.146 4.109-4.981 7.765-7.686 11.52-.594.84-1.189 1.68-1.8 2.547l-1.731 2.406-1.58 2.208L846 1980h-2l-.781 1.672c-1.399 2.671-3.007 5.097-4.719 7.578l-1.844 2.703L835 1994h-2l-.703 2.11c-1.552 3.457-3.687 6.212-6.047 9.14-3.437 4.296-6.588 8.69-9.612 13.287-3.065 4.608-6.274 9.118-9.45 13.65-7.889 11.305-15.756 22.595-22.188 34.813h-2l-.734 2.578c-1.39 3.755-3.298 6.874-5.516 10.172l-2.45 3.734-1.2 1.827c-3.84 5.895-7.3 12.024-10.784 18.134q-4.137 7.254-8.316 14.485l-3 5.21q-1.497 2.594-3 5.184c-4.642 8.053-8.873 16.263-12.975 24.603-1.738 3.515-3.51 7.011-5.279 10.51l-3.228 6.417q-1.08 2.147-2.166 4.292A519 519 0 0 0 710 2205l-1.324 3.078a2769 2769 0 0 0-3.363 7.86c-2.41 5.65-4.848 11.283-7.35 16.893-9.268 20.884-17.453 42.255-24.835 63.874q-1.73 5.049-3.478 10.093a8420 8420 0 0 0-3.514 10.193q-.876 2.542-1.755 5.083c-3.08 8.913-6.05 17.783-8.381 26.926q-1.06 3.813-2.125 7.625l-2.033 7.341q-.923 3.323-1.852 6.642c-4.926 17.59-9.475 35.173-13.27 53.048-.762 3.538-1.551 7.068-2.349 10.598l-.821 3.643q-.771 3.413-1.547 6.823a296 296 0 0 0-3.449 17.927c-.653 3.954-1.377 7.893-2.105 11.833-4.003 21.882-7.182 43.754-9.673 65.859a492 492 0 0 1-1.815 14.048c-1.156 8.522-1.756 17.069-2.339 25.645-.183 2.7-.374 5.4-.565 8.1-1.33 18.91-2.214 37.775-2.56 56.73q-.091 4.899-.19 9.798c-.231 11.781-.393 23.556-.307 35.34l.014 2.038c.522 64.897 8.368 129.29 19.752 193.107l.548 3.108c1.105 6.086 2.461 12.065 3.998 18.056.823 3.218 1.556 6.45 2.266 9.695 3.781 17.102 7.859 34.083 12.422 50.996l.942 3.542c4.713 17.643 10.075 35.037 15.746 52.395l.963 2.95c6.05 18.484 12.488 36.775 19.474 54.925l.98 2.548c7.478 19.423 15.436 38.622 24.391 57.417 1.566 3.355 3.01 6.746 4.442 10.16 3.043 7.178 6.502 14.102 10.039 21.044a687 687 0 0 1 2.96 5.921c8.64 17.458 17.906 34.516 27.553 51.437a941 941 0 0 1 4.092 7.29c3.73 6.709 7.561 13.302 11.746 19.742 1.763 2.772 3.41 5.593 5.047 8.441 3.593 6.213 7.45 12.234 11.364 18.246 1.352 2.082 2.694 4.17 4.034 6.258l2.852 4.434 1.306 2.038c2.968 4.602 6.063 9.102 9.217 13.579 1.896 2.695 3.774 5.403 5.649 8.113 12.682 18.32 25.585 36.424 39.805 53.594C852 3373 852 3373 852 3375h2c1.274 1.574 2.469 3.212 3.625 4.875 4.64 6.535 9.321 13.071 15 18.75 2.627 2.627 4.7 5.448 6.883 8.445 1.36 1.76 2.762 3.272 4.367 4.805L886 3414v2h2c1.523 1.73 1.523 1.73 3.375 4.187 3.977 5.129 8.276 9.843 12.763 14.52C908 3438.79 908 3438.79 908 3441l3 1c1.648 1.707 1.648 1.707 3.375 3.812 1.974 2.334 3.73 4.273 6.125 6.188 3.015 2.412 5.354 5.168 7.852 8.102 1.72 2.034 1.72 2.034 4.086 4.273C934 3466 934 3466 934 3468h2v2h2l4 5a381 381 0 0 0 6 5l5 5 2.563 2c2.564 2.104 4.397 4.397 6.437 7l2 1v2h2v2l1.617.621c3.382 1.957 5.813 4.639 8.508 7.441 3.57 3.942 3.57 3.942 7.875 6.938v2l2.313.812c2.577 1.14 3.957 2.002 5.687 4.188v2l1.813.875C996 3525 996 3525 999 3527v2l1.813.875C1003 3531 1003 3531 1006 3533v2l1.688.75c2.736 1.48 4.989 3.185 7.312 5.25v2l1.633.691c3.084 1.705 5.602 3.94 8.242 6.246 4.563 3.926 9.186 7.743 13.938 11.438 5.905 4.594 11.725 9.286 17.507 14.035 6.145 5.027 12.492 9.756 18.93 14.402a823 823 0 0 1 11.75 8.688c3.964 2.98 7.938 5.944 11.938 8.875l2.59 1.898c2.432 1.7 4.927 3.202 7.472 4.727a514 514 0 0 1 6.375 4.375l1.747 1.212a382 382 0 0 1 8.628 6.163c3.091 2.14 6.205 3.906 9.504 5.691 3.444 1.955 6.776 4.066 10.121 6.184a559 559 0 0 0 18.438 11.125l2.276 1.319c5.92 3.406 11.907 6.679 17.911 9.931l3.122 1.693q4.782 2.593 9.566 5.182l3.318 1.797L1208 3673c-1.824 18.566-3.93 37.089-6.16 55.61a2469 2469 0 0 0-3.402 29.577c-.971 8.934-2.074 17.842-3.25 26.75-1.866 14.15-3.507 28.321-5.125 42.5A4912 4912 0 0 1 1182 3894l-.3 2.349A14056 14056 0 0 1 1178 3925l-3 1c-1.7-.934-1.7-.934-3.687-2.438-4.168-2.929-8.434-5.218-13-7.437a255 255 0 0 1-17.045-9.138c-4.132-2.394-8.345-4.533-12.643-6.612-8.204-3.987-16.02-8.602-23.85-13.276a257 257 0 0 0-18.057-9.76c-3.37-1.66-6.668-3.42-9.968-5.214l-3.328-1.805L1071 3869v-2l-1.723-.36c-9.362-2.633-18.189-9.64-26.354-14.743-5.183-3.232-10.399-6.362-15.735-9.335-4.396-2.467-8.39-5.083-12.34-8.203-2.67-1.963-5.553-3.44-8.473-4.996-3.581-2.055-6.879-4.477-10.21-6.91-2.19-1.61-2.19-1.61-5.165-2.453v-2l-2.187-.813c-7.25-3.06-7.25-3.06-8.813-6.187l-2.066-.781c-4.047-1.682-7.333-4.16-10.871-6.719l-2.247-1.605q-3.412-2.442-6.816-4.895-3.045-2.186-6.094-4.367a1361 1361 0 0 1-3.615-2.598c-3.04-2.189-3.04-2.189-6.291-4.035v-2l-2.207-.797c-9.373-4.037-17.695-12.19-25.686-18.454l-2.263-1.772-2.026-1.592c-1.561-1.19-3.185-2.296-4.818-3.385v-2l-2.105-.672c-3.588-1.646-6.282-3.987-9.207-6.578a1616 1616 0 0 0-3.473-3c-.555-.478-1.11-.956-1.68-1.45-3.06-2.592-6.301-4.932-9.535-7.3-5.734-4.296-11.109-8.848-16.398-13.68-2.642-2.355-5.35-4.595-8.102-6.82-4.476-3.62-8.75-7.404-12.996-11.29-3.429-3.027-7.03-5.81-10.668-8.581L829 3695v-2l-1.625-.688c-3.2-1.768-5.665-3.849-8.375-6.312v-2l-1.64-.645c-3.213-1.845-5.565-4.395-8.11-7.043-3.343-3.415-6.665-6.779-10.312-9.875-4.4-3.735-8.391-7.86-12.422-11.984-2.388-2.443-2.388-2.443-4.844-4.156L780 3649v-2l-1.734-.75c-2.616-1.443-4.414-3.132-6.516-5.25l-2.14-2.125C768 3637 768 3637 768 3635l-3-1a174 174 0 0 1-4-5c-2.554-2.62-5.167-5.16-7.812-7.688C751 3619 751 3619 751 3617l-3-1c-1.687-1.438-1.687-1.438-3-3v-2h-2c-1.48-1.504-1.48-1.504-3.187-3.563-2.346-2.762-4.721-5.404-7.313-7.937-4.734-4.66-9.02-9.696-13.25-14.813-2.05-2.54-2.05-2.54-3.71-4.113-1.672-1.71-3.019-3.51-4.415-5.449-2.483-3.35-5.137-6.206-8.125-9.125-5.44-5.834-10.59-11.87-15.605-18.07-2.652-3.244-5.363-6.431-8.082-9.618-3.378-3.97-6.663-7.973-9.743-12.18-2.048-2.781-4.15-5.52-6.257-8.257l-1.288-1.674c-2.71-3.516-5.445-7.013-8.195-10.498-4.042-5.124-8.066-10.26-12.017-15.453l-2.231-2.922C638 3485 638 3485 638 3483h-2c-1.445-2.02-1.445-2.02-3.125-4.813-3.143-5.091-6.53-9.916-10.074-14.734C617 3455.551 617 3455.551 617 3453h-2c-1.191-1.512-1.191-1.512-2.562-3.688-1.894-2.95-3.812-5.87-5.833-8.734l-1.241-1.763q-1.23-1.74-2.468-3.472C600 3431.221 600 3431.221 600 3429h-2l-.848-1.836c-2.676-5.593-5.712-10.584-9.336-15.61-5.298-7.45-9.94-15.367-14.707-23.163a326 326 0 0 0-4.406-6.907l-1.176-1.795q-1.621-2.459-3.254-4.912c-1.934-3.069-3.536-6.253-5.136-9.507-2.962-6.017-6.268-11.763-9.7-17.52-9.052-15.361-17.693-30.958-25.558-46.963a428 428 0 0 0-6.432-12.488c-8.039-15.072-15.529-30.43-22.127-46.19-1.356-3.193-2.792-6.339-4.257-9.484-5.312-11.415-10.276-22.981-15.063-34.625q-1.066-2.57-2.133-5.14c-3.8-9.193-7.495-18.372-10.758-27.77-1.453-4.048-3.116-7.99-4.795-11.949-4.64-11.095-8.49-22.414-12.251-33.829l-1.514-4.568a9538 9538 0 0 1-3.023-9.136 3286 3286 0 0 0-3.911-11.738c-2.432-7.266-4.829-14.537-7.052-21.87l-.88-2.895c-2.469-8.218-4.721-16.488-6.915-24.783a833 833 0 0 0-4.998-18.1c-4.407-15.266-8.326-30.464-11.48-46.05a242 242 0 0 0-2.735-11.93c-1.93-7.57-3.49-15.215-5.055-22.867l-.468-2.277c-1.977-9.634-3.857-19.263-5.365-28.983-.606-3.826-1.328-7.625-2.07-11.428-3.011-15.809-5.038-31.795-7.197-47.738q-.394-2.906-.792-5.812c-7.719-56.482-11.453-113.32-11.6-170.316q-.014-4.033-.041-8.065c-.392-75.864 5.887-152.525 19.39-227.178.597-3.325 1.17-6.653 1.729-9.984 3.766-22.4 8.521-44.557 13.477-66.719l.72-3.23a807 807 0 0 1 12.655-49.333c2.071-7.16 4.116-14.304 5.792-21.568 3.842-16.596 9.764-32.644 15.27-48.744l3.79-11.09.954-2.796q2.305-6.744 4.623-13.484c2.693-7.838 5.344-15.662 7.633-23.63h2l.373-2.647c.601-3.216 1.476-5.954 2.666-8.994l1.249-3.217 1.337-3.392 1.37-3.511q1.366-3.5 2.739-6.997a873 873 0 0 0 3.239-8.426c2.993-7.883 6.227-15.54 9.867-23.152 4.008-8.524 7.637-17.228 11.364-25.877q1.897-4.395 3.796-8.787l1.134-2.632c2.156-4.938 4.55-9.693 7.116-14.43 5.5-10.285 10.781-20.662 15.696-31.241 6.895-14.838 14.74-28.992 23.03-43.096 3.592-6.116 7.066-12.26 10.387-18.527 4.912-9.226 9.877-18.27 16.032-26.734 2.26-3.295 4.058-6.79 5.921-10.32 2.712-4.864 5.782-9.49 8.829-14.149 1.802-2.674 1.802-2.674 2.855-4.871h2l.36-1.8c.833-2.862 2.51-4.878 4.273-7.243 1.348-1.93 2.413-3.866 3.492-5.957 2.716-5.024 6.084-9.475 9.492-14.04a326 326 0 0 0 10.008-14.273l1.29-1.94c2.179-3.293 2.179-3.293 4.085-6.747h2l.75-2.125c1.422-3.27 3.122-6.016 5.25-8.875h2l.625-2c1.573-3.433 3.608-6.094 5.918-9.063 1.601-2.05 1.601-2.05 3.207-4.937l1.25-2h2l.688-2.125c1.584-3.472 3.804-6.052 6.312-8.875 3.806-4.394 7.522-8.826 11.063-13.438l1.218-1.586a293 293 0 0 0 6.496-8.906l1.381-1.963q1.32-1.888 2.62-3.79c1.025-1.474 2.118-2.9 3.222-4.317h2l.758-1.688c1.45-2.7 3.19-4.927 5.117-7.312l2.055-2.563c2.07-2.437 2.07-2.437 4.265-4.625 1.877-1.695 1.877-1.695 2.805-3.812h2l1-3h2l.781-1.703c1.36-2.564 2.947-4.75 4.719-7.047l1.844-2.422L710 1770h2l.715-1.68c1.598-2.884 3.604-5.032 5.848-7.445 3.074-3.19 3.074-3.19 5.437-6.875h2l.75-1.703c1.463-2.688 3.218-4.761 5.25-7.047l2.125-2.422C736 1741 736 1741 738 1741v-2a128 128 0 0 1 5-5 1372 1372 0 0 0 3.7-3.664l1.974-1.961 2.014-2 2.048-2.023 1.963-1.954 1.776-1.76c1.728-1.768 1.728-1.768 3.525-4.638h2l.762-1.754c1.394-2.529 2.976-4.18 5.05-6.184l2.165-2.109L772 1704l2.688-2.688L777 1699l2.688-2.813C782 1694 782 1694 784 1694l2-4h2v-2c1.54-1.516 1.54-1.516 3.625-3.25 2.715-2.297 5.288-4.622 7.75-7.188C802 1675 802 1675 804 1675l.762-1.785c1.393-2.491 2.859-3.838 5.05-5.653 2.278-1.927 4.451-3.825 6.563-5.937 5.667-5.667 11.694-10.916 17.938-15.938 4.221-3.411 8.228-6.98 12.187-10.687 4.816-4.509 9.766-8.76 14.918-12.887 3.384-2.77 6.6-5.706 9.805-8.68C873 1612 873 1612 875 1612v-2c1.477-1.121 1.477-1.121 3.625-2.438 5.142-3.291 9.854-7.024 14.588-10.866 2.586-2.076 4.614-3.638 7.787-4.696v-2l5-2v-2a94 94 0 0 1 5.375-4.125l3.023-2.195C917 1578 917 1578 919 1578v-2c5.083-4.276 10.737-7.88 16.375-11.375 4.149-2.591 8.034-5.416 11.875-8.438 5.266-4.14 10.704-7.907 16.306-11.577a219 219 0 0 0 10.882-7.61c6.227-4.586 12.787-8.587 19.366-12.64 3.789-2.346 7.554-4.729 11.321-7.11l2.398-1.511c4.249-2.682 8.482-5.385 12.696-8.122a547 547 0 0 1 33.067-19.77 381 381 0 0 0 18.948-11.187c3.827-2.297 7.803-4.225 11.817-6.172 2.983-1.505 5.832-3.149 8.699-4.863 6.563-3.888 13.343-7.25 20.186-10.609 3.363-1.655 6.713-3.337 10.064-5.016l4.027-2.012q3.868-1.933 7.727-3.883c16.22-8.179 32.57-16.08 49.264-23.247 3.674-1.59 7.326-3.228 10.982-4.858q2.28-1.013 4.559-2.023 4.275-1.9 8.539-3.829a262 262 0 0 1 22.687-8.95c4.498-1.55 8.857-3.278 13.215-5.198 5.665-2.488 11.378-4.607 17.222-6.618a361 361 0 0 0 13.88-5.144c12.937-5.063 26.122-9.268 39.357-13.468a1064 1064 0 0 0 16.979-5.583c11.884-3.976 23.655-7.85 35.889-10.607 5.475-1.25 10.848-2.747 16.236-4.33 36.09-10.492 72.99-18.283 109.937-25.063l3.017-.554c25.067-4.587 50.2-8.446 75.483-11.633l2.065-.261c38.708-4.886 77.64-7.978 116.66-8.65 4.036-.076 8.07-.206 12.105-.34 33.044-1.081 65.904-.275 98.923 1.114Z"/><path fill="#FF850D" d="m2762 3574 1 3-2.187 1.688c-2.797 2.299-5.27 4.736-7.813 7.312q-2.748 2.784-5.5 5.563l-2.781 2.816c-2.473 2.384-5.017 4.506-7.719 6.621a281 281 0 0 0-5 5c-4.505 4.602-9.083 9.004-13.977 13.191-2.935 2.624-5.644 5.455-8.359 8.305C2708 3629 2708 3629 2706 3629v2h-2v2c-1.645 1.621-1.645 1.621-3.812 3.438-3.013 2.535-3.013 2.535-5.825 5.285C2693 3643 2693 3643 2691 3643v2c-1.68 1.727-1.68 1.727-3.875 3.625l-2.18 1.914C2683 3652 2683 3652 2681 3652l-1 3c-1.742 1.79-1.742 1.79-3.875 3.625l-2.117 1.852C2672 3662 2672 3662 2669 3663a203 203 0 0 0-2 4c-1.805 1.852-1.805 1.852-3.875 3.625l-2.055 1.79c-1.957 1.498-3.83 2.57-6.07 3.585v2h-2v2a102 102 0 0 1-4.937 4.063c-4.667 3.724-8.887 7.652-13.055 11.917A74.5 74.5 0 0 1 2627 3703h-2v2c-1.552 1.393-3.17 2.714-4.812 4-5.223 4.16-10.116 8.55-14.973 13.129C2603 3724 2603 3724 2601 3724l-1 3c-1.863 1.656-1.863 1.656-4.312 3.5-4.725 3.666-9.127 7.56-13.488 11.643-8.422 7.857-8.422 7.857-11.2 7.857v2a117 117 0 0 1-6.187 5l-1.752 1.367c-3.226 2.464-6.162 4.34-10.061 5.633v2c-1.68 1.508-1.68 1.508-3.875 3.125l-2.18 1.633C2545 3772 2545 3772 2543 3772v2a125 125 0 0 1-6.125 4.813q-1.725 1.289-3.445 2.582c-.57.424-1.138.85-1.724 1.287-1.72 1.33-3.365 2.723-5.01 4.142C2524 3789 2524 3789 2522 3789v2a146 146 0 0 1-7 5.438l-2.163 1.599a732 732 0 0 1-15.524 11.088l-1.995 1.396c-3.337 2.291-6.452 4.163-10.318 5.479v2c-1.844 1.34-1.844 1.34-4.5 2.938-5.886 3.622-11.549 7.515-17.191 11.505-5.094 3.557-5.094 3.557-7.309 3.557v2a82 82 0 0 1-5 3 3502 3502 0 0 0-5.875 3.625c-4.853 2.995-9.73 5.948-14.625 8.875-9.588 5.737-19.126 11.545-28.477 17.664-8.828 5.361-18.097 9.98-27.273 14.711-7.336 3.79-14.668 7.583-21.937 11.5-6.958 3.735-14.009 7.262-21.085 10.763a306 306 0 0 0-4.36 2.23c-5.795 3.004-11.752 5.466-17.795 7.914a268 268 0 0 0-13.573 5.968c-19.325 9.143-38.982 17.255-59 24.75l-4.629 1.746c-4.486 1.69-8.978 3.365-13.472 5.035l-4.348 1.618a1836 1836 0 0 1-4.063 1.51c-2.94 1.097-5.833 2.243-8.705 3.509-3.902 1.68-7.882 3.001-11.928 4.289l-2.329.751q-3.668 1.182-7.338 2.354l-9.583 3.083-2.4.771c-5.601 1.804-11.183 3.659-16.76 5.533-6.214 2.084-12.439 4.055-18.758 5.801l-5.335 1.5-2.683.75c-3.455.971-6.904 1.964-10.353 2.958-19.54 5.618-39.106 10.816-58.941 15.292l-6.376 1.448a6485 6485 0 0 1-15.324 3.453l-7.133 1.602c-16.163 3.62-32.377 6.653-48.719 9.35-3.82.647-7.63 1.34-11.44 2.045-19.302 3.517-38.705 5.948-58.197 8.122q-3.027.338-6.054.68c-24.164 2.71-48.377 4.764-72.695 5.363-6.497.172-12.946.37-19.417.992-9.579.783-19.177.29-28.77.008a7661 7661 0 0 0-11.422-.31l-2.808-.075c-5.678-.146-11.348-.2-17.028-.17-7.393.032-14.738-.24-22.117-.695l-2.037-.124c-36.964-2.255-74.067-4.873-110.794-9.67a1120 1120 0 0 0-13.427-1.632c-19.342-2.28-38.643-4.804-57.93-7.512l-3.154-.443c-20.1-2.828-40.168-5.857-60.224-8.984l-8.62-1.343c-9.34-1.454-18.679-2.916-28.015-4.394a9112 9112 0 0 0-18.148-2.847q-7.601-1.188-15.203-2.38-3.93-.615-7.863-1.228-5.733-.894-11.464-1.795l-3.566-.552-3.272-.517-2.881-.45C1379 3993 1379 3993 1377 3992c1.304-2.958 2.563-4.745 5.098-6.742l1.905-1.522 2.06-1.611 4.332-3.453 2.28-1.81c3.895-3.118 7.733-6.305 11.575-9.487q2.1-1.74 4.203-3.477l1.786-1.479c5.482-4.419 5.482-4.419 7.761-4.419l1-3a124 124 0 0 1 6.25-5c4.985-3.82 9.86-7.722 14.625-11.812 3.898-3.338 7.848-6.526 11.992-9.551 2.837-2.177 5.542-4.5 8.258-6.825 5.152-4.405 10.408-8.645 15.76-12.804 4.723-3.676 9.33-7.471 13.908-11.328C1492 3896 1492 3896 1495 3895v-2c1.46-1.29 1.46-1.29 3.375-2.625l1.898-1.352C1502 3888 1502 3888 1504 3888v-2c4.47-4 4.47-4 7-4v-2l5-2v-2c1.338-1.23 1.338-1.23 3.227-2.617l2.106-1.571 2.292-1.687c5.678-4.253 11.22-8.582 16.563-13.25 5.103-4.452 10.322-8.7 15.677-12.847 5.063-3.931 9.947-8.05 14.807-12.227C1573 3830 1573 3830 1575 3830v-2a125 125 0 0 1 6.125-4.812q1.725-1.29 3.445-2.583c.57-.424 1.138-.85 1.724-1.287 1.72-1.33 3.365-2.723 5.01-4.142C1594 3813 1594 3813 1596 3813v-2a84 84 0 0 1 4.688-3.875l2.636-2.055L1606 3803l2.402-2.262c3.468-2.32 5.337-2.05 9.473-1.675l2.188.177c2.65.226 5.292.49 7.937.76a16404 16404 0 0 0 16.292 1.637c16.87 1.686 33.774 2.595 50.708 3.363l3.964.18q5.517.238 11.036.445l3.06.122c22.01.738 43.975.226 65.96-.919 3.94-.204 7.879-.396 11.818-.586 13.624-.675 27.184-1.568 40.75-2.992 4.064-.42 8.133-.797 12.201-1.18 97.807-9.21 97.807-9.21 192.8-33.284 4.98-1.623 10.048-2.96 15.099-4.349q3.287-.906 6.574-1.816l2.905-.799c2.832-.776 2.832-.776 5.496-1.86 3.915-1.129 7.531-1.223 11.566-1.18l2.464.002c2.717.004 5.433.022 8.15.04q2.928.008 5.856.013 6.306.015 12.611.041c6.67.027 13.339.031 20.008.03h10.339c15.52 0 31.039.02 46.558.088q15.713.07 31.426.038c5.532-.01 11.063-.004 16.595.042 31.763.65 31.763.65 61.63-9.012 3.228-1.61 6.553-2.786 9.947-4.001q1.913-.714 3.824-1.434c15.948-5.961 31.926-11.84 47.903-17.723l25.501-9.394c11.547-4.252 23.078-8.526 34.526-13.039 6.307-2.466 12.688-4.698 19.088-6.91 7.837-2.714 15.592-5.618 23.345-8.563l3.578-1.34c5.507-2.063 11.003-4.155 16.501-6.243q8.46-3.212 16.921-6.417l2.425-.92c6.842-2.59 13.7-5.128 20.571-7.639l9.87-3.605c8.505-3.108 16.975-6.29 25.397-9.618 4.974-1.954 9.994-3.68 15.077-5.323 3.456-1.163 6.813-2.523 10.187-3.903 3.435-1.378 6.914-2.62 10.395-3.875 8.944-3.246 17.835-6.639 26.724-10.035a2362 2362 0 0 1 29.62-11.077c5.477-2.013 10.949-4.04 16.421-6.068l3.52-1.302a2846 2846 0 0 0 18.73-7.01c4.411-1.663 8.83-3.232 13.313-4.687 3.9-1.273 7.665-2.7 11.438-4.313 4.588-1.955 9.224-3.686 13.937-5.312 8.969-3.096 17.804-6.524 26.641-9.974l3.254-1.265c.96-.375 1.92-.75 2.909-1.138A52 52 0 0 1 2762 3574ZM3099 2496l3 1q1.633 10.261 3.253 20.526.55 3.475 1.103 6.95c2.339 14.7 4.492 29.404 6.344 44.173q.426 3.325.884 6.645c4.966 36.498 4.274 74.013 2.416 110.706q-.156 3.42-.307 6.84c-.366 6.919-.92 13.801-1.607 20.695a1241 1241 0 0 0-2.05 23.473l-.731 9.065q-.246 3.1-.48 6.2c-.23 3.038-.477 6.074-.727 9.11l-.2 2.802-.222 2.585-.177 2.264c-.619 2.439-1.582 3.379-3.499 4.966-5.694 3.241-12.018 4.961-18.258 6.82-5.022 1.583-9.936 3.413-14.868 5.255-7.997 2.984-16.03 5.865-24.07 8.728-4.469 1.6-8.912 3.22-13.3 5.029-5.727 2.322-11.565 4.312-17.401 6.338-8.948 3.111-17.85 6.343-26.744 9.602q-4.072 1.49-8.146 2.974l-5.264 1.926-2.418.88c-3.477 1.277-6.919 2.588-10.317 4.062-2.52 1.087-4.981 2.047-7.589 2.886l-2.297.75-4.656 1.5c-4.679 1.528-9.148 3.302-13.672 5.25-3.233 1.195-6.49 2.317-9.75 3.438-13.824 4.776-27.521 9.883-41.222 15.001C2863.107 2863 2863.107 2863 2859 2863c-.842-2.878-1.074-5.24-.87-8.226l.163-2.524.195-2.734.19-2.886q.31-4.69.635-9.38.436-6.537.863-13.074l.218-3.338c.464-7.22.842-14.441 1.149-21.67l.121-2.783c.152-3.5.303-6.999.426-10.5.083-2.38.183-4.76.285-7.139l.057-2.08c.293-6.278 2.248-11.97 6.568-16.666h2l.668-1.637c1.773-3.146 4.168-5.582 6.644-8.175 3.15-3.348 6.162-6.625 8.75-10.438L2889 2737h2l.813-1.75c1.216-2.306 2.49-4.27 4.187-6.25h2l.738-1.707c1.5-2.726 3.324-4.708 5.45-6.98 3.74-4.061 7.142-8.242 10.402-12.696L2916 2706h2l.688-1.562c2.335-4.338 4.823-8.261 8.714-11.336 2.717-2.198 4.699-4.48 6.848-7.227l2.078-2.633c1.686-2.124 1.686-2.124 2.672-4.242h2v-2h2v-2h2l.75-1.715c1.452-2.655 3.202-4.622 5.25-6.847 2.234-2.435 4.162-4.681 6-7.438h2l.75-1.672c1.492-2.78 3.287-5.11 5.25-7.578l2.125-2.703L2969 2645h2l.875-1.812C2973 2641 2973 2641 2975 2638h2l.684-1.648c1.728-3.088 3.962-5.397 6.378-7.977 3.353-3.417 3.353-3.417 5.938-7.375h2l.828-1.792c1.137-2.142 2.325-3.722 3.93-5.528l1.635-1.858 1.732-1.947c4.517-5.133 8.914-10.312 13.094-15.727 2.113-2.549 4.425-4.82 6.781-7.148 1.847-1.948 3.682-3.9 5.5-5.875l1.463-1.585c2.565-2.814 4.95-5.646 7.1-8.79L3036 2568h2v-2h2l.781-1.703c1.36-2.564 2.947-4.75 4.719-7.047l1.844-2.422L3049 2553h2l.688-1.625c1.768-3.2 3.849-5.665 6.312-8.375h2l.938-1.875L3063 2537h2l.188-1.75c1.134-3.142 3.204-4.164 5.812-6.25 1.634-2.083 3.162-4.213 4.668-6.39L3077 2521h2l.313-1.812c.785-2.5 1.656-3.563 3.687-5.188h2l.723-1.687c1.566-2.836 3.512-4.94 5.715-7.313 2.689-2.906 5.248-5.785 7.562-9Z"/></svg>
