<svg xmlns="http://www.w3.org/2000/svg" fill="none" viewBox="0 0 64 64"><path fill="#000" d="M55 32C55 19.298 44.703 9 32 9S9 19.298 9 32s10.298 23 23 23a22.93 22.93 0 0 0 16.235-6.708A22.93 22.93 0 0 0 55 32Zm-15.707-8.707a1 1 0 1 1 1.414 1.414L33.414 32l7.293 7.293a1 1 0 1 1-1.414 1.414L32 33.414l-7.293 7.293a1 1 0 1 1-1.414-1.414L30.586 32l-7.293-7.293a1 1 0 1 1 1.414-1.414L32 30.586l7.293-7.293ZM57 32a24.9 24.9 0 0 1-6.66 16.985l8.808 8.808a1 1 0 0 1-1.414 1.414l-8.81-8.81A24.9 24.9 0 0 1 32 57C18.193 57 7 45.807 7 32S18.193 7 32 7s25 11.193 25 25Z"/></svg>
