<svg xmlns="http://www.w3.org/2000/svg" fill="none" viewBox="0 0 24 24"><path fill="#000" d="M20 12a8 8 0 1 0-8 8c2.204 0 4.2-.89 5.648-2.333A7.97 7.97 0 0 0 20 12Zm-5.707-3.707a1 1 0 1 1 1.414 1.414L13.414 12l2.293 2.293a1 1 0 1 1-1.414 1.414L12 13.414l-2.293 2.293a1 1 0 1 1-1.414-1.414L10.586 12 8.293 9.707a1 1 0 1 1 1.414-1.414L12 10.586l2.293-2.293ZM22 12a9.96 9.96 0 0 1-2.269 6.34l2.891 2.89a1 1 0 1 1-1.414 1.415l-2.893-2.893A9.96 9.96 0 0 1 12 22C6.477 22 2 17.523 2 12S6.477 2 12 2s10 4.477 10 10Z"/></svg>
