<svg xmlns="http://www.w3.org/2000/svg" fill="none" viewBox="0 0 24 24"><path fill="#000" fill-rule="evenodd" d="M4 12a8 8 0 1 1 4.445 7.169 1 1 0 0 0-.629-.088l-3.537.662.7-3.415a1 1 0 0 0-.09-.66A7.96 7.96 0 0 1 4 12Zm8-10C6.477 2 2 6.477 2 12a10 10 0 0 0 .951 4.262l-.93 4.537a1 1 0 0 0 1.163 1.184l4.68-.876A10 10 0 0 0 12 22c5.523 0 10-4.477 10-10S17.523 2 12 2ZM7.5 13.25a1.25 1.25 0 1 1 0-2.5 1.25 1.25 0 0 1 0 2.5Zm4.5 0a1.25 1.25 0 1 1 0-2.5 1.25 1.25 0 0 1 0 2.5Zm4.5 0a1.25 1.25 0 1 1 0-2.5 1.25 1.25 0 0 1 0 2.5Z" clip-rule="evenodd"/></svg>
