<svg xmlns="http://www.w3.org/2000/svg" fill="none" viewBox="0 0 24 24"><path fill="#000" fill-rule="evenodd" d="M18.423 2.428a2 2 0 0 1 2.575 1.916V15.5c0 2.096-1.97 3.5-4 3.5s-4-1.404-4-3.5 1.97-3.5 4-3.5c.7 0 1.392.167 2 .471V4.344l-8 2.4V18.5c0 2.096-1.97 3.5-4 3.5s-4-1.404-4-3.5 1.97-3.5 4-3.5c.7 0 1.393.167 2 .471V6.744a2 2 0 0 1 1.425-1.916l8-2.4ZM8.998 18.5c0-.666-.717-1.5-2-1.5s-2 .834-2 1.5c0 .665.717 1.5 2 1.5s2-.835 2-1.5Zm10-3c0-.665-.717-1.5-2-1.5s-2 .835-2 1.5.717 1.5 2 1.5 2-.835 2-1.5Z" clip-rule="evenodd"/></svg>
