<svg xmlns="http://www.w3.org/2000/svg" fill="none" viewBox="0 0 24 24"><path fill="#000" fill-rule="evenodd" d="M1 5a1 1 0 0 1 1-1h7a4 4 0 0 1 3 1.354A4 4 0 0 1 15 4h7a1 1 0 0 1 1 1v14a1 1 0 0 1-1 1h-6.723c-.52 0-1 .125-1.4.372-.421.26-.761.633-.983 1.075a1 1 0 0 1-1.788 0 2.66 2.66 0 0 0-.983-1.075c-.4-.247-.88-.372-1.4-.372H2a1 1 0 0 1-1-1V5Zm10 3a2 2 0 0 0-2-2H3v12h5.723c.776 0 1.564.173 2.277.569V8Zm2 10.569V8a2 2 0 0 1 2-2h6v12h-5.723c-.776 0-1.564.173-2.277.569Z" clip-rule="evenodd"/></svg>
