<svg xmlns="http://www.w3.org/2000/svg" fill="none" viewBox="0 0 24 24"><path fill="#000" fill-rule="evenodd" d="M7.574 4.178a1 1 0 0 1 .43.822v5h2a1 1 0 0 1 1 1v8a1 1 0 0 1-1 1h-7a1 1 0 0 1-1-1v-8c0-2.585 1.162-4.335 2.316-5.417a8.2 8.2 0 0 1 1.569-1.15 7 7 0 0 1 .738-.36l.016-.005.005-.003h.003v-.001c.001 0 .002 0 .353.936l-.351-.936a1 1 0 0 1 .92.114Zm-1.57 2.588a6 6 0 0 0-.316.276C4.842 7.835 4.004 9.085 4.004 11v7h5v-6h-2a1 1 0 0 1-1-1V6.766Zm12.57-2.588a1 1 0 0 1 .43.822v5h2a1 1 0 0 1 1 1v8a1 1 0 0 1-1 1h-7a1 1 0 0 1-1-1v-8c0-2.585 1.162-4.335 2.316-5.417a8.2 8.2 0 0 1 1.569-1.15 7 7 0 0 1 .738-.36l.016-.005.005-.003h.003v-.001c.001 0 .002 0 .353.936l-.351-.936a1 1 0 0 1 .92.114Zm-1.57 2.588q-.157.128-.316.276c-.846.793-1.684 2.043-1.684 3.958v7h5v-6h-2a1 1 0 0 1-1-1V6.766Z" clip-rule="evenodd"/></svg>
