<svg xmlns="http://www.w3.org/2000/svg" fill="none" viewBox="0 0 64 64"><path fill="#000" d="M32.457 7c1.68 0 3.29.668 4.478 1.855L49.813 21.73a6.33 6.33 0 0 1 1.854 4.479v24.458A6.333 6.333 0 0 1 45.333 57H18.666a6.334 6.334 0 0 1-6.333-6.333V13.333A6.334 6.334 0 0 1 18.666 7h13.791ZM18.666 9a4.334 4.334 0 0 0-4.333 4.333v37.334A4.334 4.334 0 0 0 18.666 55h26.667a4.333 4.333 0 0 0 4.333-4.333V26.209c0-.418-.061-.829-.177-1.223a1 1 0 0 1-.155.014H40a6.334 6.334 0 0 1-6.325-6.008l-.008-.326V9.333q0-.08.013-.156A4.3 4.3 0 0 0 32.457 9H18.666Zm18.627 22.293a1 1 0 1 1 1.414 1.414L33.414 38l5.293 5.293a1 1 0 1 1-1.414 1.414L32 39.414l-5.293 5.293a1 1 0 1 1-1.414-1.414L30.586 38l-5.293-5.293a1 1 0 1 1 1.414-1.414L32 36.586l5.293-5.293Zm-1.626-12.627.006.224A4.333 4.333 0 0 0 40 23h8.253L35.667 10.414v8.252Z"/></svg>
