<svg xmlns="http://www.w3.org/2000/svg" fill="none" viewBox="0 0 24 24"><path fill="#000" fill-rule="evenodd" d="M8 5a2 2 0 1 0 0 4 2 2 0 0 0 0-4ZM4 7a4 4 0 1 1 8 0 4 4 0 0 1-8 0Zm13-1a1.5 1.5 0 1 0 0 3 1.5 1.5 0 0 0 0-3Zm-3.5 1.5a3.5 3.5 0 1 1 7 0 3.5 3.5 0 0 1-7 0Zm7.301 9.7c-.836-2.6-2.88-3.503-4.575-3.111a1 1 0 0 1-.451-1.949c2.815-.651 5.81.966 6.93 4.448a2.49 2.49 0 0 1-.506 2.43A2.92 2.92 0 0 1 20 20h-2a1 1 0 1 1 0-2h2a.92.92 0 0 0 .69-.295.49.49 0 0 0 .112-.505ZM8 14c-1.865 0-3.878 1.274-4.681 4.151a.57.57 0 0 0 .132.55c.15.171.4.299.695.299h7.708a.93.93 0 0 0 .695-.299.57.57 0 0 0 .132-.55C11.878 15.274 9.865 14 8 14Zm0-2c2.87 0 5.594 1.98 6.607 5.613.53 1.9-1.09 3.387-2.753 3.387H4.146c-1.663 0-3.283-1.487-2.753-3.387C2.406 13.981 5.129 12 8 12Z" clip-rule="evenodd"/></svg>
