<svg xmlns="http://www.w3.org/2000/svg" fill="none" viewBox="0 0 24 24"><path fill="#000" fill-rule="evenodd" d="M12 4a2.5 2.5 0 1 0 0 5 2.5 2.5 0 0 0 0-5ZM7.5 6.5a4.5 4.5 0 1 1 9 0 4.5 4.5 0 0 1-9 0ZM5.678 19c.71-2.909 3.092-5 6.322-5 .621 0 1.206.077 1.748.218a1 1 0 1 0 .504-1.936A9 9 0 0 0 12 12c-4.758 0-8.083 3.521-8.496 7.906A1 1 0 0 0 4.5 21H11a1 1 0 1 0 0-2H5.678ZM18 14a1 1 0 0 1 1 1v2h2a1 1 0 1 1 0 2h-2v2a1 1 0 1 1-2 0v-2h-2a1 1 0 1 1 0-2h2v-2a1 1 0 0 1 1-1Z" clip-rule="evenodd"/></svg>
