<svg xmlns="http://www.w3.org/2000/svg" fill="none" viewBox="0 0 24 24"><path fill="#000" fill-rule="evenodd" d="M12 4a2.5 2.5 0 1 0 0 5 2.5 2.5 0 0 0 0-5ZM7.5 6.5a4.5 4.5 0 1 1 9 0 4.5 4.5 0 0 1-9 0ZM12 14c-2.95 0-5.163 1.733-6.08 4.21a.47.47 0 0 0 .09.493.9.9 0 0 0 .687.297h10.606a.9.9 0 0 0 .687-.297.47.47 0 0 0 .09-.493C17.163 15.732 14.95 14 12 14Zm-7.955 3.516C5.235 14.296 8.168 12 12 12s6.765 2.296 7.956 5.516c.34.92.107 1.828-.434 2.473A2.9 2.9 0 0 1 17.303 21H6.697a2.9 2.9 0 0 1-2.219-1.011 2.46 2.46 0 0 1-.433-2.473Z" clip-rule="evenodd"/></svg>
