<svg xmlns="http://www.w3.org/2000/svg" fill="none" viewBox="0 0 24 24"><path fill="#000" fill-rule="evenodd" d="M12 4a2.5 2.5 0 1 0 0 5 2.5 2.5 0 0 0 0-5ZM7.5 6.5a4.5 4.5 0 1 1 9 0 4.5 4.5 0 0 1-9 0ZM5.679 19c.709-2.902 3.079-5 6.321-5q.453 0 .878.053a1 1 0 0 0 .243-1.985A9 9 0 0 0 12 12c-4.3 0-7.447 2.884-8.304 6.696-.29 1.29.767 2.304 1.902 2.304H12a1 1 0 1 0 0-2H5.679Zm9.614-3.707a1 1 0 0 1 1.414 0L18 16.586l1.293-1.293a1 1 0 0 1 1.414 1.414L19.414 18l1.293 1.293a1 1 0 0 1-1.414 1.414L18 19.414l-1.293 1.293a1 1 0 0 1-1.414-1.414L16.586 18l-1.293-1.293a1 1 0 0 1 0-1.414Z" clip-rule="evenodd"/></svg>
