<svg xmlns="http://www.w3.org/2000/svg" fill="none" viewBox="0 0 64 64"><path fill="#000" d="M24.952 33.435c10.897 0 19.195 6.496 22.58 15.65.784 2.117.258 4.183-1 5.683-1.242 1.48-3.194 2.414-5.33 2.415h-32.5c-2.136 0-4.089-.935-5.331-2.415-1.258-1.5-1.783-3.566-1-5.682 3.386-9.155 11.683-15.651 22.58-15.651Zm0 2.298c-9.885 0-17.355 5.849-20.425 14.15-.47 1.271-.174 2.48.604 3.407.795.947 2.096 1.594 3.57 1.594h32.5c1.476 0 2.777-.647 3.571-1.594.778-.928 1.074-2.136.605-3.406-3.07-8.302-10.54-14.15-20.425-14.15Zm33.262-14.59a1.15 1.15 0 1 1 1.625 1.626l-5.688 5.687 5.686 5.688a1.15 1.15 0 1 1-1.625 1.625l-5.686-5.688-5.687 5.688a1.15 1.15 0 1 1-1.625-1.625l5.687-5.688-5.689-5.687a1.15 1.15 0 1 1 1.625-1.625l5.689 5.687 5.688-5.687ZM24.949 5.552c6.557 0 11.874 5.316 11.874 11.874 0 6.557-5.317 11.874-11.874 11.874s-11.874-5.317-11.874-11.874S18.39 5.55 24.949 5.55Zm0 2.299a9.575 9.575 0 0 0-9.575 9.575A9.575 9.575 0 0 0 24.949 27a9.575 9.575 0 0 0 9.575-9.575A9.575 9.575 0 0 0 24.95 7.85Z"/></svg>
