<svg xmlns="http://www.w3.org/2000/svg" fill="none" viewBox="0 0 24 24"><path fill="#000" fill-rule="evenodd" d="M12 4a2.5 2.5 0 1 0 0 5 2.5 2.5 0 0 0 0-5ZM7.5 6.5a4.5 4.5 0 1 1 9 0 4.5 4.5 0 0 1-9 0ZM5.679 19c.709-2.902 3.079-5 6.321-5a6.7 6.7 0 0 1 2.612.51 1 1 0 0 0 .776-1.844A8.7 8.7 0 0 0 12 12c-4.3 0-7.447 2.884-8.304 6.696-.29 1.29.767 2.304 1.902 2.304H11a1 1 0 1 0 0-2H5.679Zm14.835-4.857a1 1 0 0 1 .344 1.371l-3 5a1 1 0 0 1-1.458.286l-2-1.5a1 1 0 0 1 1.2-1.6l1.113.835 2.43-4.05a1 1 0 0 1 1.372-.342Z" clip-rule="evenodd"/></svg>
