<svg xmlns="http://www.w3.org/2000/svg" fill="none" viewBox="0 0 24 24"><path fill="#000" fill-rule="evenodd" d="M6.5 4.999Zm0 0a.1.1 0 0 1-.016.024.2.2 0 0 1-.152.043q.086.014.168.032V7.5a1 1 0 0 1-.33.742c-.543.49-.917 1.176-1.23 2.036a1 1 0 0 1-.94.657H3V14h1a1 1 0 0 1 .866.5c.436.754.879 1.195 1.637 1.636A1 1 0 0 1 7 17v2h2a2 2 0 0 1 2-2h2a2 2 0 0 1 2 2h2v-2.537a1 1 0 0 1 .332-.744A4.98 4.98 0 0 0 19 11.999 5 5 0 0 0 14 7H9.474a1 1 0 0 1-.893-.55v-.001l-.001-.002-.005-.008L9.474 6l-.9.438h.001v.002l.002.001.001.003.002.003v.003a2.6 2.6 0 0 0-.443-.538c-.319-.298-.839-.648-1.637-.814V5Zm2.082 1.452ZM9.5 4.447c.211.196.379.387.508.553H14a7 7 0 0 1 6.72 8.96 1.003 1.003 0 0 0 1.146-1.46 1 1 0 1 1 1.731-1 3 3 0 0 1-3.714 4.286A7 7 0 0 1 19 16.888V19a2 2 0 0 1-2 2h-2a2 2 0 0 1-2-2h-2a2 2 0 0 1-2 2H7a2 2 0 0 1-2-2v-1.45A5.8 5.8 0 0 1 3.448 16H3a2 2 0 0 1-2-2v-3.065a2 2 0 0 1 2-2h.324c.286-.649.657-1.291 1.176-1.852V5c0-1.047.89-2.12 2.161-1.907 1.33.223 2.248.805 2.839 1.354ZM8.25 12a1.25 1.25 0 1 0 0-2.5 1.25 1.25 0 0 0 0 2.5Z" clip-rule="evenodd"/></svg>
