<svg xmlns="http://www.w3.org/2000/svg" fill="none" viewBox="0 0 24 24"><path fill="#000" d="M12 2a8 8 0 0 1 8 8c0 3.305-1.953 6.29-3.745 8.355a26 26 0 0 1-3.333 3.197q-.152.12-.237.184l-.067.05-.018.014-.005.004-.002.002h-.001c-.003-.004-.042-.055-.592-.806l.592.807a1 1 0 0 1-1.184 0v-.001l-.003-.002-.005-.004-.018-.014-.067-.05a24 24 0 0 1-1.066-.877 26 26 0 0 1-2.504-2.503C5.953 16.29 4 13.305 4 10a8 8 0 0 1 8-8Zm0 2a6 6 0 0 0-6 6c0 2.56 1.547 5.076 3.255 7.044A24 24 0 0 0 12 19.723a24 24 0 0 0 2.745-2.679C16.453 15.076 18 12.56 18 10a6 6 0 0 0-6-6Zm-.002 2.5a3.5 3.5 0 1 1 0 7 3.5 3.5 0 0 1 0-7Zm0 2a1.5 1.5 0 1 0 0 3 1.5 1.5 0 0 0 0-3Z"/></svg>
