<svg xmlns="http://www.w3.org/2000/svg" fill="none" viewBox="0 0 24 24"><path fill="#000" fill-rule="evenodd" d="M18.438 3.253a2 2 0 0 1 2.309 2.31L18.243 20.17c-.186 1.083-1.244 1.868-2.387 1.588a18.5 18.5 0 0 1-8.702-4.912 18.5 18.5 0 0 1-4.912-8.702C1.962 7 2.747 5.943 3.83 5.757l14.608-2.504Zm-1.474 2.282a3 3 0 0 1-5.914 1.014l-3.368.577a13 13 0 0 0 3.376 5.816q.525.525 1.09.976a4.002 4.002 0 0 1 5.571-2.53l1.056-6.164-1.81.311Zm.388 7.991a2 2 0 0 0-3.346 1.634 13 13 0 0 0 2.868 1.158l.478-2.792Zm-.817 4.77a15 15 0 0 1-6.891-3.94 15 15 0 0 1-3.94-6.89l-1.505.257a16.5 16.5 0 0 0 4.369 7.709 16.5 16.5 0 0 0 7.709 4.37l.258-1.505ZM13.022 6.212a1 1 0 0 0 1.97-.338l-1.97.338Z" clip-rule="evenodd"/></svg>
