<svg xmlns="http://www.w3.org/2000/svg" fill="none" viewBox="0 0 24 24"><path fill="#000" fill-rule="evenodd" d="M12.5 4a.5.5 0 0 0-.5.5V10a1 1 0 1 1-2 0V5.5a.5.5 0 0 0-1 0V11a1 1 0 1 1-2 0V7.5a.5.5 0 0 0-1 0v6a6.5 6.5 0 1 0 13 0V9a1.996 1.996 0 0 0-2 2v.838c0 .826-.529 1.559-1.312 1.82A2.47 2.47 0 0 0 14 16a1 1 0 1 1-2 0 4.47 4.47 0 0 1 3-4.22V11c0-1.014.379-1.941 1-2.646V5.5a.5.5 0 0 0-1 0V10a1 1 0 1 1-2 0V4.5a.5.5 0 0 0-.5-.5Zm2.112-.838A2.5 2.5 0 0 1 18 5.5v1.626q.481-.124 1-.126a2 2 0 0 1 2 2v4.5a8.5 8.5 0 0 1-17 0v-6a2.5 2.5 0 0 1 3.039-2.442 2.5 2.5 0 0 1 3.349-1.896 2.498 2.498 0 0 1 4.224 0Z" clip-rule="evenodd"/></svg>
