<svg xmlns="http://www.w3.org/2000/svg" fill="none" viewBox="0 0 24 24"><path fill="#000" fill-rule="evenodd" d="M12.067 2a1.13 1.13 0 0 0-1.133 1.127v6.76a.565.565 0 0 1-.567.564.565.565 0 0 1-.566-.564V4.254a1.13 1.13 0 0 0-1.133-1.127 1.13 1.13 0 0 0-1.134 1.127v6.892a.569.569 0 0 1-.975.39l-1.346-1.39a1.706 1.706 0 0 0-2.683.302l-.03.05 2.794 6.785A7.638 7.638 0 0 0 12.362 22C16.581 22 20 18.6 20 14.406V6.507a1.13 1.13 0 0 0-1.133-1.127 1.13 1.13 0 0 0-1.134 1.127v4.507a.565.565 0 0 1-.566.564.565.565 0 0 1-.567-.564v-6.76a1.13 1.13 0 0 0-1.133-1.127 1.13 1.13 0 0 0-1.133 1.127v6.197a.565.565 0 0 1-.567.563.565.565 0 0 1-.566-.563V3.127A1.13 1.13 0 0 0 12.066 2Z" clip-rule="evenodd"/></svg>