<svg xmlns="http://www.w3.org/2000/svg" fill="none" viewBox="0 0 24 24"><path fill="#000" fill-rule="evenodd" d="M10.25 4a.75.75 0 0 0-.75.75V11a1 1 0 1 1-2 0V6.75a.75.75 0 0 0-1.5 0V14a6 6 0 0 0 12 0V9a2 2 0 0 0-2 2v1.5a1 1 0 0 1-.684.949l-.628.21A2.47 2.47 0 0 0 13 16a1 1 0 1 1-2 0 4.47 4.47 0 0 1 3-4.22V11c0-.703.181-1.364.5-1.938V5.75a.75.75 0 0 0-1.5 0V9a1 1 0 1 1-2 0V4.75a.75.75 0 0 0-.75-.75Zm2.316-.733A2.75 2.75 0 0 1 16.5 5.75v1.54A4 4 0 0 1 18 7h1a1 1 0 0 1 1 1v6a8 8 0 1 1-16 0V6.75a2.75 2.75 0 0 1 3.571-2.625 2.751 2.751 0 0 1 4.995-.858Z" clip-rule="evenodd"/></svg>
