<?xml version="1.0" encoding="UTF-8"?>
<!-- Generated by Pixelmator Pro 3.6.1 -->
<svg width="300" height="300" viewBox="0 0 150 150" xmlns="http://www.w3.org/2000/svg">
    <path id="path2" fill="#000000" stroke="none" d="M 46.271484 117.60923 C 35.569031 117.607231 26.927788 108.955399 26.929688 98.298676 L 26.939487 52.697113 C 24.243023 55.440033 21.477421 58.146042 18.759802 60.878754 C 16.23329 63.300476 12.310623 63.22998 9.917969 60.738281 C 7.52532 58.24678 7.592729 54.370804 10.052734 51.949219 L 26.675781 35.275391 C 30.266048 31.747025 36.047771 31.747704 39.570313 35.27739 L 56.253906 51.95903 C 58.580128 54.38147 58.578999 58.185867 56.251907 60.607468 C 53.858368 63.098328 49.869244 63.166641 47.41011 60.744186 L 39.369095 52.716843 L 39.361294 98.300827 C 39.360619 102.106911 42.484341 105.153648 46.273403 105.15435 L 73.052696 105.158348 C 76.509407 105.158974 79.301369 107.92691 79.300751 111.386871 C 79.30014 114.846809 76.57386 117.615997 73.117157 117.615379 Z M 94.076172 98.285156 C 91.75045 95.862732 91.751076 92.058334 94.078171 89.636719 C 96.471718 87.145874 100.460838 87.077545 102.919968 89.5 L 110.960991 97.527344 L 110.968987 51.943359 C 110.969673 48.137268 107.84594 45.090553 104.056877 45.089844 L 77.275627 45.085945 C 73.818924 45.08532 71.02697 42.31739 71.02758 38.85743 C 71.028191 35.397469 73.754478 32.628288 77.211174 32.628914 L 104.05883 32.634811 C 114.761276 32.63681 123.400681 41.288628 123.398682 51.945358 L 123.390678 97.546921 C 126.087158 94.804016 128.852737 92.097992 131.570358 89.36528 C 134.096848 86.94371 138.017548 87.014206 140.410217 89.505905 C 142.802856 91.997391 142.735428 95.873398 140.275436 98.294968 L 123.654297 114.96875 C 120.065742 118.495728 114.271133 118.487198 110.757813 114.966751 Z"/>
</svg>
