<?xml version="1.0" encoding="UTF-8"?>
<svg width="300" height="300" viewBox="0 0 150 150" xmlns="http://www.w3.org/2000/svg">
    <path id="path2" fill="#000000" stroke="none" d="M 46.271484 121.60923 C 35.569031 121.607231 26.927788 112.955399 26.929688 102.298676 L 26.939487 47.697113 C 24.243023 50.440033 21.477421 53.146042 18.759802 55.878754 C 16.23329 58.300476 12.310623 58.22998 9.917969 55.738281 C 7.52532 53.24678 7.592729 49.370804 10.052734 46.949219 L 26.675781 30.275391 C 30.266048 26.747025 36.047771 26.747704 39.570313 30.27739 L 56.253906 46.95903 C 58.580128 49.38147 58.578999 53.185867 56.251907 55.607468 C 53.858368 58.098328 49.869244 58.166641 47.41011 55.744186 L 39.369095 47.716843 L 39.361294 102.300827 C 39.360619 106.106911 42.484341 109.153648 46.273403 109.15435 L 73.052696 109.158348 C 76.509407 109.158974 79.301369 111.92691 79.300751 115.386871 C 79.30014 118.846809 76.57386 121.615997 73.117157 121.615379 Z M 94.076172 102.285156 C 91.75045 99.862732 91.751076 96.058334 94.078171 93.636719 C 96.471718 91.145874 100.460838 91.077545 102.919968 93.5 L 110.960991 101.527344 L 110.968987 46.943359 C 110.969673 43.137268 107.84594 40.090553 104.056877 40.089844 L 77.275627 40.085945 C 73.818924 40.08532 71.02697 37.31739 71.02758 33.85743 C 71.028191 30.397469 73.754478 27.628288 77.211174 27.628914 L 104.05883 27.634811 C 114.761276 27.63681 123.400681 36.288628 123.398682 46.945358 L 123.390678 101.546921 C 126.087158 98.804016 128.852737 96.097992 131.570358 93.36528 C 134.096848 90.94371 138.017548 91.014206 140.410217 93.505905 C 142.802856 95.997391 142.735428 99.873398 140.275436 102.294968 L 123.654297 118.96875 C 120.065742 122.495728 114.271133 122.487198 110.757813 118.966751 Z"/>
</svg>

