<?xml version="1.0" encoding="UTF-8"?>
<!-- Generated by Pixelmator Pro 3.6.5 -->
<svg width="300" height="300" viewBox="0 0 300 300" xmlns="http://www.w3.org/2000/svg">
    <path id="path2" fill="#000000" stroke="none" d="M 78 243 C 63.887001 243.068008 53.985001 233.046005 54 218 L 53.879002 95.393997 C 48.486 100.880005 42.955002 106.291992 37.52 111.757996 C 32.466999 116.600998 24.621 116.459991 19.836 111.47699 C 15.051 106.494003 15.185 98.742004 20.105 93.89801 L 53.352001 60.550995 C 63.624226 49.252884 68.93148 49.370209 79.140999 60.554993 L 112.508003 93.917999 C 117.160004 98.763 117.157997 106.372009 112.503998 111.214996 C 107.717003 116.196991 99.737999 116.333008 94.82 111.488007 L 78.737999 95.43399 L 79 218 L 146.104996 218.317001 C 153.018997 218.317993 158.602997 223.854004 158.602005 230.774002 C 158.600006 237.694 153.147995 243.231995 146.233994 243.231003 L 78 243 Z M 188.151993 204.570007 C 183.501007 199.725006 183.501999 192.117004 188.156006 187.272995 C 192.942993 182.292007 200.921997 182.154999 205.839996 187 L 221.921997 203.054993 L 222 80 C 222.003693 80.010269 154.550995 80.171997 154.550995 80.171997 C 147.638 80.17099 142.054001 74.63501 142.054993 67.714996 C 142.056 60.794998 147.509003 55.257004 154.421997 55.257996 L 223 55 C 237.960007 55.067001 246.985992 63.220001 246.988998 79.988998 L 246.781006 203.093994 C 252.173996 197.608002 257.704987 192.195999 263.140991 186.731003 C 268.194 181.886993 276.035004 182.028 280.820007 187.011993 C 285.605988 191.994995 285.471008 199.746994 280.550995 204.589996 L 247.309006 237.938004 C 236.67807 249.564499 231.853668 249.520309 221.516006 237.934006 L 188.151993 204.570007 Z"/>
</svg>
