<svg xmlns="http://www.w3.org/2000/svg" fill="none" viewBox="0 0 24 24"><path fill="#000" d="M6.043 14.293a1 1 0 1 1 1.414 1.414L5.164 18l2.293 2.293.068.076a1 1 0 0 1-1.406 1.406l-.076-.068-2.47-2.47a1.75 1.75 0 0 1 0-2.474l2.47-2.47Zm6.22 0a1 1 0 0 1 1.414 1.414L12.384 17H18a1 1 0 0 0 1-1v-3a1 1 0 1 1 2 0v3a3 3 0 0 1-3 3h-5.616l1.293 1.293.068.076a1 1 0 0 1-1.406 1.406l-.076-.068-2.47-2.47a1.75 1.75 0 0 1 0-2.474l2.47-2.47ZM3 11V8a3 3 0 0 1 3-3h5.586l-1.293-1.293-.068-.076a1 1 0 0 1 1.406-1.406l.076.068 2.47 2.47.12.133a1.75 1.75 0 0 1 0 2.209l-.12.132-2.47 2.47a1 1 0 1 1-1.414-1.414L11.586 7H6a1 1 0 0 0-1 1v3a1 1 0 1 1-2 0Zm13.543-8.707a1 1 0 0 1 1.338-.068l.076.068 2.47 2.47.12.133a1.75 1.75 0 0 1 0 2.209l-.12.132-2.47 2.47a1 1 0 1 1-1.414-1.414L18.836 6l-2.293-2.293-.068-.076a1 1 0 0 1 .068-1.338Z"/></svg>
