<?xml version="1.0" encoding="UTF-8"?>
<!-- Generated by Pixelmator Pro 3.6.1 -->
<svg width="300" height="300" viewBox="0 0 150 150" xmlns="http://www.w3.org/2000/svg">
    <path id="path1" fill="#000000" stroke="none" d="M 10.883691 52.323929 C 8.423684 54.745506 8.356525 58.620636 10.749176 61.112129 C 13.141833 63.603836 17.063845 63.673805 19.590322 61.252235 C 19.590322 61.252235 19.723284 61.182991 19.723295 61.113724 L 27.768183 53.088226 L 27.769197 53.071114 L 27.761103 98.673363 C 27.759212 109.330109 36.399414 117.981537 47.101879 117.983437 L 73.94841 117.988205 C 77.405113 117.988815 80.131081 115.221268 80.131691 111.761307 C 80.132309 108.301346 77.340858 105.532822 73.884155 105.532204 L 47.104088 105.527451 C 43.315022 105.526779 40.191238 102.481659 40.191914 98.675568 L 40.199001 53.090431 L 48.241047 61.118782 C 50.700184 63.541237 54.688686 63.472885 57.08223 60.982033 C 59.409279 58.560432 59.409954 54.754562 57.083763 52.33213 L 40.40152 35.652138 C 36.878975 32.122498 31.095655 32.121468 27.505384 35.649849 Z M 69.853966 39.76712 C 69.938492 36.048317 72.673187 33.038475 76.129883 33.039093 L 104.747772 33.044174 C 115.450233 33.046074 124.191208 42.200256 124.007332 52.855278 L 123.231766 97.795761 L 131.276672 89.770271 C 133.670197 87.279419 137.592239 87.210854 140.117859 89.633316 C 142.576996 92.055771 142.642792 95.930916 140.249252 98.421776 C 140.249252 98.421776 140.116287 98.490829 140.116272 98.560089 L 123.428108 115.234161 C 119.904305 118.762665 114.120972 118.761635 110.53196 115.231873 L 93.849724 98.55188 C 91.457062 96.060165 91.524246 92.115997 93.984238 89.763687 C 96.377754 87.411148 100.233299 87.411827 102.625969 89.765213 L 110.606941 97.557968 L 111.443581 52.853073 C 111.509392 49.047821 108.386932 46.001846 104.531387 46.00116 L 76.11293 45.996117 C 72.528938 45.995476 69.847466 43.184464 69.853966 39.76712 Z"/>
</svg>
