<?xml version="1.0" encoding="UTF-8" standalone="no"?>
<!DOCTYPE svg PUBLIC "-//W3C//DTD SVG 1.1//EN" "http://www.w3.org/Graphics/SVG/1.1/DTD/svg11.dtd">
<svg width="100%" height="100%" viewBox="0 0 300 300" version="1.1" xmlns="http://www.w3.org/2000/svg" xmlns:xlink="http://www.w3.org/1999/xlink" xml:space="preserve" xmlns:serif="http://www.serif.com/" style="fill-rule:evenodd;clip-rule:evenodd;stroke-linejoin:round;stroke-miterlimit:2;">
    <path id="path2" d="M107.508,243.304C77.433,242.741 54.673,227.294 53.703,190.713L53.879,95.394C48.486,100.88 42.955,106.292 37.52,111.758C32.467,116.601 24.621,116.46 19.836,111.477C15.051,106.494 15.185,98.742 20.105,93.898L53.352,60.551C59.302,53.773 72.83,53.864 79.141,60.555L112.508,93.918C117.16,98.763 117.158,106.372 112.504,111.215C107.717,116.197 99.738,116.333 94.82,111.488L78.738,95.434L78.566,190.718C78.452,209.273 90.732,217.906 107.512,218.395L146.105,218.317C153.019,218.318 158.603,223.854 158.602,230.774C158.6,237.694 153.148,243.232 146.234,243.231L107.508,243.304ZM188.152,204.57C183.501,199.725 183.502,192.117 188.156,187.273C192.943,182.292 200.922,182.155 205.84,187L221.922,203.055L222.802,106.503C222.447,92.662 212.375,80.486 196.305,80.286L154.551,80.172C147.638,80.171 142.054,74.635 142.055,67.715C142.056,60.795 147.509,55.257 154.422,55.258L195.154,55.3C222.743,55.591 246.478,80.412 247.284,107.643L246.781,203.094C252.174,197.608 257.705,192.196 263.141,186.731C268.194,181.887 276.035,182.028 280.82,187.012C285.606,191.995 285.471,199.747 280.551,204.59L247.309,237.938C241.681,243.771 227.555,243.686 221.516,237.934L188.152,204.57Z" style="fill-rule:nonzero;"/>
</svg>
