<svg xmlns="http://www.w3.org/2000/svg" fill="none" viewBox="0 0 24 24"><path fill="#000" fill-rule="evenodd" d="M16.793 2.293a1 1 0 0 1 1.414 0L20.5 4.586a2 2 0 0 1 0 2.828l-2.293 2.293a1 1 0 0 1-1.414-1.414L18.086 7H7a2 2 0 0 0-2 2v2a1 1 0 1 1-2 0V9a4 4 0 0 1 4-4h11.086l-1.293-1.293a1 1 0 0 1 0-1.414ZM20 12a1 1 0 0 1 1 1v2a4 4 0 0 1-4 4H5.914l1.293 1.293a1 1 0 1 1-1.414 1.414L3.5 19.414a2 2 0 0 1 0-2.828l2.293-2.293a1 1 0 0 1 1.414 1.414L5.914 17H17a2 2 0 0 0 2-2v-2a1 1 0 0 1 1-1Z" clip-rule="evenodd"/></svg>
