<svg xmlns="http://www.w3.org/2000/svg" fill="none" viewBox="0 0 24 24"><path fill="#000" fill-rule="evenodd" d="M10.75 2.469a2 2 0 0 1 2.5 0l1.42 1.136 1.44-.576A1.378 1.378 0 0 1 18 4.309V8a6 6 0 0 1-5 5.917v1.69a6.12 6.12 0 0 1 4.224-1.606A1.796 1.796 0 0 1 19 15.857a6.143 6.143 0 0 1-6 6.141V22h-2v-.002a6.143 6.143 0 0 1-6-6.222A1.796 1.796 0 0 1 6.858 14 6.12 6.12 0 0 1 11 15.607v-1.69A6 6 0 0 1 6 8V4.308c0-.975.985-1.641 1.89-1.28l1.44.577 1.42-1.136ZM7.004 16.003a4.143 4.143 0 0 1 3.995 3.994 4.143 4.143 0 0 1-3.995-3.994Zm9.994 0a4.143 4.143 0 0 1-3.995 3.994 4.143 4.143 0 0 1 3.995-3.994ZM13.42 5.167 12 4.03l-1.42 1.136a2 2 0 0 1-1.992.295L8 5.227V8a4 4 0 0 0 8 0V5.227l-.588.235a2 2 0 0 1-1.992-.295Z" clip-rule="evenodd"/></svg>
