<svg xmlns="http://www.w3.org/2000/svg" fill="none" viewBox="0 0 24 24"><path fill="#000" fill-rule="evenodd" d="M9.996 2.869A1.95 1.95 0 0 1 11.62 2h.76c.653 0 1.262.326 1.624.869l1.141 1.712 1.749-.404a1.95 1.95 0 0 1 1.819.522l.588.589a1.95 1.95 0 0 1 .522 1.818l-.404 1.749 1.712 1.141c.543.362.869.971.869 1.624v.76c0 .653-.326 1.262-.869 1.624l-1.712 1.141.404 1.749a1.95 1.95 0 0 1-.522 1.819l-.588.588a1.95 1.95 0 0 1-1.819.522l-1.749-.404-1.141 1.712A1.95 1.95 0 0 1 12.38 22h-.76a1.95 1.95 0 0 1-1.624-.869L8.855 19.42l-1.749.404a1.95 1.95 0 0 1-1.818-.522l-.59-.588a1.95 1.95 0 0 1-.52-1.819l.403-1.749-1.712-1.141A1.95 1.95 0 0 1 2 12.38v-.76c0-.653.326-1.262.869-1.624L4.58 8.855l-.404-1.749A1.95 1.95 0 0 1 4.7 5.288l.589-.59a1.95 1.95 0 0 1 1.818-.52l1.749.403 1.141-1.712ZM8.5 12a3.5 3.5 0 1 1 7 0 3.5 3.5 0 0 1-7 0Z" clip-rule="evenodd"/></svg>
