<svg xmlns="http://www.w3.org/2000/svg" fill="none" viewBox="0 0 24 24"><path fill="#000" fill-rule="evenodd" d="M11.1 2a1 1 0 0 0-.832.445L8.851 4.57 6.6 4.05a1 1 0 0 0-.932.268l-1.35 1.35a1 1 0 0 0-.267.932l.52 2.251-2.126 1.417A1 1 0 0 0 2 11.1v1.8a1 1 0 0 0 .445.832l2.125 1.417-.52 2.251a1 1 0 0 0 .268.932l1.35 1.35a1 1 0 0 0 .932.267l2.251-.52 1.417 2.126A1 1 0 0 0 11.1 22h1.8a1 1 0 0 0 .832-.445l1.417-2.125 2.251.52a1 1 0 0 0 .932-.268l1.35-1.35a1 1 0 0 0 .267-.932l-.52-2.251 2.126-1.417A1 1 0 0 0 22 12.9v-1.8a1 1 0 0 0-.445-.832L19.43 8.851l.52-2.251a1 1 0 0 0-.268-.932l-1.35-1.35a1 1 0 0 0-.932-.267l-2.251.52-1.417-2.126A1 1 0 0 0 12.9 2h-1.8Zm-.968 4.255L11.635 4h.73l1.503 2.255a1 1 0 0 0 1.057.42l2.385-.551.566.566-.55 2.385a1 1 0 0 0 .42 1.057L20 11.635v.73l-2.255 1.503a1 1 0 0 0-.42 1.057l.551 2.385-.566.566-2.385-.55a1 1 0 0 0-1.057.42L12.365 20h-.73l-1.503-2.255a1 1 0 0 0-1.057-.42l-2.385.551-.566-.566.55-2.385a1 1 0 0 0-.42-1.057L4 12.365v-.73l2.255-1.503a1 1 0 0 0 .42-1.057L6.123 6.69l.566-.566 2.385.55a1 1 0 0 0 1.057-.42ZM8 12a4 4 0 1 1 8 0 4 4 0 0 1-8 0Zm4-2a2 2 0 1 0 0 4 2 2 0 0 0 0-4Z" clip-rule="evenodd"/></svg>
