<svg xmlns="http://www.w3.org/2000/svg" fill="none" viewBox="0 0 24 24"><path fill="#000" fill-rule="evenodd" d="M2.275 4.312A1 1 0 0 1 3 4h.55a4 4 0 0 1 3.656 2.375l.616 1.388.47-.47 1.001-1a2.414 2.414 0 0 1 3.948.807 2.41 2.41 0 0 1 2.5 1.5 2.41 2.41 0 0 1 2.234 1.01l.805-.804c.95-.95 2.49-.95 3.44 0 .93.93.958 2.439.035 3.395-1.228 1.271-3.406 3.497-5.078 5.035a94 94 0 0 1-2.82 2.467c-2.481 2.1-6.156 1.748-8.264-.684L3.87 16.452a6 6 0 0 1-1.458-3.614l-.41-7.785a1 1 0 0 1 .274-.741Zm14.022 6.977-1.004 1.004-.007.006-.493.494a.414.414 0 1 1-.586-.586l1.5-1.5a.414.414 0 0 1 .59.582Zm-4.18 1.595a2.414 2.414 0 0 0 4.09 1.323l1.5-1.5.01-.01 2.477-2.477a.433.433 0 0 1 .612 0 .42.42 0 0 1 .01.591c-1.228 1.272-3.37 3.46-4.993 4.953a92 92 0 0 1-2.757 2.412c-1.62 1.371-4.05 1.162-5.461-.467L5.38 15.143a4 4 0 0 1-.972-2.41l-.35-6.668a2 2 0 0 1 1.32 1.123l1.208 2.718a1 1 0 0 0 1.42.456A2.42 2.42 0 0 0 10.26 11.4a2.41 2.41 0 0 0 1.857 1.484Zm.676-2.091 1-1a.414.414 0 1 0-.586-.586l-1 1a.414.414 0 1 0 .586.586Zm-2-2 .5-.5a.414.414 0 1 0-.586-.586l-1 1a.414.414 0 0 0 .586.586l.5-.5Z" clip-rule="evenodd"/></svg>
