<svg xmlns="http://www.w3.org/2000/svg" fill="none" viewBox="0 0 24 24"><path fill="#000" fill-rule="evenodd" d="M7 3a1 1 0 0 1 1 1v2h2a1 1 0 1 1 0 2H8v2a1 1 0 1 1-2 0V8H4a1 1 0 0 1 0-2h2V4a1 1 0 0 1 1-1Zm6 4a4 4 0 1 1 8 0 4 4 0 0 1-8 0Zm4-2a2 2 0 1 0 0 4 2 2 0 0 0 0-4ZM3 14a1 1 0 0 1 1-1h6a1 1 0 0 1 1 1v6a1 1 0 0 1-1 1H4a1 1 0 0 1-1-1v-6Zm2 1v4h4v-4H5Zm9.171-.829a1 1 0 0 1 1.415 0L17 15.585l1.414-1.414a1 1 0 1 1 1.414 1.414L18.414 17l1.414 1.414a1 1 0 0 1-1.414 1.414L17 18.414l-1.415 1.414a1 1 0 0 1-1.414-1.414l1.415-1.415-1.415-1.414a1 1 0 0 1 0-1.414Z" clip-rule="evenodd"/></svg>
