<svg xmlns="http://www.w3.org/2000/svg" fill="none" viewBox="0 0 24 24"><path fill="#000" fill-rule="evenodd" d="M12 2a1 1 0 0 1 1 1c0 3.188.669 5.256 1.882 6.536C16.084 10.805 18.01 11.5 21 11.5a1 1 0 1 1 0 2c-2.99 0-4.916.695-6.118 1.964C13.67 16.744 13 18.812 13 22a1 1 0 1 1-2 0c0-3.188-.669-5.256-1.882-6.536C7.916 14.195 5.99 13.5 3 13.5a1 1 0 1 1 0-2c2.99 0 4.916-.695 6.118-1.964C10.33 8.256 11 6.188 11 3a1 1 0 0 1 1-1Zm0 6.734a7.6 7.6 0 0 1-1.43 2.178A7.3 7.3 0 0 1 8.349 12.5a7.3 7.3 0 0 1 2.22 1.588A7.6 7.6 0 0 1 12 16.267a7.6 7.6 0 0 1 1.43-2.179 7.3 7.3 0 0 1 2.221-1.588 7.3 7.3 0 0 1-2.22-1.588A7.6 7.6 0 0 1 12 8.734Z" clip-rule="evenodd"/></svg>
