<svg xmlns="http://www.w3.org/2000/svg" fill="none" viewBox="0 0 24 24"><path fill="#000" d="M20 4.25a.25.25 0 0 0-.25-.25h-9.5a.25.25 0 0 0-.25.25v9.5c0 .138.112.25.25.25h9.5a.25.25 0 0 0 .25-.25zM4 19.75c0 .138.112.25.25.25h9.5a.25.25 0 0 0 .25-.25V16h-3.75A2.25 2.25 0 0 1 8 13.75V10H4.25a.25.25 0 0 0-.25.25zm18-6A2.25 2.25 0 0 1 19.75 16H16v3.75A2.25 2.25 0 0 1 13.75 22h-9.5A2.25 2.25 0 0 1 2 19.75v-9.5A2.25 2.25 0 0 1 4.25 8H8V4.25A2.25 2.25 0 0 1 10.25 2h9.5A2.25 2.25 0 0 1 22 4.25z"/></svg>
