<svg xmlns="http://www.w3.org/2000/svg" fill="none" viewBox="0 0 24 24"><path fill="#000" fill-rule="evenodd" d="M11.26 5.227 5.02 6.899c-.734.197-1.17.95-.973 1.685l1.672 6.24c.197.734.951 1.17 1.685.973l6.24-1.672a1.376 1.376 0 0 0 .973-1.685L12.945 6.2a1.375 1.375 0 0 0-1.685-.973Zm-6.566.459a2.63 2.63 0 0 0-1.86 3.223l1.672 6.24a2.63 2.63 0 0 0 3.223 1.861l6.24-1.672a2.63 2.63 0 0 0 1.861-3.223l-1.672-6.24a2.63 2.63 0 0 0-3.223-1.861l-6.24 1.672Z" clip-rule="evenodd"/><path fill="#000" fill-rule="evenodd" d="M15.138 18.411a4.606 4.606 0 1 0 0-9.211 4.606 4.606 0 0 0 0 9.211Zm0 1.257a5.862 5.862 0 1 0 0-11.724 5.862 5.862 0 0 0 0 11.724Z" clip-rule="evenodd"/></svg>
