<svg xmlns="http://www.w3.org/2000/svg" fill="none" viewBox="0 0 24 24"><path fill="#000" fill-rule="evenodd" d="M10.775 2.74a3 3 0 0 1 3.524 2.158l.57 2.13a7.5 7.5 0 1 1-6.12 10.744l-2.228.598-.15.036a3 3 0 0 1-3.48-2.009l-.044-.148L.777 8.52A3 3 0 0 1 2.75 4.89l.148-.044 7.728-2.07.149-.037Zm4.624 6.262.97 3.624.037.149a3 3 0 0 1-2.009 3.48l-.148.044-3.517.942A5.5 5.5 0 1 0 15.5 9l-.101.002Zm-3.031-3.586a1 1 0 0 0-1.225-.707l-7.727 2.07a1 1 0 0 0-.707 1.225l2.07 7.727a1 1 0 0 0 1.225.707l2.123-.57a7.504 7.504 0 0 1 4.788-8.412l-.547-2.04ZM13.435 9.4a5.5 5.5 0 0 0-3.37 5.948l3.666-.981a1 1 0 0 0 .707-1.225L13.435 9.4Z" clip-rule="evenodd"/></svg>
