<svg xmlns="http://www.w3.org/2000/svg" fill="none" viewBox="0 0 24 24"><path fill="#000" fill-rule="evenodd" d="M12 1a1 1 0 0 1 .902.568l2.643 5.517 6.085.799a1 1 0 0 1 .557 1.718l-4.45 4.207 1.118 6.008a1 1 0 0 1-1.46 1.063L12 17.962 6.604 20.88a1 1 0 0 1-1.459-1.063l1.117-6.008-4.45-4.207a1 1 0 0 1 .558-1.718l6.085-.8 2.643-5.516A1 1 0 0 1 12 1Zm0 3.315-1.975 4.123a1 1 0 0 1-.772.56l-4.538.595 3.317 3.137a1 1 0 0 1 .296.91l-.834 4.485 4.03-2.179a1 1 0 0 1 .952 0l4.03 2.179-.834-4.485a1 1 0 0 1 .296-.91l3.317-3.137-4.538-.596a1 1 0 0 1-.772-.56L12 4.316Z" clip-rule="evenodd"/></svg>
