<svg xmlns="http://www.w3.org/2000/svg" fill="none" viewBox="0 0 153 133"><path fill="url(#a)" fill-rule="evenodd" d="m60.196 105.445-18.1 4.85c-11.73 3.143-23.788-3.819-26.931-15.55L1.19 42.597c-3.143-11.731 3.819-23.79 15.55-26.932L68.889 1.69C80.62-1.452 92.68 5.51 95.821 17.241l4.667 17.416a50 50 0 0 1 3.522-.125c27.053 0 48.984 21.931 48.984 48.984S131.063 132.5 104.01 132.5c-19.17 0-35.769-11.012-43.814-27.055ZM19.457 25.804 71.606 11.83c6.131-1.643 12.434 1.996 14.076 8.127l4.44 16.571c-20.289 5.987-35.096 24.758-35.096 46.988 0 4.157.517 8.193 1.492 12.047l-17.138 4.593c-6.131 1.642-12.434-1.996-14.077-8.128L11.33 39.88c-1.643-6.131 1.996-12.434 8.127-14.077Zm83.812 19.232q.369-.007.741-.007c21.256 0 38.487 17.231 38.487 38.487s-17.231 38.488-38.487 38.488c-14.29 0-26.76-7.788-33.4-19.35l23.635-6.333c11.731-3.143 18.693-15.2 15.55-26.932l-6.526-24.353Zm-10.428 1.638 6.815 25.432c1.642 6.131-1.996 12.434-8.128 14.076l-24.867 6.664a38.6 38.6 0 0 1-1.139-9.33c0-17.372 11.51-32.056 27.32-36.842Z" clip-rule="evenodd"/><defs><linearGradient id="a" x1="76.715" x2="76.715" y1=".937" y2="132.5" gradientUnits="userSpaceOnUse"><stop stop-color="#0A7AFF"/><stop offset="1" stop-color="#59B9FF"/></linearGradient></defs></svg>
