<svg xmlns="http://www.w3.org/2000/svg" fill="none" viewBox="0 0 24 24"><path fill="#000" stroke="#000" stroke-linejoin="round" d="M4 5.5a.5.5 0 0 0-.5.5v2.535a.5.5 0 0 0 .25.433A3.5 3.5 0 0 1 5.5 12a3.5 3.5 0 0 1-1.75 3.032.5.5 0 0 0-.25.433V18a.5.5 0 0 0 .5.5h16a.5.5 0 0 0 .5-.5v-2.535a.5.5 0 0 0-.25-.433A3.5 3.5 0 0 1 18.5 12a3.5 3.5 0 0 1 1.75-3.032.5.5 0 0 0 .25-.433V6a.5.5 0 0 0-.5-.5H4ZM2.5 6A1.5 1.5 0 0 1 4 4.5h16A1.5 1.5 0 0 1 21.5 6v3.17a.5.5 0 0 1-.333.472 2.501 2.501 0 0 0 0 4.716.5.5 0 0 1 .333.471V18a1.5 1.5 0 0 1-1.5 1.5H4A1.5 1.5 0 0 1 2.5 18v-3.17a.5.5 0 0 1 .333-.472 2.501 2.501 0 0 0 0-4.716.5.5 0 0 1-.333-.471V6Zm12 2a.5.5 0 1 1 1 0 .5.5 0 0 1-1 0Zm0 4a.5.5 0 1 1 1 0 .5.5 0 0 1-1 0Zm0 4a.5.5 0 1 1 1 0 .5.5 0 0 1-1 0Z"/></svg>
