<svg xmlns="http://www.w3.org/2000/svg" fill="none" viewBox="0 0 24 24"><path fill="#000" fill-rule="evenodd" d="M3 4a1 1 0 0 0-1 1v4.17a1 1 0 0 0 .667.944 2.001 2.001 0 0 1 0 3.772A1 1 0 0 0 2 14.83V19a1 1 0 0 0 1 1h18a1 1 0 0 0 1-1v-4.17a1 1 0 0 0-.667-.944 2.001 2.001 0 0 1 0-3.772A1 1 0 0 0 22 9.17V5a1 1 0 0 0-1-1H3Zm1 4.535V6h16v2.535A4 4 0 0 0 18 12c0 1.482.805 2.773 2 3.465V18H4v-2.535A4 4 0 0 0 6 12a4 4 0 0 0-2-3.465ZM15 15a1 1 0 1 0 0 2 1 1 0 0 0 0-2Zm-1-3a1 1 0 1 1 2 0 1 1 0 0 1-2 0Zm1-5a1 1 0 1 0 0 2 1 1 0 0 0 0-2Z" clip-rule="evenodd"/></svg>
