<svg xmlns="http://www.w3.org/2000/svg" fill="none" viewBox="0 0 24 24"><path fill="#000" fill-rule="evenodd" d="M12 4a8 8 0 0 0-5.935 13.365C7.56 15.895 9.612 15 12 15s4.44.894 5.935 2.365A8 8 0 0 0 12 4Zm4.412 14.675C15.298 17.636 13.792 17 12 17s-3.298.636-4.412 1.675A7.96 7.96 0 0 0 12 20a7.96 7.96 0 0 0 4.412-1.325ZM2 12C2 6.477 6.477 2 12 2s10 4.477 10 10a9.98 9.98 0 0 1-3.462 7.567A9.97 9.97 0 0 1 12 22a9.97 9.97 0 0 1-6.538-2.433A9.98 9.98 0 0 1 2 12Zm10-4a2 2 0 1 0 0 4 2 2 0 0 0 0-4Zm-4 2a4 4 0 1 1 8 0 4 4 0 0 1-8 0Z" clip-rule="evenodd"/></svg>
