<svg xmlns="http://www.w3.org/2000/svg" fill="none" viewBox="0 0 24 24"><path fill="#1185FE" d="M8.792 1.615a4.154 4.154 0 0 1 6.416 0 4.15 4.15 0 0 0 3.146 1.515 4.154 4.154 0 0 1 4 5.017 4.15 4.15 0 0 0 .777 3.404 4.154 4.154 0 0 1-1.427 6.255 4.15 4.15 0 0 0-2.177 2.73 4.154 4.154 0 0 1-5.781 2.784 4.15 4.15 0 0 0-3.492 0 4.154 4.154 0 0 1-5.78-2.784 4.15 4.15 0 0 0-2.178-2.73A4.154 4.154 0 0 1 .87 11.551a4.15 4.15 0 0 0 .776-3.404 4.154 4.154 0 0 1 4-5.017 4.15 4.15 0 0 0 3.146-1.515Z"/><path fill="#fff" fill-rule="evenodd" d="M17.861 8.26a1.44 1.44 0 0 1 0 2.033l-6.571 6.571a1.437 1.437 0 0 1-2.033 0L5.97 13.58a1.438 1.438 0 0 1 2.033-2.033l2.27 2.269 5.554-5.555a1.437 1.437 0 0 1 2.033 0Z" clip-rule="evenodd"/></svg>
