<svg xmlns="http://www.w3.org/2000/svg" fill="none" viewBox="0 0 24 24"><path fill="#000" fill-rule="evenodd" d="M10.467 2.698a2.03 2.03 0 0 1 3.066 0l1.358 1.564a.03.03 0 0 0 .027.01l2.046-.325a2.03 2.03 0 0 1 2.348 1.97l.036 2.071q0 .016.014.026l1.776 1.066a2.03 2.03 0 0 1 .532 3.018l-1.304 1.61a.03.03 0 0 0-.005.029l.675 1.957a2.03 2.03 0 0 1-1.533 2.655l-2.033.395a.03.03 0 0 0-.022.019l-.742 1.933a2.03 2.03 0 0 1-2.88 1.049l-1.811-1.005a.03.03 0 0 0-.03 0l-1.81 1.005a2.03 2.03 0 0 1-2.881-1.049l-.742-1.933a.03.03 0 0 0-.022-.02l-2.033-.394a2.03 2.03 0 0 1-1.533-2.655l.675-1.957a.03.03 0 0 0-.005-.03L2.33 12.099a2.03 2.03 0 0 1 .532-3.018l1.776-1.066a.03.03 0 0 0 .014-.026l.036-2.07a2.03 2.03 0 0 1 2.348-1.97l2.045.324a.03.03 0 0 0 .028-.01l1.358-1.564Zm1.52 1.304-.01.008-1.358 1.563a2.03 2.03 0 0 1-1.85.674l-2.046-.324H6.71l-.011.006-.009.01-.002.013-.036 2.07a2.03 2.03 0 0 1-.985 1.706l-1.775 1.066-.01.009-.004.012v.014q0 .003.006.01l1.304 1.61c.44.544.57 1.277.342 1.94l-.675 1.957-.002.012q0 .006.004.013l.01.01.01.005 2.034.394a2.03 2.03 0 0 1 1.509 1.266l.741 1.934q.004.01.007.01l.011.008.013.002q.003.001.012-.004l1.811-1.005a2.03 2.03 0 0 1 1.97 0l1.81 1.005.013.004.013-.003.011-.006.007-.011.742-1.934a2.03 2.03 0 0 1 1.508-1.266l2.033-.394.012-.005.009-.01.004-.012-.002-.013-.675-1.958a2.03 2.03 0 0 1 .342-1.94l1.304-1.609.006-.01v-.014l-.005-.012-.009-.009-1.775-1.066a2.03 2.03 0 0 1-.985-1.705l-.036-2.071-.002-.012-.009-.01-.011-.007h-.013l-2.045.324a2.03 2.03 0 0 1-1.85-.674l-1.36-1.563-.009-.008L12 4l-.013.002Zm3.22 5.79a1 1 0 0 1 0 1.415l-3.146 3.146a1.5 1.5 0 0 1-2.122 0l-1.146-1.146a1 1 0 1 1 1.414-1.414l.793.793 2.793-2.793a1 1 0 0 1 1.414 0Z" clip-rule="evenodd"/></svg>
