<svg xmlns="http://www.w3.org/2000/svg" fill="none" viewBox="0 0 24 24"><path fill="#208BFE" d="M8.792 1.54a4.11 4.11 0 0 1 6.416 0 4.13 4.13 0 0 0 3.146 1.54c2.616.04 4.544 2.5 4 5.1a4.28 4.28 0 0 0 .777 3.462c1.6 2.104.912 5.17-1.427 6.36a4.21 4.21 0 0 0-2.177 2.774c-.62 2.584-3.408 3.948-5.781 2.83a4.1 4.1 0 0 0-3.492 0c-2.373 1.118-5.16-.246-5.78-2.83a4.21 4.21 0 0 0-2.178-2.775c-2.34-1.19-3.028-4.256-1.427-6.36a4.28 4.28 0 0 0 .777-3.46c-.544-2.602 1.384-5.06 4-5.1a4.13 4.13 0 0 0 3.146-1.54Z"/><path fill="#fff" fill-rule="evenodd" d="M17.659 8.399a1.36 1.36 0 0 1 0 1.925l-6.224 6.223a1.36 1.36 0 0 1-1.925 0L6.4 13.435a1.361 1.361 0 1 1 1.925-1.925l2.149 2.15 5.26-5.261a1.36 1.36 0 0 1 1.925 0Z" clip-rule="evenodd"/></svg>
