<svg xmlns="http://www.w3.org/2000/svg" fill="none" viewBox="0 0 46 46"><path stroke="#405168" stroke-linecap="square" stroke-linejoin="round" stroke-width="2" d="M1 23h10.667M1 23V12m0 11v11m10.667-11h22.666m-22.666 0v11m0-11V12m22.666 11H45m-10.667 0v12.222m0-12.222V12M45 23V12m0 11v12.222M34.333 45h5.334A5.333 5.333 0 0 0 45 39.667v-4.445M34.333 45v-9.778m0 9.778H11.667M34.333 1h5.334A5.333 5.333 0 0 1 45 6.333V12M34.333 1v11m0-11H11.667m22.666 11H45M34.333 35.222H45M11.667 45H6.333A5.333 5.333 0 0 1 1 39.667V34m10.667 11V34m0-33H6.333A5.333 5.333 0 0 0 1 6.333V12M11.667 1v11M1 12h10.667M1 34h10.667"/></svg>
