<svg xmlns="http://www.w3.org/2000/svg" fill="none" viewBox="0 0 64 64"><path fill="#000" d="M26.108 9.886c2.632-4.514 9.152-4.514 11.784 0l18.671 32.02v0c2.651 4.548-.627 10.261-5.892 10.261H13.329c-5.265 0-8.543-5.713-5.892-10.26v-.002l18.671-32.02Zm9.192 1.51c-1.474-2.528-5.125-2.528-6.6 0L10.028 43.418c-1.486 2.55.353 5.75 3.301 5.75h37.342c2.948 0 4.787-3.2 3.3-5.75L35.3 11.397ZM32 36.834a2.167 2.167 0 1 1 0 4.334 2.167 2.167 0 0 1 0-4.334Zm-1.5-3.797v-7.985a1.5 1.5 0 0 1 3 0v7.985a1.5 1.5 0 0 1-3 0Z"/></svg>
