<svg width="12" height="13" viewBox="0 0 12 13" fill="none" xmlns="http://www.w3.org/2000/svg">
<g clip-path="url(#clip0_938_54641)">
<path d="M5.99997 11.6071C8.8206 11.6071 11.1071 9.32064 11.1071 6.5C11.1071 3.67941 8.8206 1.39286 5.99997 1.39286C3.17937 1.39286 0.892822 3.67941 0.892822 6.5C0.892822 9.32064 3.17937 11.6071 5.99997 11.6071Z" stroke="#C30B0D" stroke-width="1.25" stroke-linecap="round" stroke-linejoin="round"/>
<path d="M6 4.14286V6.69643" stroke="#C30B0D" stroke-width="1.25" stroke-linecap="round" stroke-linejoin="round"/>
<path d="M6.00002 8.85714C5.89153 8.85714 5.80359 8.7692 5.80359 8.66072C5.80359 8.55223 5.89153 8.46429 6.00002 8.46429" stroke="#C30B0D" stroke-width="1.25" stroke-linecap="round" stroke-linejoin="round"/>
<path d="M6 8.85714C6.10848 8.85714 6.19643 8.7692 6.19643 8.66072C6.19643 8.55223 6.10848 8.46429 6 8.46429" stroke="#C30B0D" stroke-width="1.25" stroke-linecap="round" stroke-linejoin="round"/>
</g>
<defs>
<clipPath id="clip0_938_54641">
<rect width="12" height="12" fill="white" transform="translate(0 0.5)"/>
</clipPath>
</defs>
</svg>
