<svg width="48" height="49" viewBox="0 0 48 49" fill="none" xmlns="http://www.w3.org/2000/svg">
<path d="M24 2.57129C36.1109 2.57136 45.9286 12.3893 45.9287 24.5C45.9286 36.6109 36.1109 46.4286 24 46.4287C11.8893 46.4286 2.07136 36.6109 2.07129 24.5C2.07137 12.3893 11.8893 2.57136 24 2.57129ZM24 33.8613C21.5619 33.8613 19.1647 34.4885 17.0391 35.6826H17.0381C15.2917 36.6635 13.7773 38.0009 12.5889 39.6016C15.7618 42.0029 19.7141 43.4287 24 43.4287C28.2859 43.4287 32.2382 42.0029 35.4111 39.6016C34.2225 38.001 32.7084 36.6635 30.9619 35.6826C28.8361 34.4883 26.4383 33.8614 24 33.8613ZM24 5.57129C13.5461 5.57136 5.07137 14.0462 5.07129 24.5C5.07133 29.5851 7.07703 34.2017 10.3398 37.6025C11.7543 35.7575 13.5313 34.2121 15.5693 33.0674L16.0557 32.8047C18.5069 31.5294 21.2316 30.8613 24 30.8613C26.9528 30.8614 29.8562 31.6211 32.4307 33.0674L32.9082 33.3457C34.7469 34.4575 36.3572 35.9025 37.6602 37.6016C40.9228 34.2007 42.9287 29.5849 42.9287 24.5C42.9286 14.0462 34.454 5.57136 24 5.57129ZM24 10.4287C29.1677 10.4289 33.3564 14.6184 33.3564 19.7861C33.3562 24.9536 29.1675 29.1424 24 29.1426C18.8325 29.1424 14.6428 24.9537 14.6426 19.7861C14.6426 14.6184 18.8323 10.4288 24 10.4287ZM24 13.4287C20.4892 13.4288 17.6426 16.2753 17.6426 19.7861C17.6428 23.2968 20.4893 26.1424 24 26.1426C27.5107 26.1424 30.3562 23.2968 30.3564 19.7861C30.3564 16.2753 27.5108 13.4289 24 13.4287Z" fill="#C30B0D"/>
</svg>
