<svg width="48" height="49" viewBox="0 0 48 49" fill="none" xmlns="http://www.w3.org/2000/svg">
<path d="M41.3573 40.2147V33.9286C41.3573 33.1001 42.0289 32.4286 42.8573 32.4286C43.6857 32.4286 44.3573 33.1002 44.3573 33.9286V40.2147C44.3572 41.4459 43.8674 42.6265 42.9969 43.4969C42.1265 44.3674 40.9459 44.8572 39.7147 44.8573H33.4286C32.6002 44.8573 31.9287 44.1856 31.9286 43.3573C31.9286 42.5288 32.6002 41.8573 33.4286 41.8573H39.7147C40.1502 41.8572 40.5679 41.6838 40.8759 41.3758C41.1838 41.0679 41.3572 40.6501 41.3573 40.2147Z" fill="#C30B0D"/>
<path d="M41.3573 15.0716V8.78543C41.3572 8.40444 41.2247 8.0368 40.9852 7.74442L40.8759 7.6243C40.5681 7.31646 40.1503 7.14296 39.7147 7.14285H33.4286C32.6002 7.14285 31.9286 6.47128 31.9286 5.64285C31.9286 4.81443 32.6002 4.14285 33.4286 4.14285H39.7147C40.9458 4.14296 42.1264 4.63248 42.9969 5.5032C43.8673 6.3737 44.3572 7.554 44.3573 8.78543V15.0716C44.3572 15.8999 43.6856 16.5715 42.8573 16.5716C42.0289 16.5716 41.3574 15.8999 41.3573 15.0716Z" fill="#C30B0D"/>
<path d="M3.64282 15.0716V8.78543C3.6429 7.55436 4.1319 6.37379 5.0022 5.5032L5.00317 5.50223C5.87376 4.63193 7.05433 4.14293 8.2854 4.14285H14.5715L14.7249 4.15067C15.4812 4.22753 16.0715 4.86624 16.0715 5.64285C16.0715 6.41947 15.4812 7.05818 14.7249 7.13504L14.5715 7.14285H8.2854C7.84981 7.14293 7.43233 7.31627 7.12427 7.6243C6.81624 7.93236 6.6429 8.34984 6.64282 8.78543V15.0716C6.64275 15.8999 5.9712 16.5716 5.14282 16.5716C4.31444 16.5716 3.6429 15.8999 3.64282 15.0716Z" fill="#C30B0D"/>
<path d="M3.64282 40.2147V33.9286C3.64282 33.1001 4.3144 32.4286 5.14282 32.4286C5.97125 32.4286 6.64282 33.1001 6.64282 33.9286V40.2147C6.64293 40.6503 6.81643 41.068 7.12427 41.3758L7.24438 41.4852C7.53677 41.7247 7.90441 41.8572 8.2854 41.8573H14.5715L14.7249 41.8651C15.4812 41.9419 16.0715 42.5807 16.0715 43.3573C16.0715 44.1338 15.4812 44.7726 14.7249 44.8495L14.5715 44.8573H8.2854C7.05397 44.8572 5.87367 44.3672 5.00317 43.4969C4.13245 42.6263 3.64293 41.4458 3.64282 40.2147Z" fill="#C30B0D"/>
<path d="M22.4995 15.8571C22.4995 15.0289 23.1713 14.3574 23.9995 14.3571C24.8279 14.3571 25.4995 15.0287 25.4995 15.8571V26.8571C25.4995 27.6856 24.8279 28.3571 23.9995 28.3571H19.2856C18.4572 28.3571 17.7856 27.6856 17.7856 26.8571C17.7856 26.0287 18.4572 25.3571 19.2856 25.3571H22.4995V15.8571Z" fill="#C30B0D"/>
<path d="M30.8244 32.055C31.4251 31.4848 32.3741 31.5092 32.9446 32.1096C33.5151 32.7103 33.4905 33.6602 32.8899 34.2307C30.491 36.5092 27.3088 37.7795 24.0002 37.7796C20.8983 37.7796 17.907 36.663 15.5686 34.6458L15.1096 34.2307L15.0041 34.1194C14.5084 33.5428 14.52 32.6728 15.0549 32.1096C15.5899 31.5464 16.4585 31.4898 17.0598 31.9553L17.176 32.055L17.5276 32.3743C19.3226 33.9228 21.6191 34.7796 24.0002 34.7796C26.5399 34.7795 28.983 33.804 30.8244 32.055Z" fill="#C30B0D"/>
<path d="M14.7251 13.5792C15.4813 13.6562 16.0718 14.2949 16.0718 15.0714C16.0718 15.3597 15.9882 15.6279 15.8472 15.8566C15.9885 16.0853 16.0718 16.3541 16.0718 16.6427C16.0718 17.4192 15.4813 18.0579 14.7251 18.1349L14.5718 18.1427L14.3374 18.131C13.2618 18.0216 12.4066 17.1666 12.2974 16.0909L12.2856 15.8575L12.2974 15.6232C12.4145 14.4707 13.3884 13.5714 14.5718 13.5714L14.7251 13.5792Z" fill="#C30B0D"/>
<path d="M16.8575 15.8575C16.8573 17.1197 15.8336 18.1427 14.5714 18.1427C13.743 18.1427 13.0714 17.4711 13.0714 16.6427C13.0714 16.3542 13.1539 16.0853 13.295 15.8566C13.1541 15.628 13.0714 15.3596 13.0714 15.0714C13.0714 14.243 13.743 13.5714 14.5714 13.5714C15.8338 13.5714 16.8575 14.5952 16.8575 15.8575Z" fill="#C30B0D"/>
<path d="M33.5823 13.5792C34.3385 13.6562 34.929 14.2949 34.929 15.0714C34.929 15.3597 34.8453 15.6279 34.7043 15.8566C34.8456 16.0853 34.9289 16.3541 34.929 16.6427C34.929 17.4192 34.3385 18.0579 33.5823 18.1349L33.429 18.1427L33.1946 18.131C32.119 18.0216 31.2638 17.1665 31.1545 16.0909L31.1428 15.8575L31.1545 15.6232C31.2717 14.4707 32.2456 13.5714 33.429 13.5714L33.5823 13.5792Z" fill="#C30B0D"/>
<path d="M35.7147 15.8575C35.7145 17.1196 34.691 18.1427 33.4286 18.1427C32.6002 18.1427 31.9286 17.4711 31.9286 16.6427C31.9286 16.3542 32.011 16.0853 32.1522 15.8566C32.0113 15.628 31.9286 15.3596 31.9286 15.0714C31.9286 14.243 32.6002 13.5714 33.4286 13.5714C34.6912 13.5714 35.7147 14.5953 35.7147 15.8575Z" fill="#C30B0D"/>
</svg>
